<svg viewBox="0 0 308 350" fill="none" xmlns="http://www.w3.org/2000/svg">
  <path d="M187.39 10.4051c-3.213 1.2759-5.997 3.3871-9.245 4.6515-2.633 1.0207-3.213 3.3639-1.948 5.9042.893 1.7864-.035 3.654-1.972 3.9092-2.262.3016-4.548.5336-6.821.7656-2.622.2667-3.758 2.1111-2.749 4.5471.325.7887.673 1.5659.939 2.3663.256.7772.267 1.5776-.452 2.1576-.777.6264-1.566.4756-2.355-.0348-3.248-2.088-6.507-4.1643-9.755-6.2407-2.088-1.3456-4.199-2.6564-6.264-4.0483-.893-.6032-1.682-.9048-2.703-.3016-.997.5916-1.229 1.4384-1.171 2.4939.058.986.046 1.9604.069 2.9464.035 1.044-.116 2.0067-1.287 2.3779-1.033.3248-1.752-.1972-2.344-.9976-3.572-4.8371-7.435-9.4886-10.115-14.9289-1.078-2.1923-2.029-5.6606-2.029-5.6606h58.056c.708.0348 1.427.0696 2.146.0928zM56.916 199.319c2.4476-.105 2.7376-.406 2.9116-2.877.6611-9.117 1.2643-18.246 2.0415-27.352.5452-6.438 1.0556-12.887 1.5544-19.325.6728-8.723 1.5544-17.423 2.2619-26.146.4872-5.928.812-11.867 1.2876-17.794.6148-7.7373 1.276-15.4744 1.9372-23.2114.5452-6.4263 1.0788-12.8526 1.6819-19.2672.5104-5.3939.7076-10.811 1.8792-16.1353 2.0184-9.1058 5.9275-17.0981 13.6297-22.724 3.3292-2.4359 7.1571-4.0599 11.1822-5.0343.9628-.232 2.0764-.406 2.7958.7888.661 1.1136-.1278 1.7052-.6846 2.3896-4.3731 5.3707-8.6767 10.7994-11.5998 17.1676-2.9347 6.3915-4.8371 13.0614-5.5215 20.0676-.9164 9.2914-.4756 18.5133 1.508 27.6423.4872 2.2619-.522 4.1063-1.9488 5.7303-3.9555 4.5007-3.8511 5.2083.0928 9.825 5.1039 5.974 9.6974 12.342 13.4442 19.29 2.4359 4.513 2.9579 8.839.5335 13.804-4.5819 9.408-9.129 18.85-12.8989 28.64-1.5428 3.99-2.6912 8.108-2.9463 12.354-.2436 3.967 1.2063 7.598 3.7119 10.706 3.7815 4.675 8.781 7.819 13.9081 10.765 1.334.765 2.146-.534 3.1664-.963-.336 2.587 47.954 49.891 53.916 49.717-1.995 1.31-2.749 3.132-2.436 5.498.128.963.023 1.949.023 2.935 0 3.688.847 4.651 4.42 4.964-4.396.72-8.77.186-13.05-.672-21.703-4.35-40.877-14.013-57.8016-28.188-9.071-7.598-17.214-16.112-24.8003-25.171-1.8095-2.193-3.3407-4.64-4.1991-7.424z" fill="#F7CEA2"/>
  <path d="M32.9848 67.1163c-.3364-4.2339 2.4359-8.6766 5.6259-12.8757 4.8719-6.4031 10.231-12.4118 15.7988-18.2233.9048-.9511 2.0184-2.6331 3.2596-1.7979 1.2876.8584.0812 2.5403-.464 3.6887-5.7999 12.2494-9.999 25.0787-13.6065 38.1053-.7656 2.7491-1.45 5.5214-2.1692 8.2822-.2552.9744-.4756 1.8907-1.74 2.0647-1.2643.1624-1.7515-.6611-2.2039-1.5543-2.5868-5.1155-4.3615-10.4746-4.5007-17.6897zM273.275 68.7055c-.012 4.176-.986 8.1547-2.576 11.9826-.881 2.1112-1.693 2.1692-3.166.464-.627-.7192-.986-1.5428-1.323-2.3896-5.684-14.3025-11.367-28.6166-17.051-42.9191-.186-.464-.685-1.0556-.151-1.4152.731-.4988 1.415.116 1.879.6032 2.332 2.3896 4.663 4.7907 6.879 7.2847 4.187 4.6863 8.317 9.419 11.866 14.6273 2.796 4.1063 3.643 6.9946 3.643 11.7621zM190.15 108.771c1.264 2.575 2.494 5.162 3.735 7.749.743 1.554.255 3.201-1.218 4.257-1.508 1.067-2.934.974-4.21-.36-.406-.417-.801-.881-1.056-1.392-4.106-8.317-7.934-16.75-10.022-25.8441-2.193-9.5814-1.856-18.954 2.749-27.8859.533-1.044 1.125-2.0763 1.809-3.0275 1.207-1.7052 2.935-2.1344 4.42-1.1832 1.821 1.1716 2.448 3.1319 1.334 4.9067-2.297 3.6539-3.735 7.5863-4.396 11.8434-.337 2.1575-.244 4.3151-.163 6.461.418 11.6114 3.991 18.3046 7.018 24.4756z" fill="#9E6844"/>
  <path d="M210.613 77.7302c1.601-.812 1.705-2.03.881-3.5496-2.157-3.9671-3.189-8.4446 2.378-6.113 3.283 1.3803 6.206 4.1875 7.239 6.9946.997 2.7028.974 5.7999.452 8.665-.278 1.5776-1.021 2.5288-2.575 3.1088-3.48 1.2876-7.192 1.9487-10.486 3.7931-2.03 1.1368-2.262 1.7516-.859 3.5727 2.912 3.7584 2.251 7.7142-1.89 10.0922-4.466 2.563-9.211 3.05-14.071 2.18-1.67-.301-3.271-.962-4.605-2.006-.719-.557-1.357-1.195-1.937-1.996-1.868-2.5747-3.828-5.5094-4.988-8.5602-.777-2.0415-.638-3.2943 1.218-4.5123 1.45-.9395 27.897-10.9849 29.243-11.6693z" fill="#030303"/>
  <path d="M203.804 197.915c-.847-6.867-.174-6.832-1.763-13.583-.835-3.55-2.158-9.628-3.19-12.435-3.236-8.827-9.164-23.188-13.003-31.807-2.088-4.674-4.71-9.593-7.146-14.093-3.689-6.821-8.92-12.076-17.133-14.28-2.691-.719-5.428-1.032-8.131-.962-2.703-.07-5.441.232-8.132.962-8.212 2.204-13.444 7.447-17.133 14.28-2.435 4.5-5.057 9.43-7.145 14.093-3.851 8.607-9.779 22.98-13.003 31.807-1.033 2.807-2.355 8.874-3.19 12.435-1.589 6.751-.917 6.716-1.763 13.583-.511 4.13-1.81 10.846-1.45 15.022.359 4.292 4.187 11.89 8.003 13.897 3.005 1.589 20.996 1.925 24 3.572 3.712 2.042 12.586 5.963 19.813 7.586 7.226-1.623 16.1-5.556 19.812-7.586 3.016-1.647 20.996-1.983 24-3.572 3.805-2.007 7.644-9.605 8.004-13.897.36-4.176-.94-10.892-1.45-15.022z" fill="#9E6844"/>
  <path d="M196.623 166.004s4.35 17.597 5.777 31.262c.429 4.141.754 8.792.406 12.968-.36 4.292-3.19 7.366-6.995 9.373-3.004 1.589-6.531 1.566-9.953 1.16-6.588-.777-11.205-4.791-15.636-9.129-2.691-2.633-5.44-5.22-8.155-7.842-1.589-1.531-2.401-3.329-2.378-5.591.081-6.159.139-11.936-.023-18.095-.07-2.691 1.172-4.721 3.341-5.916 4.767-2.633 8.908-6.009 12.133-10.347 3.909-5.267 2.169-14.407-3.747-16.53-2.076-.742-4.257-1.148-6.461-1.171-3.839-.035-7.667-.058-11.507-.07-3.839.012-7.667.035-11.507.07-2.192.023-4.373.429-6.461 1.171-5.916 2.123-7.655 11.263-3.746 16.53 3.224 4.338 7.366 7.714 12.133 10.347 2.169 1.195 3.41 3.225 3.341 5.916-.163 6.159-.105 11.936-.023 18.095.034 2.262-.789 4.06-2.378 5.591-2.715 2.622-5.452 5.209-8.155 7.842-4.443 4.338-9.059 8.352-15.637 9.129-3.421.406-6.936.417-9.952-1.16-3.805-2.007-6.635-5.081-6.995-9.373-.348-4.164-.023-8.816.406-12.968 1.427-13.665 5.777-31.262 5.777-31.262-5.174 10.243-15.4394 35.936-12.8063 53.58.6264 4.176 2.0996 7.841 5.9043 10.173 3.596 2.702 12.887 3.804 18.107 2.784 3.063-.557 4.605.614 6.032 2.714 2.54 3.735 5.939 6.484 9.964 8.549 5.035 2.587 10.405 3.584 15.985 3.584 5.579 0 10.95-1.009 15.984-3.584 4.014-2.065 7.413-4.814 9.965-8.549 1.426-2.088 2.969-3.271 6.031-2.714 5.22 1.02 14.523-.082 18.108-2.784 3.804-2.332 5.289-5.997 5.904-10.173 2.656-17.632-7.621-43.325-12.783-53.58zm-29.382 65.04c-3.805 3.225-8.306 4.455-13.804 4.536-5.498-.081-9.999-1.311-13.804-4.536-2.389-2.018-2.494-3.955-.15-5.927 3.758-3.167 7.11-6.728 10.718-10.046 1.264-1.148 2.238-1.682 3.236-1.612.998-.07 1.984.464 3.236 1.612 3.608 3.306 6.96 6.879 10.719 10.046 2.343 1.972 2.238 3.909-.151 5.927z" fill="#030303"/>
  <path d="M119.938 108.771c-1.265 2.575-2.494 5.162-3.735 7.749-.743 1.554-.256 3.201 1.218 4.257 1.508 1.067 2.934.974 4.21-.36.406-.417.801-.881 1.056-1.392 4.106-8.317 7.934-16.75 10.022-25.8441 2.192-9.5814 1.856-18.954-2.749-27.8859-.534-1.044-1.125-2.0763-1.81-3.0275-1.206-1.7052-2.934-2.1344-4.419-1.1832-1.821 1.1716-2.448 3.1319-1.334 4.9067 2.297 3.6539 3.735 7.5863 4.396 11.8434.337 2.1575.244 4.3151.163 6.461-.418 11.6114-3.991 18.3046-7.018 24.4756z" fill="#9E6844"/>
  <path d="M99.4753 77.7302c-1.6008-.812-1.7052-2.03-.8816-3.5496 2.1573-3.9671 3.1903-8.4446-2.3779-6.113-3.2828 1.3803-6.2059 4.1875-7.2383 6.9946-.9976 2.7028-.9744 5.7999-.4524 8.665.2784 1.5776 1.0208 2.5288 2.5752 3.1088 3.4799 1.2876 7.1918 1.9487 10.4857 3.7931 2.03 1.1368 2.262 1.7516.859 3.5727-2.9117 3.7584-2.251 7.7142 1.891 10.0922 4.466 2.563 9.21 3.05 14.07 2.18 1.67-.301 3.271-.962 4.605-2.006.719-.557 1.357-1.195 1.937-1.996 1.868-2.5747 3.828-5.5094 4.988-8.5602.777-2.0415.638-3.2943-1.218-4.5123-1.45-.9395-27.897-10.9849-29.2427-11.6693z" fill="#030303"/>
  <path d="M152.405 262.433c-2.622-.011-5.452-.336-8.92-1.032-21.286-4.269-40.936-13.85-58.3937-28.466-8.4447-7.076-16.6109-15.358-24.9627-25.345-2.1576-2.576-3.6192-5.139-4.4543-7.807-2.262-5.208-3.0856-10.962-2.5056-17.62.3132-3.642.6148-7.285.928-10.939l.5104-6.078.6844-8.108c.3711-4.397.7539-8.804 1.1135-13.201.232-2.807.464-5.614.6844-8.421.2204-2.668.4292-5.348.6612-8.016.2436-2.992.5104-5.974.7656-8.966.2204-2.622.4524-5.232.6612-7.853.2552-3.005.4988-5.997.7424-9.002.1972-2.3429.3828-4.6977.58-7.0408l.5799-6.9599c.29-3.4103.58-6.8322.8584-10.2426.1624-1.9023.3016-3.8047.4524-5.7186.2668-3.4568.5452-7.0295.8816-10.5326.2088-2.2736.348-4.6052.4872-6.8555.3016-4.9879.6032-10.1498 1.7284-15.1493 2.6795-11.8666 10.2078-20.6244 22.3759-26.0299 4.4659-1.9835 9.5698-3.10873 15.6364-3.44512 3.016-.1624 6.241-.2436 10.127-.2436 2.702 0 5.452.0348 8.096.0696l3.051.0348c.244-.0116.545-.0232.847-.0348.696-.0232 1.38-.0464 2.076-.0464h49.427c.696 0 1.38.0232 2.076.0464.302.0116.603.0232.905.0348l3.004-.0348c2.657-.0348 5.394-.0696 8.097-.0696 3.886 0 7.111.0812 10.127.2436 6.055.33639 11.17 1.46162 15.636 3.44512 12.168 5.4055 19.696 14.1633 22.376 26.0299 1.125 5.0111 1.438 10.1614 1.728 15.1493.14 2.2503.279 4.5819.488 6.8555.324 3.5147.603 7.0874.881 10.5441.151 1.9024.302 3.8048.453 5.7187.266 3.2944.545 6.5771.823 9.8714.209 2.4476.418 4.8951.615 7.3427l.568 6.8666c.255 3.063.499 6.114.766 9.176.22 2.633.441 5.255.673 7.888.255 2.981.51 5.95.754 8.932.22 2.702.44 5.405.661 8.108.22 2.772.452 5.544.684 8.317.371 4.501.754 8.99 1.137 13.49l.661 7.83.522 6.171c.302 3.619.603 7.227.917 10.846.568 6.647-.244 12.412-2.506 17.62-.835 2.668-2.297 5.232-4.454 7.807-8.352 9.976-16.518 18.269-24.963 25.345-17.458 14.616-37.108 24.197-58.405 28.466-3.48.673-6.322 1.009-8.943 1.009z" fill="#fff"/>
  <path d="M183.782 10.1846c-3.213 1.276-5.997 3.3871-9.245 4.6515-2.633 1.0208-3.213 3.3639-1.949 5.9043.893 1.7863-.035 3.6539-1.972 3.9091-2.262.3016-4.547.5336-6.82.7656-2.622.2668-3.759 2.1112-2.75 4.5471.325.7888.673 1.566.94 2.3664.255.7771.267 1.5775-.452 2.1575-.778.6264-1.566.4756-2.355-.0348-3.248-2.0879-6.508-4.1643-9.756-6.2407-2.088-1.3455-4.199-2.6563-6.263-4.0483-.894-.6032-1.682-.9048-2.703-.3016-.998.5916-1.23 1.4384-1.172 2.494.058.986.047 1.9603.07 2.9463.035 1.044-.116 2.0068-1.288 2.378-1.032.3248-1.751-.1972-2.343-.9976-3.573-4.8371-7.435-9.4886-10.115-14.9289-1.079-2.1924-2.03-5.6607-2.03-5.6607h58.057c.708.0348 1.427.0696 2.146.0928z" fill="#F7CEA2"/>
  <path d="M297.379 108.922c5.324-7.099 7.923-15.1263 7.354-23.9421-.673-10.463-4.999-19.302-13.189-26.0067-13.409-10.9618-26.969-21.7611-40.309-32.8157-5.081-4.2107-10.741-7.4239-16.39-10.7182-6.844-3.9903-13.688-8.06185-21.321-10.3702C201.913 1.56597 171.962 0 152.405 0c-19.557 0-49.508 1.56597-61.1192 5.0691-7.6326 2.29675-14.4765 6.3683-21.3204 10.3702-5.649 3.2943-11.3097 6.4959-16.3904 10.7182-13.3398 11.043-26.8999 21.8423-40.3092 32.8041C5.06474 65.6663.749622 74.5053.0768355 84.9683-.491553 93.7841 2.10679 101.811 7.43109 108.91c11.35621 15.15 22.68911 30.322 34.10331 45.413 2.378 3.132 3.8859 6.067 3.4451 10.405-.8815 8.816-2.3779 16.808-1.6587 26.343.5104 7.645 2.1691 9.141.2784 11.275-.058.058-.1044.128-.1392.186-1.16 1.392-2.1344 2.981-2.8884 4.791-1.4615 3.503-1.6355 7.157-1.0787 10.903.7191 4.768 1.3687 9.559 2.0995 14.326 1.1948 7.772 7.2151 13.955 14.4997 14.952 2.3316.325 4.6167.139 6.8671-.58 1.5428-.487 2.8883-.139 4.0715.94 1.2412 1.137 2.4592 2.285 3.6655 3.468 1.2876 1.276 1.7052 2.738 1.3224 4.687-1.4964 7.655.7656 13.989 6.6699 18.582 4.4891 3.492 9.303 6.543 14.1981 9.385 6.2059 3.607 13.3514 2.737 18.8144-2.042 1.404-1.23 2.866-1.636 4.664-.835 3.12 1.392 6.321 2.587 9.465 3.932 1.496.65 2.517 1.833 2.819 3.584 1.322 7.61 7.69 13.769 14.94 14.407 2.947.256 5.904.198 8.851.151 2.958.035 5.904.105 8.85-.151 7.25-.638 13.619-6.797 14.941-14.407.302-1.751 1.311-2.946 2.819-3.584 3.143-1.345 6.345-2.54 9.465-3.932 1.798-.801 3.26-.395 4.663.835 5.464 4.779 12.609 5.649 18.815 2.042 4.895-2.842 9.697-5.882 14.198-9.385 5.904-4.593 8.166-10.927 6.67-18.582-.383-1.949.023-3.411 1.322-4.687 1.195-1.183 2.425-2.343 3.666-3.468 1.183-1.079 2.54-1.427 4.071-.94 2.239.708 4.536.893 6.868.58 7.284-.997 13.304-7.18 14.499-14.952.731-4.767 1.381-9.546 2.1-14.326.557-3.746.383-7.4-1.079-10.903-.754-1.798-1.728-3.387-2.888-4.791-.035-.058-.082-.128-.14-.186-1.89-2.134-.232-3.63.279-11.275.719-9.546-.777-17.527-1.659-26.343-.441-4.338 1.067-7.273 3.445-10.405 11.356-15.091 22.678-30.263 34.034-45.401zM59.8504 229.71c-1.5775.058-3.0391.719-4.2455 2.297-.6032.789-1.7747.742-2.3431-.104-.2436-.36-.348-.778-.4408-1.218-.3364-1.601-.8004-3.469-1.1136-4.965-.4988-2.424-1.2644-5.406-1.4848-7.331-.1624-2.575 2.1576-2.726 3.6308-.859.116.174.2436.348.3596.511.0116.011.0116.023.0232.023.4639.673.9395 1.334 1.3919 2.007.5684.823 1.1136 1.659 1.6704 2.471v.011c.0116.023.0232.035.0348.058.0928.128.174.267.2668.395l.0116.011c.174.255.348.499.522.754 1.1716 1.694 1.8675 2.575 2.8651 3.747.8352.974.3132 2.146-1.1484 2.192zm22.5964 12.574c-.232.859-.7308 1.427-1.5892 1.624-1.1599.256-2.1459-.127-3.0043-.893-.986-.87-1.9372-1.786-2.8651-2.714-.7308-.731-1.218-1.624-1.2412-3.121-.0232-.638.522-1.229 1.3223-1.647.7888-.406 1.4152-.162 2.0416.441 1.5196 1.485 3.0623 2.935 4.6051 4.373.5916.522.9628 1.102.7308 1.937zm21.1582 22.458c-.221.174-.464.313-.719.429-2.738 1.241-3.9559 3.839-3.1323 6.902.3133 1.136-.7424 2.157-1.6124 1.995-.5104-.093-.9512-.337-1.3804-.615-2.8883-1.891-5.7767-3.77-8.6534-5.672-.9628-.638-1.914-1.276-2.842-1.972-.8467-.638-.7539-1.833.1624-2.355.2668-.151.5568-.244.8468-.313 2.7956-.754 4.3963-3.074 4.2339-6.125-.0116-.267-.0464-.533-.0812-.847 0-1.171 1.2528-1.856 2.3316-1.148 3.6191 2.355 7.2151 4.733 10.811 7.145.928.615.916 1.88.035 2.576zm29.591 7.911c-.545.603-1.137 1.136-1.845 1.508-.754.394-1.531.464-2.331.139-2.97-1.218-5.962-2.367-8.897-3.689-1.369-.615-2.285-1.786-2.367-2.726-.104-2.401 1.195-3.445 2.622-2.865 3.12 1.264 6.252 2.447 9.454 3.48.893.29 1.798.522 2.656.858 1.45.58 1.775 2.123.708 3.295zm26.749 16.668c.649.627.267 2.019-.65 2.425-.359.162-.754.243-1.171.243-1.914-.011-3.817-.011-5.731-.011-1.914 0-3.816 0-5.73.011-.417 0-.8-.081-1.171-.243-.905-.406-1.3-1.787-.65-2.425 2.146-2.076 2.401-5.672-.186-8.015-.487-.441-.522-.916-.359-1.508.232-.835.858-1.299 1.856-1.299 2.064-.012 4.129 0 6.194 0h.093c2.065 0 4.129-.012 6.194 0 .998 0 1.612.464 1.856 1.299.162.58.128 1.067-.36 1.508-2.586 2.343-2.331 5.939-.185 8.015zm27.109-21.436c-.082.94-1.01 2.111-2.367 2.726-2.935 1.311-5.927 2.459-8.897 3.689-.8.336-1.577.255-2.331-.139-.708-.372-1.3-.905-1.845-1.508-1.067-1.172-.742-2.715.708-3.283.87-.337 1.775-.58 2.656-.859 3.19-1.02 6.334-2.204 9.454-3.479 1.427-.58 2.726.464 2.622 2.853zm32.479-2.076c-.928.684-1.879 1.334-2.842 1.972-2.877 1.902-5.765 3.781-8.653 5.672-.43.278-.87.522-1.381.615-.87.162-1.925-.859-1.612-1.995.835-3.051-.395-5.649-3.132-6.902-.255-.116-.499-.255-.719-.429-.882-.708-.894-1.972.023-2.587 3.584-2.401 7.192-4.791 10.811-7.146 1.079-.707 2.32-.011 2.331 1.149-.034.313-.058.58-.081.846-.174 3.051 1.439 5.371 4.234 6.125.29.081.592.174.847.313.928.534 1.021 1.729.174 2.367zm10.289-25.508c-.928.939-1.879 1.844-2.865 2.714-.859.766-1.856 1.149-3.005.893-.858-.185-1.345-.765-1.589-1.624-.232-.835.151-1.415.719-1.948 1.555-1.439 3.098-2.889 4.606-4.373.626-.615 1.252-.847 2.041-.441.8.406 1.357 1.009 1.322 1.647-.011 1.508-.51 2.389-1.229 3.132zm-10.95-8.387c-16.924 14.175-36.099 23.826-57.802 28.188-2.853.568-5.753.997-8.665 1.009-2.923-.012-5.811-.429-8.665-1.009-21.703-4.35-40.878-14.013-57.8017-28.188-9.071-7.598-17.214-16.112-24.8003-25.171-1.8327-2.193-3.3639-4.629-4.2223-7.413-2.3895-5.451-2.9347-11.17-2.4359-17.04.4871-5.672.9511-11.344 1.4383-17.016.6032-7.111 1.2064-14.21 1.8096-21.321.4524-5.475.8932-10.962 1.3456-16.437.464-5.602.9511-11.205 1.4267-16.819.4524-5.348.8816-10.695 1.3224-16.0429.4756-5.7419.9744-11.4722 1.4384-17.2024.4408-5.4171.8236-10.8342 1.3224-16.2397.6843-7.2847.5799-14.6853 2.1923-21.8308 2.726-12.0985 10.4746-20.1604 21.6104-25.1019 4.8023-2.1343 9.8946-3.0391 15.1721-3.3291 7.065-.3944 14.129-.2088 21.193-.1276.975-.0232 1.961-.0812 2.935-.0812h49.438c.975 0 1.96.058 2.935.0812 7.064-.0812 14.117-.2668 21.193.1276 5.266.29 10.37 1.1948 15.172 3.3291 11.136 4.9415 18.885 13.015 21.611 25.1019 1.612 7.1455 1.507 14.5461 2.192 21.8308.51 5.4055.881 10.8226 1.322 16.2397.476 5.7418.963 11.4721 1.439 17.2024.44 5.3479.881 10.6949 1.322 16.0429.476 5.602.963 11.205 1.427 16.819.452 5.475.893 10.962 1.345 16.437.592 7.111 1.207 14.21 1.81 21.321.476 5.672.951 11.344 1.438 17.016.511 5.87-.046 11.577-2.436 17.04-.858 2.784-2.389 5.232-4.222 7.413-7.586 9.059-15.729 17.573-24.8 25.171zm35.704-13.525c-.221 1.925-.986 4.907-1.485 7.331-.302 1.496-.766 3.375-1.114 4.965-.092.429-.197.846-.44 1.218-.569.846-1.729.893-2.344.104-1.206-1.578-2.667-2.239-4.245-2.297-1.473-.046-1.984-1.218-1.172-2.181.998-1.171 1.694-2.064 2.866-3.746.174-.244.348-.499.522-.754l.011-.012c.093-.127.174-.267.267-.394.012-.023.023-.035.035-.058v-.012c.557-.812 1.102-1.647 1.67-2.471.464-.672.928-1.334 1.392-2.006 0-.012.012-.012.023-.024.116-.174.244-.348.36-.51 1.496-1.867 3.828-1.728 3.654.847z" fill="#010101"/>
  <path d="M56.916 199.319c2.4476-.105 2.7376-.406 2.9116-2.877.6611-9.117 1.2643-18.246 2.0415-27.352.5452-6.438 1.0556-12.887 1.5544-19.325.6728-8.723 1.5544-17.423 2.2619-26.146.4872-5.928.812-11.867 1.2876-17.794.6148-7.7373 1.276-15.4744 1.9372-23.2114.5452-6.4263 1.0788-12.8526 1.6819-19.2672.5104-5.3939.7076-10.811 1.8792-16.1353 2.0184-9.1058 5.9275-17.0981 13.6297-22.724 3.3292-2.4359 7.1571-4.0599 11.1822-5.0343.9628-.232 2.0764-.406 2.7958.7888.661 1.1136-.1278 1.7052-.6846 2.3896-4.3731 5.3707-8.6767 10.7994-11.5998 17.1676-2.9347 6.3915-4.8371 13.0614-5.5215 20.0676-.9164 9.2914-.4756 18.5133 1.508 27.6423.4872 2.2619-.522 4.1063-1.9488 5.7303-3.9555 4.5007-3.8511 5.2083.0928 9.825 5.1039 5.974 9.6974 12.342 13.4442 19.29 2.4359 4.513 2.9579 8.839.5335 13.804-4.5819 9.408-9.129 18.85-12.8989 28.64-1.5428 3.99-2.6912 8.108-2.9463 12.354-.2436 3.967 1.2063 7.598 3.7119 10.706 3.7815 4.675 8.781 7.819 13.9081 10.765 1.334.765 2.146-.534 3.1664-.963-.336 2.587 47.954 49.891 53.916 49.717-1.995 1.31-2.749 3.132-2.436 5.498.128.963.023 1.949.023 2.935 0 3.688.847 4.651 4.42 4.964-4.396.72-8.77.186-13.05-.672-21.703-4.35-40.877-14.013-57.8016-28.188-9.071-7.598-17.214-16.112-24.8003-25.171-1.8095-2.193-3.3407-4.64-4.1991-7.424z" fill="#F7CEA2"/>
  <path d="M32.9848 67.1163c-.3364-4.2339 2.4359-8.6766 5.6259-12.8757 4.8719-6.4031 10.231-12.4118 15.7988-18.2233.9048-.9511 2.0184-2.6331 3.2596-1.7979 1.2876.8584.0812 2.5403-.464 3.6887-5.7999 12.2494-9.999 25.0787-13.6065 38.1053-.7656 2.7491-1.45 5.5214-2.1692 8.2822-.2552.9744-.4756 1.8907-1.74 2.0647-1.2643.1624-1.7515-.6611-2.2039-1.5543-2.5868-5.1155-4.3615-10.463-4.5007-17.6897zM273.275 68.7055c-.012 4.176-.986 8.1547-2.576 11.9826-.881 2.1112-1.693 2.1692-3.166.464-.627-.7192-.986-1.5428-1.323-2.3896-5.684-14.3025-11.367-28.6166-17.051-42.9191-.186-.464-.685-1.0556-.151-1.4152.731-.4988 1.415.116 1.879.6032 2.332 2.3896 4.663 4.7907 6.879 7.2847 4.187 4.6863 8.317 9.419 11.866 14.6273 2.796 4.1063 3.643 6.9946 3.643 11.7621zM189.629 108.91c1.183 2.61 2.343 5.232 3.503 7.865.696 1.577.162 3.213-1.346 4.222-1.531 1.021-2.958.893-4.199-.487-.394-.429-.777-.905-1.021-1.427-3.851-8.433-7.447-16.982-9.256-26.1341-1.903-9.651-1.299-19.0004 3.573-27.793.568-1.0324 1.194-2.0416 1.89-2.9812 1.253-1.6703 3.005-2.0415 4.455-1.0556 1.786 1.218 2.354 3.2016 1.183 4.9531-2.413 3.5844-3.956 7.4703-4.745 11.7158-.394 2.146-.371 4.3035-.348 6.4611.093 11.6114 3.469 18.3969 6.311 24.6609z" fill="#9E6844"/>
  <path d="M212.237 79.5977c1.647-.696 1.844-1.914 1.125-3.4799-1.879-4.1064-2.61-8.6419 2.796-5.9391 3.178 1.6007 5.904 4.6051 6.751 7.4702.812 2.7608.568 5.8463-.14 8.6766-.394 1.5544-1.183 2.4476-2.783 2.9232-3.562 1.0556-7.308 1.4616-10.73 3.0739-2.1.986-2.378 1.5892-1.102 3.5032 2.644 3.9555 1.717 7.8532-2.575 9.9412-4.629 2.25-9.396 2.413-14.187 1.218-1.647-.406-3.201-1.183-4.466-2.309-.673-.603-1.276-1.287-1.798-2.122-1.693-2.7031-3.433-5.7539-4.385-8.8742-.637-2.0996-.417-3.3291 1.52-4.4195 1.52-.8584 28.593-9.071 29.974-9.6626z" fill="#030303"/>
  <path d="M120.007 108.771c-1.264 2.575-2.494 5.162-3.735 7.749-.742 1.554-.255 3.201 1.218 4.257 1.508 1.067 2.935.974 4.211-.36.406-.417.8-.881 1.055-1.392 4.107-8.317 7.934-16.75 10.022-25.8441 2.193-9.5814 1.856-18.954-2.749-27.8859-.533-1.044-1.125-2.0763-1.809-3.0275-1.207-1.7052-2.935-2.1344-4.42-1.1832-1.821 1.1716-2.447 3.1319-1.334 4.9067 2.297 3.6539 3.735 7.5863 4.397 11.8434.336 2.1575.243 4.3151.162 6.461-.406 11.6114-3.99 18.3046-7.018 24.4756z" fill="#9E6844"/>
  <path d="M97.9212 79.5977c-1.6472-.696-1.8444-1.914-1.1252-3.4799 1.8791-4.1064 2.6099-8.6419-2.7956-5.9391-3.1783 1.6007-5.9042 4.6051-6.751 7.4702-.812 2.7608-.5684 5.8463.1392 8.6766.3944 1.5544 1.1831 2.4476 2.7839 2.9232 3.5611 1.0556 7.3079 1.4616 10.7295 3.0739 2.1.986 2.378 1.5892 1.102 3.5032-2.6445 3.9555-1.716 7.8532 2.575 9.9412 4.629 2.25 9.396 2.413 14.187 1.218 1.647-.406 3.201-1.183 4.466-2.309.673-.603 1.276-1.287 1.798-2.122 1.693-2.7031 3.433-5.7539 4.385-8.8742.638-2.0996.417-3.3291-1.52-4.4195-1.508-.8584-28.5819-9.071-29.9738-9.6626z" fill="#030303"/>
  <path d="M294.351 237.436l8.306 25.252c1.647 5.023 4.245 14.036-17.319 21.135-21.552 7.087-22.759-5.359-51.712 4.153-44.659 14.685-37.71 33.291-93.726 51.712-56.0267 18.432-91.3596-6.554-101.4862-37.352l-8.3054-25.252c10.1266 30.797 45.4711 55.794 101.4976 37.374 56.027-18.42 49.067-37.026 93.727-51.712 28.941-9.523 30.147 2.912 51.7-4.176 21.564-7.099 18.965-16.123 17.318-21.134z" fill="#9E6844"/>
  <path d="M130.632 311.535c-53.5907 17.62-87.636-5.081-97.6119-35.403-.8351-2.517-19.476-62.035 52.8834-85.838 113.7125-37.398 199.7245 30.461 205.5245 48.093 1.439 4.384 3.631 11.019-15.346 17.26-9.28 3.051-14.338 2.239-20.195 1.288-7.158-1.16-15.277-2.471-31.517 2.876-21.61 7.111-31.389 15.069-41.759 23.502-11.275 9.187-22.921 18.664-51.979 28.222z" fill="#fff"/>
  <path d="M84.9522 187.371c-68.5894 22.561-58.7644 77.811-54.8437 89.713 10.1266 30.797 45.4711 55.794 101.4985 37.374 56.026-18.42 49.067-37.026 93.726-51.712 28.941-9.523 30.147 2.912 51.7-4.176 21.575-7.099 18.977-16.112 17.318-21.134-6.507-19.79-95.373-87.567-209.3988-50.065zm203.5648 51.978c.788 2.39 1.032 3.805.348 5.186-.778 1.635-3.643 4.86-13.758 8.189-8.56 2.819-13.049 2.088-18.733 1.183-7.517-1.218-16.02-2.575-32.967 2.993-22.132 7.285-32.618 15.799-42.733 24.035-11.055 8.978-22.481 18.304-50.993 27.677-51.5726 16.959-84.2492-4.582-93.7378-33.454l-.0116-.023c-2.1459-6.531-4.5123-21.727.2784-37.108 6.4611-20.81 23.5011-35.901 50.6562-44.833 59.5998-19.604 109.5018-8.955 140.8448 3.434 34.335 13.56 56.444 33.326 60.4 41.724.174.359.301.684.406.997z" fill="#EA5743"/>
  <path d="M42.2882 270.46c-7.3775-22.434 8.9086-60.296 44.4039-71.965 35.5069-11.681 62.4299 9.454 65.0629 17.481 3.434 10.451-.742 16.947 1.74 24.487 4.373 13.293 16.112 6.913 21.553 23.455 2.934 8.92-11.716 27.746-42.189 37.769-30.472 10.01-78.2055 6.333-90.5708-31.227zM166.093 223.562c-4.002-12.156-3.272-30.716 4.175-33.175 14.674-4.826 108.482 22.051 113.562 51.34.801 4.629-7.772 7.099-13.606 7.853-17.562 2.262-28.292-3.317-42.699.186-10.138 2.471-22.434 11.263-33.373 14.859-12.319 4.06-16.912-7.18-28.059-41.063z" fill="#EA5743"/>
  <path d="M91.4231 275.505c13.8989-4.572 23.0539-14.7 20.4489-22.623-2.606-7.924-15.9861-10.641-29.8852-6.07-13.899 4.571-23.0541 14.7-20.4483 22.623 2.6057 7.923 15.9855 10.641 29.8846 6.07z" fill="#F7CEA2"/>
  <path d="M33.9133 294.912c5.7419 13.328 18.5481 20.497 31.7718 24.905 15.4277 5.15 32.1429 6.287 48.2319 4.315 16.344-2.007 32.444-6.948 47.025-14.65 14.883-7.853 26.019-20.984 40.866-29.081 17.446-9.512 35.971-13.723 55.656-14.883 4.478-.266 4.559-6.936 0-7.017-19.174-.36-38.987 5.011-56.015 13.618-18.2 9.198-31.517 25.102-49.868 33.859-18.698 8.921-39.926 13.259-60.62 11.751-18.6756-1.357-42.8496-7.795-52.8022-25.299-1.6007-2.842-5.4635-.348-4.2455 2.482z" fill="#000"/>
  <path d="M252.661 265.113c10.486-.847 21.645 1.067 31.726-2.692 9.384-3.503 14.082-10.277 14.754-20.137.256-3.677-5.823-4.558-6.495-.881-.847 4.582-1.184 8.456-5.081 11.611-3.503 2.842-8.016 4.188-12.435 4.733-7.737.963-15.497.626-23.211 1.925-3.039.522-2.355 5.696.742 5.441zM39.0865 294.796c-4.4659-10.892-8.723-21.262-9.129-33.233-.3596-10.382 1.4732-20.659 5.2315-30.333 7.4122-19.105 21.4364-32.491 38.8128-42.606 3.9323-2.286.4756-7.587-3.4567-5.928-19.5456 8.259-34.8457 27.202-42.3972 46.585-8.2822 21.274-8.6186 49.658 6.7743 67.951 1.5312 1.845 5.1155-.139 4.1643-2.436z" fill="#000"/>
  <path d="M46.963 208.981c27.9438-22.55 65.887-30.994 101.034-30.832 19.488.093 39.544 1.972 58.614 6.09 17.364 3.758 33.651 14.685 49.09 23.118 7.574 4.141 15.776 7.726 22.469 13.27 6.345 5.243 13.711 15.242 14.812 23.652.638 4.861 8.376 4.93 7.726 0-2.053-15.659-14.848-28.698-28.025-36.133-16.936-9.558-34.591-19.325-52.57-26.737-9.396-3.875-19.418-5.22-29.417-6.647-10.417-1.485-20.88-2.61-31.389-3.109-20.485-.986-41.365.325-61.2238 5.672-9.6858 2.61-19.1628 6.09-28.1759 10.521-9.767 4.814-17.7476 11.067-25.8906 18.166-2.0416 1.809.9047 4.628 2.9463 2.969z" fill="#000"/>
  <path d="M70.0346 189.366c5.5678-1.879 11.1937-3.619 16.8892-5.081 5.6375-1.461 11.7274-1.913 17.2142-3.804 3.352-1.16 2.807-6.044-.835-6.206-11.7277-.499-25.0558 4.849-35.6116 9.512-3.1551 1.403-.9164 6.681 2.3432 5.579zM296.485 240.127c-3.445 3.677-1.867 8.003-.081 12.284 1.206 2.9 7.041 16.901 3.062 19.163-2.9 1.647-1.867 7.191 1.822 6.716 7.539-.951 7.122-8.085 6.252-14.245-.511-3.584-1.404-7.052-2.714-10.428-1.624-4.153-2.866-8.328-4.385-12.47-.592-1.566-2.657-2.412-3.956-1.02z" fill="#000"/>
  <path d="M301.137 271.62c-13.63 14.105-36.389 7.83-53.812 10.765-18.327 3.085-34.613 13.026-50.169 22.666-17.62 10.915-35.077 20.114-54.913 26.435-21.32 6.786-42.7798 14.523-64.889 6.647-10.3934-3.7-23.4779-9.732-28.547-20.044-5.6375-11.484-9.477-23.815-15.1609-35.287-1.9256-3.886-8.5027-1.171-7.0643 2.981 3.9555 11.449 9.0014 22.736 13.8733 33.825 4.2919 9.767 11.5534 15.15 20.7752 20.114 9.5466 5.139 19.9168 8.828 30.751 9.907 11.1587 1.102 22.0167-1.508 32.6647-4.548 22.237-6.356 43.778-13.293 63.741-25.229 17.62-10.544 34.544-23.478 54.728-28.721 20.508-5.324 46.956 3.248 61.989-15.532 2.204-2.761-1.392-6.647-3.967-3.979z" fill="#000"/>
  <path d="M188.689 194.969c-4.014-1.798-7.981-2.935-12.122-3.631 1.149-3.747-.185-8.27-4.791-9.024-.649-.105-1.287-.174-1.925-.256h-.046c-3.144-.371-6.183-.371-9.176.035-7.192.325-16.112 1.473-20.497 4.988-6.275 1.52-11.24 5.406-13.165 13.328-.035.116-.024.232-.047.36-.441-.093-.893-.163-1.334-.267-4.941-1.23-8.491 4.814-4.953 8.503 7.459 7.771 23.501 5.022 33.036 3.955 6.345-.707 16.205-.847 22.539-4.593 2.934.127 5.869.15 8.839.058 6.565-.221 10.59-10.347 3.642-13.456z" fill="#030303"/>
  <path d="M119.722 204.185c-2.392-.738-4.615.81-5.511 3.265-2.002-1.061-4.794.119-5.131 3.514-.464 4.647 1.127 9.245 3.962 12.593 2.307 2.716 6.543 1.382 7.407-2.204.843-3.538 1.991-7.16 2.476-10.77.369-2.776-.611-5.588-3.203-6.398z" fill="#fff"/>
  <path d="M212.098 178.938c-.963-7.842-.198-7.807-2.007-15.509-.951-4.06-2.471-10.997-3.643-14.198-3.688-10.069-10.463-26.482-14.847-36.307-2.378-5.336-5.383-10.962-8.155-16.0893-4.211-7.7834-10.184-13.7805-19.557-16.2977-3.074-.8235-6.194-1.1715-9.28-1.0903-3.085-.0812-6.206.2668-9.28 1.0903-9.372 2.5172-15.346 8.5027-19.557 16.2977-2.772 5.1383-5.777 10.7643-8.155 16.0893-4.396 9.825-11.159 26.227-14.847 36.307-1.172 3.201-2.691 10.138-3.6426 14.198-1.8095 7.714-1.0439 7.667-2.0067 15.509-.58 4.721-2.0648 12.388-1.6588 17.144.406 4.895 4.7791 13.572 9.1291 15.857 2.54 1.346 14.465 1.903 21.877 2.865 4.408-3.596 9.152-6.739 13.804-10.022 1.171-.823 2.32-1.74 3.48-2.645.313-4.5 3.932-8.201 8.816-8.305 4.697-.093 9.709 1.392 11.228 6.252 1.787 1.276 3.468 2.773 5.197 4.165 5.429 4.384 12.435 5.625 18.699 8.467.812.372 1.45.824 1.96 1.346 6.403-.603 13.166-1.16 14.999-2.134 4.349-2.297 8.723-10.962 9.129-15.857.382-4.745-1.102-12.412-1.682-17.133z" fill="#9E6844"/>
  <path d="M201.908 208.431c-1.195-.788-3.167-.835-4.373-.034-1.45-2.726-6.461-2.947-7.169.707-.684 3.55-2.03 7.389-2.146 11.008-.127 3.956 3.399 7.041 7.32 6.322 6.542-1.195 13.015-13.572 6.368-18.003z" fill="#fff"/>
  <path d="M187.451 211.093c.436 5.003-2.307 9.576-1.175 14.658.873 3.916 3.898 6.983 7.681 7.232 3.689.238 6.776-2.105 8.896-5.206 2.911-4.256 5.789-9.519 7.774-14.352 1.778-4.335-3.242-7.55-5.83-3.713-1.777 2.638-3.139 5.66-4.635 8.512-1.144 2.162-2.495 6.101-4.781 6.95-3.191 1.188-2.692-3.792-2.495-5.796.302-3.157.676-5.919.042-9.077-.665-3.294-5.779-2.637-5.477.792z" fill="#000"/>
  <path d="M180.677 229.919c7.624 3.101 17.896 5.019 26.551 3.611 4.45-.726 3.127-5.391-1.031-5.598-4.005-.199-7.905.078-11.899-.458-3.748-.501-7.332-1.365-10.892-2.324-3.795-1.011-6.196 3.361-2.729 4.769z" fill="#000"/>
  <path d="M203.896 142.515s4.964 20.091 6.6 35.692c.499 4.733.87 10.046.464 14.802-.406 4.895-3.642 8.409-7.992 10.695-3.434 1.809-7.447 1.797-11.356 1.333-7.517-.893-12.795-5.475-17.852-10.428-3.074-3.004-6.206-5.962-9.303-8.955-1.81-1.751-2.75-3.804-2.715-6.391.093-7.041.151-13.63-.023-20.659-.081-3.074 1.334-5.383 3.805-6.751 5.452-3.005 10.173-6.868 13.85-11.821 4.466-6.008 2.471-16.448-4.28-18.872-2.367-.847-4.861-1.311-7.366-1.334-4.373-.035-8.758-.07-13.131-.082-4.373.012-8.758.047-13.131.082-2.506.023-5 .487-7.366 1.334-6.751 2.424-8.746 12.852-4.28 18.872 3.677 4.953 8.41 8.816 13.85 11.821 2.471 1.368 3.886 3.677 3.805 6.751-.186 7.029-.116 13.629-.024 20.659.035 2.587-.904 4.64-2.714 6.391-3.097 2.993-6.229 5.951-9.303 8.955-5.069 4.953-10.335 9.535-17.852 10.428-3.909.464-7.923.488-11.356-1.333-4.35-2.297-7.5749-5.8-7.9925-10.695-.3944-4.756-.0348-10.069.464-14.802 1.6355-15.601 6.6005-35.692 6.6005-35.692-5.9045 11.692-17.6203 41.028-14.6275 61.165.7075 4.768 2.3895 8.955 6.7394 11.612 4.0951 3.074 14.7081 4.35 20.6711 3.178.499-.093.951-.128 1.38-.139 3.167-1.033 6.287-2.216 9.315-3.445 4.106-1.659 7.725-4.095 11.472-6.299 3.654-3.248 7.053-6.763 10.648-10.057 1.439-1.322 2.564-1.926 3.701-1.844 1.137-.082 2.262.522 3.7 1.844 4.118 3.77 7.946 7.853 12.238 11.461.441.371.777.73 1.055 1.102 5.128 3.317 10.417 6.02 16.925 7.307.753-.116 1.589-.116 2.586.07 5.963 1.172 16.576-.093 20.671-3.178 4.35-2.668 6.032-6.844 6.74-11.612 3.004-20.137-8.712-49.461-14.616-61.165z" fill="#030303"/>
  <path d="M105.412 212.735c-2.187 8.619 4.71 18.734 11.644 18.71 3.676-.011 6.673-2.25 8.293-6.414.968-2.494 1.256-5.22 1.601-7.934.353-2.773.912-5.278.27-8.016-.67-2.877-3.64-3.155-4.915-.8-1.973 3.654-.539 13.119-4.104 15.021-4.179 2.228-7.483-5.66-7.642-9.697-.139-3.677-4.234-4.443-5.147-.87z" fill="#000"/>
  <path d="M106.94 230.8c-.093-.113-.185-.226-.266-.338l-3.471 3.384c9.382 1.024 19.158-3.367 28.077-5.103 4.107-.798 3.401-6.152-1.029-5.718-4.697.46-8.92 1.727-13.293 3.046-4.546 1.371-9.116 2.239-13.755 3.341-5.0088 1.188-.37 6.525 2.985 3.844.127-.104.255-.2.382-.304.717-.573.925-1.466.37-2.152z" fill="#000"/>
</svg>
