<svg viewBox="0 0 374 749" fill="none" xmlns="http://www.w3.org/2000/svg">
  <g clip-path="url(#clip0)">
    <path d="M268.65 545.344c-1.413-2.41-4.223-2.844-6.584-1.735l-2.184 1.028c-.24.112-1.236.45-1.445.594-.176-.128-.77-.434-.915-.53-.546-.353-.963-.755-1.397-1.237-4.255-4.53-11.063 2.297-6.808 6.812 2.135 2.265 5.01 4.064 8.125 4.53 3.452.514 6.503-1.462 9.506-2.892 2.328-1.092 2.938-4.466 1.702-6.57z" fill="#9E6844"/>
    <path d="M360.191 434.961c-9.105-5.253-22.047-7.213-32.387-6.731-1.076.048-1.992.466-2.746 1.092-11.353-1.157-22.769-1.687-33.591 2.603-14.131 5.606-20.489 18.78-28.293 30.828-4.223 6.523-5.074 11.535-6.551 18.957-1.59 7.985-7.097 14.459-9.361 22.234-.595 2.04-.771 3.615-.578 4.996-.723 1.96-1.189 4.049-1.333 6.298-.161 2.586.096 5.237.803 7.727.257.932.786 1.928 1.364 2.94-.256 1.574-.337 3.181-.224 4.868.208 3.357 3.966 5.317 6.695 4.594.386.081.787.129 1.173.129 8.51 2.442 19.878-8.418 24.984-13.8 8.543-9.012 11.674-21.142 18.835-31.118 2.393-3.325 4.785-6.635 7.194-9.944.835-.161 1.686-.611 2.489-1.398 5.106-5.141 10.212-10.314 17.389-12.322 5.813-1.622 12.123-1.895 18.097-2.666 1.91-.241 4.383-.338 7-.498 4.368.337 9.586 1.269 13.28-.948 3.066-1.848 4.046-4.756 3.5-7.39 1.927-7.085-1.622-16.933-7.739-20.451z" fill="#EA5743"/>
    <path d="M283.84 436.326c-12.203 9.655-20.248 27.118-27.393 40.613-7.001 13.221-15.206 30.186-14.179 45.592.787 11.824 13.569 21.913 24.728 13.961 3.95-2.812 7.691-6.201 11.641-9.157 3.726-2.78 8.238-5.736 8.639-10.716.241-2.908-2.858-4.562-5.315-4.048-6.246 1.269-11.063 8.321-16.571 11.326-4.881 2.65-10.854 4.434-12.685-2.458-1.188-4.466 1.542-11.519 2.826-15.84 3.421-11.503 8.479-22.363 14.066-32.95 5.412-10.249 10.598-23.439 18.948-31.584 3.147-3.1-1.429-7.325-4.705-4.739z" fill="#fff"/>
    <path d="M277.353 525.118c9.201-2.297 14.708-12.354 20.007-19.439 4.32-5.783 8.559-11.631 12.83-17.43 3.613-4.9 6.92-10.892 11.32-15.134 4.978-4.787 13.086-2.522 19.284-2.425 5.652.096 11.321-.209 16.892-1.237 10.63-1.944 14.323-7.149 13.842-18.234-.98-22.78-32.371-27.488-50.082-28.933-10.502-.852-22.528-.675-31.568 5.43-7.403 5.012-15.046 11.92-17.647 20.659-1.397 4.691 5.235 7.278 7.739 3.261 4.304-6.875 11.144-14.522 18.723-17.687 8.671-3.615 20.906-1.494 29.866.128 8.382 1.51 18.995 4.001 26.125 8.852 3.42 2.33 8.157 10.587 4.721 14.844-1.927 2.41-11.385 1.976-14.372 2.057-7.37.208-15.559-1.719-22.768.385-6.985 2.04-10.855 8.354-14.885 13.896-5.765 7.92-11.529 15.824-17.262 23.761-5.282 7.293-9.842 14.442-16.924 20.113-3.5 2.811.338 8.081 4.159 7.133z" fill="#fff"/>
    <path d="M363.675 466.882c-11.127-1.655-22.239-1.639-33.27.803-4.303.948-9.586 1.88-13.359 4.257-2.73 1.719-3.661 4.097-4.657 6.764-3.966 3.952-6.824 8.9-9.377 13.928-1.542 3.037-3.115 6.025-4.769 8.965-3.083 3.871-6.23 7.647-9.072 11.293-2.008-1.413-4.898-1.381-6.632 1.462-2.553 4.241-5.267 8.322-8.109 12.338-.642.193-1.252.514-1.798.996-3.533 3.197-7.29 6.635-11.786 7.744-.353.305-.723.578-1.092.787-.915.594-1.911.899-2.987.948-1.059.241-2.135.192-3.195-.145-.546-.08-1.076-.177-1.606-.321-.61-.161-1.172-.434-1.718-.723-.176.16-.337.337-.497.53-1.927 1.269-3.003 3.663-1.365 6.153 1.365 2.104 2.729 4.193 4.094 6.297 1.413 2.169 4.384 2.699 6.519 1.751.53.241 1.124.434 1.783.498 2.633.322 5.01-.353 7.161-1.558 8.398-3.406 13.167-10.988 18.626-17.945 1.783-2.265 3.565-4.53 5.331-6.795 1.51.032 3.051-.562 4.159-2.04 4.544-6.089 8.366-12.435 11.93-19.037 3.26-4.402 6.632-8.836 9.474-13.511 1.204-1.992 2.376-3.984 3.227-6.153v-.016c4.063-3.197 7.724-3.149 13.119-2.86 3.292.177 6.054-1.574 9.313-1.574 3.87-.016 7.675 1.912 11.577 2.024 6.712.193 12.236-3.245 12.493-10.233.08-1.88-1.51-4.338-3.517-4.627z" fill="#9E6844"/>
    <path d="M324.721 438.575c-1.333-.642-2.955-.835-4.528-.675-3.179.322-5.636 2.121-8.013 4.129-2.745 2.313-5.523 4.418-8.606 6.265-5.315 3.197-.466 11.535 4.865 8.322 1.542-.932 3.035-1.928 4.496-2.972 1.172.466 2.537.466 3.95-.273 1.879-.98 3.709-2.056 5.476-3.197.385-.128.77-.289 1.172-.546.706-.466 1.397-1.012 1.991-1.607.225-.16.449-.305.658-.466 3.757-2.779 2.039-8.193-1.461-8.98z" fill="#F7CEA2"/>
    <path d="M239.282 249.121c-10.132.208-20.28.417-30.412.626-2.248.048-3.966 1.526-4.544 3.422-.209.08-.418.177-.626.257-.257-.225-.498-.498-.755-.755 3.26-6.362 7.707-11.792 13.761-15.84 6.776-4.531 14.339-7.631 20.906-12.499 4.849-3.598.594-11.583-4.865-8.321-9.313 5.558-18.931 10.458-28.903 14.699-3.356-3.55-6.856-6.94-10.517-10.169 1.156-3.647 2.746-6.956 4.801-10.025 2.392-2.442 4.576-5.092 6.696-7.743 3.805-4.771-2.12-11.085-6.808-6.812-2.971 2.699-5.524 5.655-7.692 8.852-2.296 2.169-4.833 4.032-7.787 5.157-5.877 2.233-12.75 1.35-19.14 1.269-.097-2.329-.257-4.675-.482-7.02.626-7.246-.803-15.117-2.553-21.64-1.365-5.076-10.036-4.273-9.458 1.285l1.895 18.09c.064.658.257 1.702.482 2.923-.835 5.977-3.854 10.78-11.321 11.15-6.053.305-11.159-5.077-15.527-8.531-5.025-3.968-10.051-7.936-15.077-11.904-4.239-3.342-10.052.691-7.563 5.848 1.028 2.12 2.248 4.032 3.613 5.815 1.027.386 1.943.98 2.633 1.831.787.948 1.558 1.912 2.425 2.78.096.096.69.546.931.755.257.144.578.305.626.337 1.638.9 2.971 1.655 4.464 2.876.032.016.064.048.113.08.08.016.176.032.305.048 4.399.884 6.519 5.88 5.604 9.88-1.012 4.434-5.765 6.442-9.876 5.607-1.621-.321-3.034-.996-4.351-1.864-5.042.418-10.6619-.096-15.8643-.899-4.6566-.916-9.3131-1.751-13.793-2.763-6.0374-1.318-8.6226 7.92-2.5531 9.301 5.1864 1.173 10.3889 2.346 15.5753 3.519 5.1062 1.156 11.9461 1.494 16.2661 4.498.369.257 3.468 3.614 3.741 2.699-.385 1.253-7.29 2.859-8.462 3.229-5.7645 1.751-11.5772 2.586-17.5986 2.811-6.2783.241-6.1177 9.093 0 9.639 8.6227.755 17.0686 1.044 25.0646-1.622.033 2.088-.305 4.16-.899 6.522-.53 2.104-1.654 3.984-1.686 6.249-.064 4.723 3.131 6.699 5.861 9.961 5.026 5.992 1.445 13.607-1.092 19.968-2.457 6.137-5.026 12.242-7.531 18.363-.963 2.345.049 4.145 1.719 5.06-2.505 17.881 17.983 29.929 32.949 34.604 12.299 3.856 25.161 6.201 37.91 8.049 5.572.803 11.176 1.51 16.78 2.088 3.982.418 9.425 1.8 12.781-1.365 3.131-2.956 2.601-8.209 2.714-12.129.176-6.185.08-12.354-.257-18.523-.675-12.467-1.863-25.544-6.038-37.4-3.5-9.96-10.758-27.471-1.846-36.628 1.782.675 3.629 1.173 5.443 1.414 3.003.417 6.134-1.189 6.102-4.643 0-.659-.048-1.285-.096-1.896 8.189-1.14 17.71.53 25.145-1.06 5.283-1.173 4.062-9.623-1.333-9.51z" fill="#ACDEE6"/>
    <path d="M191.705 320.225c-.434-6.153-10.068-6.202-9.634 0 .754 10.94-.016 21.88-3.115 32.435-1.751 5.96 7.546 8.514 9.297 2.57 3.307-11.326 4.271-23.278 3.452-35.005z" fill="#fff"/>
    <path d="M320.915 477.855c-.289-.113-.578-.177-.867-.225-.995-1.35-1.975-2.731-2.874-4.193-2.328-3.759-9.474-2.587-8.976 2.426.257 2.49 1.574 7.92-1.509 9.301-.98.45-6.407-1.205-8.061-1.092-2.762.193-4.592 2.056-4.817 4.819-.225 2.876-.273 5.832.466 8.563-.097 1.928.401 3.968 1.124 5.591 1.172 2.602 3.275 4.45 3.917 7.309.948 4.225-.433 7.342-3.163 9.993-.498.433-.979.851-1.397 1.237-4.72 4.209 2.072 10.587 6.808 6.811.932-.739 1.767-1.51 2.521-2.313 6.07-5.703 11.883-12.515 12.589-20.258 1.782.048 3.661-.852 4.673-2.346 2.665-3.919 4.865-8.321 5.427-12.691.225-.353.401-.739.514-1.157 1.622-5.703-.915-9.783-6.375-11.775zM54.7703 40.0985c2.3925-6.6028 4.9777-16.1615 2.2962-22.957-1.3809-3.4861-5.1222-4.6267-8.0446-2.1205-2.6815 2.2812-3.2114 5.2532-5.074 8.0646-2.1035 3.1809-5.5075 5.3497-7.9964 8.2092-4.512 5.189-5.8768 11.117-3.0829 17.4306.6904 1.5422 1.8144 2.2812 3.0348 2.4579 1.0597 1.2531 2.842 1.8636 4.5441 1.6869 1.8144 2.3937 6.0053 2.8114 8.1088-.3053.3211-.4659.6423-.9639.9473-1.4619 1.0919-.5141 2.0072-1.478 2.3925-2.956.1606-.6104.3212-1.2209.4817-1.8314.1285-.514.1606-.996.1446-1.4619.0963-.2731.1766-.5462.2729-.8193.7708-1.1888 1.4452-2.474 1.975-3.9359z" fill="#ACDEE6"/>
    <path d="M62.2372 24.5955c-.1766-4.2894-.7707-9.0286-4.1105-12.113-3.2757-3.00421-7.6111-3.00421-10.678.1606-3.3398 3.454-3.4683 9.0125-7.1774 12.0327-4.8171 3.9038 2.0392 10.6993 6.8081 6.8116 1.9429-1.5744 3.1793-3.4701 4.2391-5.7192.4656-.996.8671-2.4418 1.3969-3.7752 1.1722 5.0122-.9794 16.2417-1.5575 18.1534-1.7823 5.9602 7.5147 8.4984 9.297 2.5704 1.7502-5.8637 2.0393-12.0166 1.7823-18.1213z" fill="#fff"/>
    <path d="M43.354 66.6215c-.0482 2.2491.0964 4.4018.4496 6.4903.3533 4.9641.7065 9.9282 1.0437 14.8923.4817 6.8115-.6904 12.8839-.7547 19.5509-.0481 6.201 4.2551 10.218 3.0348 16.66-.4335 2.265-.9955 4.385-1.5415 6.474-.5138.707-.851 1.622-.8831 2.731-.0161.369-.0161.739-.0321 1.108-.4817 2.314-.8029 4.707-.7547 7.342.0161.916.2409 1.703.5941 2.346-.0321 6.169.0642 12.321.3212 18.49.1284 3.053 2.3122 4.627 4.6083 4.643.851 3.984 2.0393 7.904 2.9384 11.888-.3853.675-.5941 1.511-.4977 2.49.6101 6.153 1.4291 12.29 2.4567 18.379.3533 5.639.835 11.261 1.7502 16.932 1.8145 11.166 4.4478 22.202 5.6521 33.464.5299 4.996.5941 9.912.578 14.908-.1926.691-.2569 1.43-.1445 2.217.0482.273.1124.514.1606.787.0482 1.8.273 3.583 1.2203 5.077 1.8626 5.928 4.9135 11.342 7.8198 16.949 3.8216 7.389 5.8126 15.647 11.0954 22.234.273.337.5299.674.8028 1.012.3372 1.51.6744 3.02 1.0437 4.578.0964.418.2088.836.3212 1.253v.064c-.0803.627-.0642 1.205.016 1.752.1446 6.747 1.4131 13.334 3.372 20.065 1.6057 5.526 3.5647 10.956 5.1543 16.499.9153 3.18 2.5852 7.357 1.3649 10.667-.9474 2.538-3.9501 5.141-5.2667 7.599-9.9233 18.458-2.521 39.311 4.3996 57.32 4.0624 10.602 7.3543 21.27 9.1363 32.499 1.766 11.133 1.75 22.507 3.95 33.576 1.076 5.446 2.923 10.394 5.427 14.764-.305.369-.61.723-.915 1.076-6.824 8.29-15.4949 17.64-18.5296 28.162-3.372 11.712.5138 24.772 3.3077 36.195 3.3238 13.575 7.2739 27.31 6.6479 41.431-.61 14.106-6.1822 27.472-10.919 40.581l-15.0294 41.496c-2.4567 6.779-4.7208 13.671-7.3862 20.37-2.3925 5.992-6.8403 9.511-9.9714 14.844-2.0553 3.518-2.232 7.374-.8992 10.507 11.1596-1.398 22.3674-6.121 31.5038-12.499 13.6644-9.542 24.8244-22.571 35.4534-35.295 7.836-9.398 17.519-22.523 29.786-26.234 13.729-4.145 20.264 8.788 20.634 20.467.208 6.779-.916 13.575-1.478 20.322-.449 5.334-1.638 12.82 1.028 17.8 6.744 12.627 14.965-8.578 16.458-13.462 3.934-12.916 5.058-26.138 6.006-39.52.867-12.161 1.605-24.339 3.388-36.42 1.509-10.217 3.34-20.386 10.308-28.403 6.969-8.032 16.635-14.249 24.519-21.382 5.829-5.269 11.529-10.667 17.165-16.129-5.058-23.648-7.932-47.023-7.145-71.008.658-1.044 1.172-2.217 1.557-3.582 1.815-6.378 3.019-12.178 5.974-18.25 3.902-8.049 9.618-15.953 11.85-24.676 2.537-9.896-6.744-15.455-13.135-21.286-3.757-3.422-7.9-6.732-11.111-10.684-4.609-5.654-4.577-11.631-5.347-18.555-.948-8.418-3.196-17.013-8.446-23.84-2.361-3.069-5.235-5.687-8.671-7.503-2.055-1.076-3.42-1.14-4.962-3.116-1.156-1.494-1.22-4-2.521-5.639-5.17-6.571-18.722-10.282-26.686-10.233-5.476.032-8.366 2.859-13.087 4.482-6.647 2.297-15.688-4.129-21.372-7.294-11.432-6.394-21.853-14.217-31.359-23.214-1.156-1.092-2.473-1.462-3.709-1.317-3.163-11.037-8.671-21.061-18.6585-28.692-.1445-.113-.289-.209-.4335-.289.3532-6.089.3853-12.194.0802-18.331.3854-1.719.1767-3.679-.8349-5.671-1.7342-3.421-6.8564-2.779-8.4781.161-.0482-1.221-.1606-2.41-.5139-3.197-.5619-1.253-1.2524-2.458-2.1516-3.502-1.6378-1.928-3.5647-3.101-5.1222-4.563 3.1472-7.004 1.1722-14.812-1.413-21.752-.4335-1.156-.835-2.313-1.2525-3.47-.2729-2.393-.6262-4.755-1.0437-7.116-.7867-4.434-1.8465-8.804-3.0026-13.158-.562-14.008-7.1133-26.796-9.1204-40.837-.9474-12.161-1.0758-24.323-.4175-36.5 1.1882-3.1 2.1035-6.281 2.4246-9.671.9474-9.816-3.6449-17.511-10.3407-24.274-.0321-.032-.0803-.064-.1124-.097-.5138-1.237-.9152-2.538-.9955-4-.1606-2.538 1.0597-5.398 1.2685-8.0002.3051-3.8235-.2409-7.7433-.5138-11.5507-.0803-1.0925-.1606-2.1688-.2248-3.2612.7707-.4981 1.3809-1.1888 1.7181-2.0403 5.3469 1.5904 12.2836-.3695 17.5021-.8836 6.0374-.7229 6.2301-10.2495 0-9.639-.5941.0643-1.2043.1285-1.7984.1767-.3693-.5462-.851-1.0281-1.5093-1.3816-2.1035-1.0924-1.4291-3.7431-2.4728-5.4621-.851-1.3976-2.3765-2.2491-3.7895-2.9399-5.2667-2.6025-11.5771-3.3576-17.3576-4.0002-4.7529-.498-5.7805 5.1408-3.1793 8.0486z" fill="#ACDEE6"/>
    <path d="M256.286 436.567c-2.826-4.257-9.024-1.671-9.12 2.265-5.524-6.924-10.196-14.378-12.508-22.957-2.008-7.422-2.088-15.454-4.577-22.7-2.537-7.373-8.703-11.84-12.99-18.089-3.484-5.076-11.834-.273-8.317 4.868 5.058 7.374 11.689 12.081 13.327 21.366 1.477 8.37 2.617 16.692 5.732 24.644 6.118 15.583 19.975 27.889 30.814 40.259 2.312 2.651 7.354 1.334 8.044-2.12 2.216-10.796-4.72-19.021-10.405-27.536z" fill="#fff"/>
    <path d="M63.9546 398.493c-.7707-4.675-.3532-9.751-1.1561-14.426-1.0437-6.121-2.6173-12.049-3.0508-18.218.2408-.771.3051-1.639.0803-2.603-.1285-.514-.2409-1.044-.3693-1.558-1.2685-5.317-9.4897-4.129-9.4576 1.285.0481 7.165 1.686 13.864 2.9705 20.869 1.2364 6.683.3212 13.88 2.4086 20.338 1.0276 3.181 4.1909 4.209 7.0811 2.876.4817-.225.9474-.434 1.4291-.659 3.7734-1.719 2.81-6.024.0642-7.904zM37.3484 89.7235c-.6102-2.1688-2.3443-3.229-4.3354-3.3897-.1927-1.0603-.5138-2.1045-1.0437-3.0684-1.124-2.0724-3.0187-3.6146-4.8813-4.9802-4.6405-3.3576-9.6503-5.4782-15.3987-4.2733-2.0232.4177-3.56467 2.6347-3.53256 4.6428.04817 3.8074 1.95896 6.7955 5.26666 8.7073 1.9429 1.1085 8.9599 3.2772 8.5905 6.442-.3211 2.8114 1.5255 4.3215 3.6771 4.5464-.1285.3213-.2409.6105-.289.8515-1.2525 6.0561 8.0285 8.6431 9.297 2.5701.9152-4.4979 4.0464-7.0523 2.6494-12.0485zM71.2447 539.817c-1.429.016-3.099-.048-4.1427-.466.1445-.321.273-.658.3372-1.044.851-4.948 1.2204-10.378 2.5852-15.262 3.5807-3.695-.9313-10.699-5.7966-7.55-.4014.257-.7386.53-1.0597.787l-.0643-.289c-1.14-5.237-9.859-4.177-9.4576 1.285.4336 5.783.835 11.583 1.2846 17.366.3051 3.84.4978 7.31 3.1151 10.362 3.8055 4.418 14.1462 6.442 18.7064 2.458 4.2712-3.743-1.0116-9.687-5.5076-7.647z" fill="#16A998"/>
    <path d="M71.3095 688.852c8.2212-15.727 17.6467-33.768 33.7195-41.11 4.56-2.088 10.405-.643 11.786 4.803 1.606 6.298 1.317 12.692 1.847 19.118.465 5.735 1.316 9.928 8.076 9.446 12.525-.916 20.505-16.804 25.483-26.507 6.872-13.398 15.559-27.809 26.799-38.829.289-4.386.755-8.756 1.509-13.109 3.404-19.6 9.233-38.91 3.822-58.734-1.461-5.382-9.185-4.065-9.458 1.285-.241 4.595-.208 10.458-3.821 13.816-6.295 5.815-8.671-1.799-8.96-6.506-.546-9.077.915-18.62 1.734-27.648 1.831-19.969 4.689-39.793 8.446-59.489.947-5.012-6.23-8.932-8.799-3.711-7.097 14.346-14.195 28.708-21.308 43.054-3.019 6.105-5.812 12.402-9.168 18.33-1.606 2.844-3.629 6.764-6.664 8.322-1.959 1.012-11.673 1.43-8.51-3.904 2.103-3.534-.562-6.603-3.79-6.972 21.019-45.657 46.1-89.29 74.987-130.432 2.729-3.888-2.698-9.318-6.584-6.587-17.149 12.033-35.036 22.861-53.598 32.484 1.268-3.551 3.083-6.86 5.443-10.089 1.799-2.474-.064-6.442-2.874-7.085-5.941-1.349-10.919-.948-13.167-7.165-2.039-5.639-3.179-11.599-3.95-17.527-1.381-10.587-1.573-21.302-3.5-31.825-2.874-15.711-9.988-31.76-24.3908-39.68-.0321-3.808.6262-7.31 2.3122-11.021 1.0919-2.377.6904-5.173-1.7342-6.587-5.5718-3.261-8.3014-8.369-8.1088-14.828.1285-4.241-5.3309-6.281-8.2212-3.405-4.3514 4.321-6.487-10.764-6.6797-11.888-.8831-5.189-1.7341-10.395-2.5851-15.584-1.7021-10.41-3.372-20.836-4.9135-31.262-3.2596-21.977-5.9572-44.034-7.4505-66.204-1.3969-20.933-1.702-41.9619-.3211-62.8947.562-8.4502 2.9706-32.0497-12.8777-27.6479-.8189.2249-1.4612.5944-1.959 1.0603-.5138-.0803-1.0597-.1125-1.6378-.0321-10.2765 1.494-22.25501 5.1729-23.73226 17.1896-.54594 4.45.65834 8.9482 4.14276 11.9684 4.7689 4.1287 11.85 2.9881 13.8732 10.2174 1.8305 6.5384-.9152 13.591-1.5736 20.146-.7225 7.181.0964 14.346 1.5094 21.382 2.0232 10.201 4.8653 20.29 7.7555 30.347.0482 6.185 1.67 12.017 5.1543 17.623.2248.37.4978.675.7868.948 1.8466 19.423-1.5415 39.424-.2569 59.007.4335 6.683 1.3327 13.414 3.1311 19.888 2.0714 7.439 4.8653 13.495 2.9385 21.415-3.5165 14.378-9.1204 28.275-12.9259 42.573-2.5852 9.735-3.2596 22.346 6.8563 28.242 6.2944 3.679 11.4647 1.558 13.6645 10.137 2.1035 8.225 2.6334 17.141 3.2114 25.591.4817 7.23.6423 14.491.4657 21.753-.1606 6.907-2.1517 15.085 0 21.8 1.6378 5.076 6.1177 8.45 8.8313 12.868 4.0304 6.538 5.0901 13.832 4.2551 21.35-.1284 1.205.1446 2.153.6584 2.876-3.3399 7.133-6.8885 14.218-8.719 21.511-2.6654 10.651-3.5967 21.495-3.0348 32.323-.4817 4.225.0803 8.225 1.2686 12.274.2248 1.413.4335 2.827.7065 4.241.2569 1.333.9152 2.233 1.7662 2.795 3.3078 9.077 4.769 17.254 3.7734 27.214-1.5896 15.84-3.1311 31.536-3.6128 47.376 4.1588.835 7.6913 4.482 6.0856 9.687-1.6699 5.414-3.7092 10.716-5.9411 15.921.1927 4.659.5138 9.317 1.0598 13.928 1.0758 9.013 4.1427 17.206 6.1338 25.977.4496 1.976.7065 3.984.8349 5.976z" fill="#16A998"/>
    <path d="M180.144 366.025c-9.924 2.603-17.31 9.013-24.744 15.776-9.313 8.467-18.61 16.949-27.923 25.431-4.593 4.193 2.232 10.989 6.808 6.812 7.82-7.117 15.639-14.25 23.459-21.367 7.531-6.859 14.789-14.699 24.953-17.366 6.005-1.558 3.452-10.86-2.553-9.286z" fill="#fff"/>
    <path d="M189.473 360.098c-3.372.176-6.182 1.349-9.088 3.02-2.457 1.398-5.122 2.169-7.579 3.502-3.115 1.703-2.842 5.157-1.028 7.245.097.466.241.916.482 1.318 1.413 2.426 4.223 2.827 6.583 1.735 5.042-2.33 9.891-4.804 14.034-8.579 3.019-2.763.723-8.466-3.404-8.241z" fill="#fff"/>
    <path d="M24.7596 85.0323c-2.6976-.5783-15.8483-1.9278-16.84384-4.7874-.61016 1.5102-1.23639 3.0203-1.84655 4.5304 4.88129-3.5986 14.70819-3.2452 20.47269-3.7432 6.7921-.5783 13.5842-.996 20.3924-1.2049 5.9893-.1927 12.1231-.5622 18.0963-.1124 2.1034.257 4.2069.5141 6.3104.739-1.4773.1767-2.9545.3374-4.4478.5141-3.1472.3695-6.1498.7711-9.2167 1.5583-5.0098 1.2852-2.8742 9.0285 2.1355 7.7433 5.347-1.3655 19.6538.2571 20.7457-7.6309.9474-6.8758-7.7876-10.1852-13.1507-10.7796-11.7858-1.3173-24.3906-.0964-36.1764.7711-8.2534.6105-22.23902.0643-29.22382 5.2051C.625877 78.8473-.449943 80.5823.160223 82.3655 3.00232 90.6069 15.4786 91.2495 22.6079 92.7596c5.058 1.0924 7.2096-6.6509 2.1517-7.7273z" fill="#000"/>
    <path d="M8.10836 83.0561c1.20427-6.7152 5.68414-13.4465 8.71894-19.503 2.3122-4.6106-4.6244-8.6751-6.93661-4.0484C6.53477 66.2039 1.70161 73.4813.352819 80.9355c-.899193 5.0283 6.840291 7.1971 7.755541 2.1206zM80.1411 77.5139c-3.3238-6.0405-7.6271-11.2295-10.0838-17.7519-1.6539-4.3857-7.3381-3.4379-7.884 1.0603-.1124.98.1445 1.9118.7226 2.699 3.0508 4.0965 10.0195.0963 6.9366-4.0484.1284.4498.2408.8996.3693 1.3494-2.6334.3535-5.2506.7069-7.884 1.0603 2.7136 7.2132 7.2257 12.9966 10.9027 19.6797 2.4888 4.5303 9.4255.4819 6.9206-4.0484z" fill="#000"/>
    <path d="M67.9537 57.24c-4.0624-3.0684-10.6619-3.8717-15.5914-4.8356-6.3746-1.2691-12.8777-1.976-19.3647-2.0563-7.868-.1125-20.6333-.8675-22.3996 9.3338-.86703 5.0604 6.8564 7.2292 7.7395 2.1366 1.5254-8.8197 40.3192-1.5583 45.5538 2.3776 4.1427 3.0845 8.1569-3.8877 4.0624-6.9561z" fill="#000"/>
    <path d="M37.6375 48.5487c-7.2899-2.201-4.0624-14.4425-.7708-18.282 2.7618-3.2291 6.7922-5.2051 9.9875-7.9522 5.6681-4.8517 7.6432-11.101 7.7234-18.3945-2.4888.67474-4.9937 1.34947-7.4825 2.0242 4.8492 7.647 10.0838 12.8842 9.7947 22.3786-.1445 4.4821-1.3809 9.0607-2.8099 13.2858-2.5049 7.3417-7.2899 10.2655-14.8207 7.5505-4.8652-1.7511-6.9687 6.0083-2.1355 7.7434 13.9053 4.9801 21.9017-3.213 25.5948-15.9847 1.9429-6.7313 2.9866-13.9445 1.5576-20.8846-1.4291-6.924-6.5192-12.30578-10.2283-18.15345-2.1196-3.3094-7.4344-2.024198-7.4826 2.04025-.1124 9.3338-5.3631 12.2898-11.9143 17.5751-4.0143 3.2291-7.033 7.1169-8.4139 12.1291-2.3283 8.4663-.0482 19.8564 9.281 22.6678 4.9455 1.494 7.065-6.2654 2.1195-7.7433zM48.5078 115.331c2.5691-12.354-12.2515-13.816-21.0829-14.748-4.9295-.514-7.8037 1.045-9.5539 5.8-1.6378 4.466-.835 8.675 3.1953 11.39 4.2872 2.908 8.3176-4.048 4.0464-6.94-1.0598-.707 1.5896-2.763.6744-2.41.8028-.321 4.7047.562 5.3951.675 1.6057.241 10.1802 1.108 9.57 4.08-1.0437 5.061 6.6958 7.23 7.7556 2.153z" fill="#000"/>
    <path d="M50.5799 131.54c2.0072-3.775 3.5808-8.755.2409-12.37-3.1632-3.421-10.8064-4.45-15.0936-5.301-4.3675-.851-11.0793-2.699-14.7725.803-3.4683 3.294-3.3398 9.463-1.5414 13.415 2.1356 4.691 9.0722.626 6.9366-4.049-2.5209-5.51 7.7074-2.361 9.9232-1.831 2.0714.498 4.0785 1.156 6.1178 1.799 2.6654.819 2.6173.916 1.2524 3.47-2.4246 4.579 4.512 8.643 6.9366 4.064z" fill="#000"/>
    <path d="M47.8344 140.891c2.9866-5.27-.0963-9.077-5.0098-11.23-4.8331-2.121-11.6413-5.607-17.0525-4.016-4.9135 1.446-6.9527 6.586-4.8814 11.133 1.6539 3.631 5.0098 7.583 7.5629 10.667 3.3077 3.984 8.9598-1.735 5.6842-5.687-.9153-1.092-1.6539-2.362-2.4568-3.534-.6743-.98-2.7296-2.844-2.9544-3.968-.2409-1.286 1.413-.611 2.6173-.354 1.2042.257 2.3924.771 3.5325 1.189 1.1722.418 2.3443.852 3.4844 1.333.5941.257 1.1882.515 1.7823.772.851.723 1.1079.594.7707-.354-2.5691 4.498 4.3675 8.563 6.9206 4.049z" fill="#000"/>
    <path d="M27.4097 143.766c-.3051 8.45.851 16.451 2.9385 24.628 1.2845 5.012 9.024 2.875 7.7394-2.137-1.9268-7.518-2.9384-14.715-2.6494-22.491.1927-5.157-7.8358-5.157-8.0285 0z" fill="#000"/>
    <path d="M43.3534 134.802c-2.6012 1.847-5.2828 4.321-8.4299 5.109-5.0098 1.253-2.8903 9.012 2.1356 7.743 3.9339-.996 7.1132-3.599 10.3567-5.912 1.7663-1.253 2.6013-3.502 1.4452-5.494-1.0277-1.751-3.7253-2.715-5.5076-1.446z" fill="#000"/>
    <path d="M30.845 169.277c.4496 5.414 1.5736 11.455 7.0169 14.041 4.3194 2.056 9.3934.434 12.4603-2.988 4.4638-4.964 4.9295-13.366 5.7966-19.664 1.2685-9.092.6904-18.266 2.1195-27.358.8029-5.061-6.9366-7.23-7.7395-2.137-1.14 7.213-1.3488 14.314-1.6699 21.591-.1927 4.242-.8189 8.435-1.6057 12.595-.2569 1.334-.273 4.145-1.0598 5.254-.016 1.847-1.2203 2.313-3.6128 1.429-3.1311 1.366-4.3515.45-3.6771-2.779-.4174-5.092-8.462-5.141-8.0285.016z" fill="#000"/>
    <path d="M53.9511 99.0732c-6.6476-2.0403-10.5494 4.7548-10.5173 10.6028.0642 7.695 5.7002 14.812 9.4255 21.126 2.6172 4.45 9.5699.417 6.9366-4.049-1.8466-3.132-3.7734-6.249-5.5557-9.43-.9474-1.687-1.9429-3.39-2.4246-5.301-.2891-1.125-.3051-5.302-.0161-5.222 4.9616 1.543 7.0811-6.201 2.1516-7.7268z" fill="#000"/>
    <path d="M52.7795 107.218c4.4157 5.59 7.9161 12.434 10.2283 19.181 2.8903 8.402-.3211 16.339-2.537 24.484-1.3649 4.996 6.3907 7.132 7.7395 2.136 2.6173-9.639 5.925-18.86 2.537-28.74-2.81-8.177-6.9527-15.953-12.2836-22.716-3.2114-4.0806-8.8474 1.639-5.6842 5.655zM25.9163 82.6062c-3.7734 1.462-5.5396 5.3336-6.7921 8.9965-1.2524 3.727-1.1561 7.904 1.108 11.2133 2.9063 4.241 9.859.225 6.9366-4.0483-1.0277-1.4941-.9955-2.8435-.4496-4.5786.289-.8835.6744-1.6868 1.0919-2.5061.2087-.4177.4335-.8354.6744-1.2531.6101-.8354.4656-.8675-.4336-.0642 4.7529-1.8797 2.6815-9.6391-2.1356-7.7595z" fill="#000"/>
    <path d="M52.8916 88.6309c1.4773 1.1888 2.248 5.6709.4015 6.908-4.2873 2.8435-.273 9.8161 4.0463 6.9401 3.1633-2.105 5.0419-5.4461 5.0259-9.2856 0-3.1649-1.2204-8.145-3.8055-10.2335-1.7021-1.3655-4.0143-1.6386-5.6842 0-1.397 1.3816-1.67 4.3055.016 5.671z" fill="#000"/>
    <path d="M28.6775 90.9761c4.4157-.8193 8.8635-1.4619 13.3434-1.8314 2.0714-.1767 4.1427-.2892 6.2301-.3535.8832-.0321 4.3676-.5301 4.6084-.3855-.6102-1.5101-1.2364-3.0203-1.8465-4.5304-.0161.0804-.0322.1607-.0482.241-1.0437 5.0444 6.6958 7.1971 7.7395 2.1367.016-.0804.0321-.1607.0481-.241.3533-1.735-.2248-3.6307-1.8465-4.5304-3.5807-2.0241-9.9554-.7229-13.8572-.4337-5.5397.4016-11.0473 1.1727-16.5227 2.2009-5.0419.9318-2.9063 8.6751 2.1516 7.7273zM60.5991 150.641c-.5941 22.186 3.372 43.232 8.3175 64.743 2.4247 10.49 5.4755 20.804 7.9483 31.246 1.3006 5.51-.4014 10.635.3372 16.145.6262 4.563 2.7618 8.724 4.8331 12.772 2.3444 4.611 9.281.546 6.9367-4.048-3.083-6.057-3.8858-10.475-3.5005-17.158.2248-3.871-.1445-7.293-1.1721-11.036-2.7458-9.993-5.2988-19.953-7.6271-30.074-4.8011-20.804-8.6226-41.143-8.0446-62.606.1285-5.156-7.9-5.156-8.0285.016zM34.988 177.743c-.6262 12.274-1.2685 24.548-1.8626 36.805-.5139 10.539-.8189 21.046 1.9268 31.343 2.7618 10.378 8.0446 19.969 10.3086 30.508 2.4407 11.358 2.1838 23.631 2.9545 35.198.3372 5.125 8.3818 5.173 8.0285 0-.7065-10.667-.9152-21.527-2.3604-32.13-1.4612-10.683-6.1338-20.242-9.5539-30.347-7.5147-22.202-2.5691-48.388-1.413-71.361.2569-5.172-7.7716-5.156-8.0285-.016z" fill="#000"/>
    <path d="M54.016 269.427c1.6057 2.923 3.4202 5.703 5.4594 8.337 1.3167 1.719 3.4523 2.635 5.4915 1.446 1.686-.98 2.7779-3.759 1.4451-5.494-2.0392-2.635-3.8537-5.414-5.4594-8.338-2.4888-4.546-9.4254-.498-6.9366 4.049zM52.3621 314.65c5.1704 0 5.1704-8.033 0-8.033-5.1703 0-5.1703 8.033 0 8.033z" fill="#000"/>
    <path d="M48.0423 310.617c-.4817 7.085 1.5415 14.122 5.8287 19.793 3.083 4.08 10.0517.08 6.9367-4.049-3.5486-4.691-5.1383-9.864-4.7368-15.744.3532-5.156-7.6753-5.14-8.0286 0z" fill="#000"/>
    <path d="M83.8341 271.563c-1.4452 14.33-4.9938 29.335-11.8822 42.091-3.1151 5.767-7.595 10.201-12.2194 14.779-1.9108 1.88-3.8216 3.776-5.7645 5.607-2.1516 2.024-5.363 6.908-7.7716 3.872-3.1953-4.049-8.8474 1.671-5.6842 5.687 3.8858 4.9 8.3015 5.237 13.1668 1.526 7.3059-5.575 14.5958-12.997 20.3763-20.129 11.6414-14.379 15.9928-35.472 17.8073-53.417.5138-5.157-7.5147-5.124-8.0285-.016zM47.9142 356.772c-3.0026 3.502-3.7573 7.149-2.6975 11.712 1.2042 5.124 5.5396 9.847 5.9089 14.956.4175 5.575-3.6128 10.442-3.1471 16.258.3372 4.193 1.8786 7.824 5.7323 9.687 4.6244 2.249 8.7029-4.675 4.0464-6.94-4.5923-2.233 1.8947-16.113 1.2685-21.045-.6583-5.141-9.3773-14.346-5.4433-18.957 3.3398-3.904-2.3122-9.623-5.6682-5.671z" fill="#000"/>
    <path d="M86.9003 271.354c2.7136 2.442 3.7092 6.362 5.2025 9.639 3.1792 7.005 3.8536 10.378 2.264 18.186-1.5415 7.566-4.0143 15.76-3.7573 23.551.0321.948 1.4772 1.221 1.702.225.8189-3.566 1.0598-7.245 2.0232-10.763 1.2203-4.499 3.7734-8.081 5.6039-12.226 1.8624-4.241 3.1154-8.755 2.0714-13.382-1.236-5.494-6.6798-21.511-14.1302-18.909-1.4773.514-2.2962 2.506-.9795 3.679zM46.8227 283.869c-9.7145 8.081-13.6966 19.021-16.5066 31.086-3.0348 13.045-4.1427 24.274.1445 37.158 3.3078 9.929 11.4005 9.174 20.3282 7.439 5.3952-1.045 10.9509-2.282 16.0088-4.499 5.9251-2.586 10.0839-7.775 14.1784-12.611 2.1356-2.538-1.0598-5.622-3.5968-3.598-7.6913 6.169-13.0383 11.454-22.8973 13.944-1.7341.434-3.4844.852-5.2506 1.157-4.5602.771-5.9411 1.333-9.2167-2.217-3.2114-3.454-3.4362-6.78-4.4478-11.406-1.959-8.932.1605-19.037 1.9589-27.873 1.8947-9.302 5.7163-18.716 11.7377-26.154 1.397-1.719-.7065-3.872-2.4407-2.426zM99.4086 337.494c-3.4844 11.84-9.8751 23.648-15.3024 34.733-6.0856 12.434-13.9053 21.559-23.2505 31.616-6.3586 6.843-13.0865 15.502-13.2792 25.302-.2248 11.326 11.1918 14.587 15.9928 23.471 2.537 4.691 9.5218.546 7.1133-4.161-2.1838-4.289-4.9295-7.39-8.6708-10.378-6.5673-5.269-7.6111-9.928-3.8858-17.511 4.7207-9.623 13.3755-17.189 19.6698-25.784 12.1552-16.643 19.3808-36.676 24.4392-56.501.465-1.831-2.2966-2.602-2.8264-.787z" fill="#000"/>
    <path d="M83.6893 400.775c-1.9911 12.048-8.0927 22.426-11.4486 34.041-1.5897 5.527-1.4933 11.905-3.8537 17.142-2.1035 4.675-3.7574 7.791-4.4639 13.141-.6422 4.964 7.4184 5.093 7.9001 0 .4496-4.787 2.4406-8.852 3.1953-13.511.9795-6.056.8992-12.145 2.2962-18.201 2.4728-10.764 6.0053-21.286 7.7555-32.211.1766-.931-1.2364-1.333-1.3809-.401z" fill="#000"/>
    <path d="M175.455 367.664c-7.466 2.876-15.254 5.334-21.42 10.668-6.792 5.879-12.043 13.334-18.931 19.213-16.105 13.784-31.086 28.387-45.4254 44.018-6.9848 7.599-13.809 15.343-20.6333 23.086-5.2988 6.024-10.5816 11.872-12.9741 19.696-5.2988 17.366-7.627 39.664-4.1908 57.48.8028 4.145 7.8037 3.262 7.4344-1.012-1.5576-17.575-.8029-37.367 4.4799-54.348 2.6654-8.595 9.8911-15.213 15.6716-21.832 6.1499-7.037 12.3318-14.041 18.6101-20.949 11.8986-13.125 24.5356-25.351 37.1876-37.721 6.182-6.04 11.289-12.643 16.571-19.422 6.391-8.193 14.644-13.125 24.134-17.077 1.076-.45.626-2.249-.514-1.8z" fill="#000"/>
    <path d="M53.1971 537.761c-.7226 4.337-1.6057 8.289 1.8144 11.824 3.1311 3.229 7.8519 4.659 12.2515 4.675 4.9135.016 4.9135-7.583 0-7.647-2.264-.032-4.9134-.579-6.7118-2.073-1.6057-1.333-2.4888-4.128-2.6173-6.153-.1606-2.522-4.2551-3.47-4.7368-.626zM167.154 407.458c-13.135 17.607-26.751 35.375-44.093 49.046-7.53 5.944-15.944 11.31-23.025 17.8-6.1983 5.687-14.5319 10.41-19.6541 17.222-1.124 1.494 1.0437 3.486 2.5209 2.522 7.868-5.076 14.7886-11.631 22.6562-16.788 8.238-5.382 16.362-11.278 23.765-17.784 16.265-14.266 27.457-33.367 39.837-50.846.883-1.221-1.124-2.345-2.007-1.172zM138.701 465.067c-19.493 39.568-39.1633 78.831-57.0347 119.202-13.8251 31.247-34.2336 71.554-9.3934 103.298 1.6699 2.137 5.4915-.176 4.5602-2.65-6.487-17.302-11.5771-33.223-7.1935-51.906 4.5762-19.568 14.644-38.508 22.544-56.903 15.7684-36.676 31.4554-73.722 48.8134-109.676.755-1.558-1.542-2.907-2.296-1.365z" fill="#000"/>
    <path d="M86.274 502.53c-6.182 11.663-13.7609 22.941-18.7546 35.183-4.3194 10.587-1.9108 21.944-5.4915 32.58-3.5326 10.538-4.2391 21.382-5.4112 32.371-.6423 5.944-2.1677 18.073 7.338 17.125 3.083-.305 4.496-4.209 1.6218-5.992-4.8492-3.037-.0161-24.532.7386-29.576 1.1722-7.904 4.9777-15.101 5.1864-23.166.1124-4.225-.7547-8.418-.7868-12.627-.0481-5.703 2.1998-10.683 4.512-15.792 4.3836-9.639 8.6548-19.326 13.1508-28.901.6262-1.381-1.3649-2.602-2.1035-1.205z" fill="#000"/>
    <path d="M62.2688 618.696c.289.081.3372.081.1445-.016-.289-.289-.5941-.594-.8832-.883.1606.273.3694.546.5942.787.1445.161.1124.112-.1124-.161.1605.209.3211.418.4817.627.2729.305.6422.578.9473.851.2891.257.1124.145-.016-.096.1124.193.2248.369.3211.562.2409.434.273.257.0321-.048.1606.193.1927 1.076.0964.016.2248 2.394 2.248 4.305 4.7368 3.615 2.4246-.675 3.2917-3.358 2.2319-5.511-1.3809-2.827-5.1543-5.992-8.4139-4.048.4175-.112.835-.225 1.2525-.337-.2569.016-.5138.016-.7708.016-1.1561.032-2.1676.867-2.3122 2.04-.1445 1.092.5139 2.345 1.67 2.586zM177.542 414.622c-8.028 34.99-15.928 69.963-25.177 104.664-9.12 34.218-21.227 67.441-28.244 102.254-.771 3.823 4.415 5.173 5.764 1.59 6.198-16.306 9.153-33.897 13.584-50.749 4.673-17.768 11.16-34.974 15.431-52.854 4.095-17.174 7.916-34.427 11.914-51.633 4.063-17.447 8.238-35.006 9.603-52.902.128-1.639-2.521-1.976-2.875-.37zM186.245 434.302c-4.624 51.296-8.494 102.559-10.469 154.032-.979 25.43-1.622 50.894-1.943 76.341-.16 12.723-.257 25.447-.273 38.186-.016 12.226-1.188 25.303.835 37.367.466 2.78 5.251 2.828 5.668 0 1.654-11.647.402-24.033.37-35.776-.033-12.724.016-25.464.128-38.187.241-25.977.819-51.97 1.67-77.931 1.686-51.36 4.03-102.801 8.012-154.032.193-2.57-3.773-2.538-3.998 0zM198.946 382.573c6.519 20.997 13.376 41.865 16.683 63.65 3.244 21.43 5.62 42.668 15.72 62.219 1.205 2.33 4.721.691 4.127-1.735-2.617-10.827-6.583-21.254-8.992-32.146-2.296-10.394-3.372-21.013-5.09-31.503-3.517-21.286-10.935-41.528-18.899-61.481-.851-2.137-4.271-1.334-3.549.996z" fill="#000"/>
    <path d="M207.152 428.358c1.541 44.002 4.335 87.876 12.845 131.155 8.671 44.147 22.368 87.394 26.157 132.408.45 5.317 8.815 5.366 8.35 0-3.709-43.761-16.651-85.675-26.446-128.279-10.164-44.163-15.72-90.061-18.257-135.284-.112-1.687-2.714-1.703-2.649 0zM70.7314 730.397c-.6744-4.884-2.1517-8.466-1.3488-13.687.562-3.647 1.6539-7.278 2.5049-10.86 1.6217-6.796 3.372-12.017 7.1454-17.881.8349-1.285-.2409-3.39-1.8466-3.229-9.0562.9-9.9232 13.768-11.818 20.676-1.975 7.229-7.2256 23.069 2.3444 27.294 1.7502.771 3.2756-.482 3.0187-2.313zM179.566 361.287c5.283-.081 9.795 1.638 14.708 3.229 2.024.658 6.022 1.092 7.836 2.072 1.959 1.06 1.413.209 2.248 3.004.594 2.024.289 3.615 1.879 5.269 2.954 3.101 8.093 4.981 11.449 7.808 7.659 6.394 13.921 12.402 15.671 22.604 1.237 7.261.899 16.691 7.001 21.816 1.493 1.253 4.689.61 4.4-1.832-.627-5.43-2.329-10.715-3.083-16.177-.594-4.338-1.06-8.723-2.537-12.884-3.308-9.302-12.155-16.306-19.799-22.041-1.332-1.013-7.113-3.583-7.611-4.82.113.273.45-3.856.53-3.374-.369-2.634-2.055-4.369-4.431-5.446-4.031-1.815-10.02-2.249-14.371-3.293-5.074-1.221-9.362-1.735-14.516-.578-2.601.594-2.007 4.675.626 4.643z" fill="#000"/>
    <path d="M238.623 421.852c1.493 7.325 5.106 13.43 9.233 19.631 1.365 2.041 3.693 3.278 5.572 4.643 2.039 1.478 3.532 2.747 6.214 2.474 1.381-.128 2.424-2.281.802-2.988-2.44-1.06-4.303-2.281-6.422-3.872-.851-.642-1.654-1.028-2.104-1.895-.465-.916-.321-2.442-.642-3.486-1.879-5.8-5.861-10.893-8.767-16.162-1.221-2.185-4.352-.626-3.886 1.655zM249.992 498.723c9.955-15.503 15.977-33.255 26.59-48.308 5.604-7.952 12.942-15.358 22.416-18.41 8.831-2.844 19.541-2.266 28.726-1.848 10.18.466 19.622 2.603 28.196 8.306 5.797 3.855 8.831 6.619 9.554 13.687.225 2.265.835 5.237-.193 7.406-1.365 2.924-5.315 2.506-8.494 2.795-4.994.466-10.036.547-15.029.193-4.817-.353-9.811-1.751-14.66-1.221-5.668.627-10.02 3.727-11.433 9.35-1.172 4.611 5.941 6.571 7.113 1.96 1.799-7.085 17.23-2.731 21.982-2.522 6.022.273 12.043-.096 18-.948 10.116-1.446 11.144-5.912 10.309-15.599-.819-9.495-3.34-14.33-11.079-19.856-8.832-6.282-18.241-9.463-29.015-10.378-19.638-1.671-39.902-.611-54.289 14.313-15.929 16.515-21.549 39.424-31.327 59.521-.868 1.768 1.557 3.229 2.633 1.559z" fill="#000"/>
    <path d="M316.419 483.927c-1.975-4.064-5.892-9.639-5.684-14.378-.562.996-1.14 1.976-1.702 2.972 1.75-.9 8.816 4.145 10.261 5.173 3.998 2.843 9.297 6.378 7.322 12.049-2.088 6.024-8.912 11.406-12.541 16.755-2.135 3.133 2.409 6.121 4.994 3.856 5.507-4.852 14.837-14.201 15.72-21.929.915-7.92-7.098-13.928-13.007-17.639-3.564-2.233-13.423-8.498-17.213-3.326-3.821 5.222 4.384 16.13 7.74 19.616 2.168 2.217 5.347-.595 4.11-3.149z" fill="#000"/>
    <path d="M292.799 488.088c3.019-1.542 5.058-3.695 8.832-3.374 2.681.241 6.149 1.687 8.494 2.844 3.388 1.687 4.56 3.695 4.785 7.518.225 3.824-1.188 8.161-2.698 11.631-1.686 3.872 3.998 7.246 5.717 3.342 3.998-9.109 6.936-22.218-3.886-27.552-7.194-3.55-21.436-7.968-24.327 3.213-.481 1.848 1.462 3.213 3.083 2.378z" fill="#000"/>
    <path d="M291.21 484.939c-5.331 5.317-3.597 9.719-1.237 15.904 2.039 5.366 1.847 14.635 6.776 18.041.932.643 2.393.193 2.907-.771 2.167-3.952-.225-9.157-1.349-13.238-.723-2.618-1.542-5.221-2.618-7.711-1.702-3.968-1.959-5.735-.963-10.185.466-2.008-1.959-3.583-3.516-2.04z" fill="#000"/>
    <path d="M292.639 489.502c1.381 2.506 2.923 4.9 4.673 7.181 1.573 2.04 3.147 4.53 5.764 5.237 1.301.337 2.489-.852 2.152-2.153-.626-2.377-2.698-3.952-4.239-5.751-1.767-2.056-3.388-4.241-4.898-6.506-1.429-2.153-4.704-.273-3.452 1.992zM316.083 506.723c-3.918 4.129-6.343 9.221-9.474 13.912-1.477 2.217-3.259 3.904-5.7 4.997-2.521 1.14-5.299 1.172-7.659 2.618-2.104 1.302-1.766 4.659.69 5.334 5.315 1.446 12.477-2.201 16.025-6.057 4.4-4.787 8.125-12.37 10.036-18.523.706-2.233-2.312-3.968-3.918-2.281zM297.408 483.975c1.879 1.815 3.773 3.631 5.636 5.462 1.638 1.591 3.372 3.792 5.62 4.434 1.686.482 2.697-1.317 2.087-2.715-.883-2.04-3.436-3.502-5.154-4.852-1.975-1.542-3.918-3.084-5.877-4.642-1.606-1.285-3.87.803-2.312 2.313zM293.025 502.257c-5.861 6.426-11.192 13.318-17.165 19.664-2.794 2.972-5.508 6.458-8.655 9.012-3.436 2.78-16.266 7.519-17.823-.048-.418-2.008-3.725-2.056-4.095 0-2.023 10.973 15.078 10.539 21.485 7.294 5.909-2.988 10.838-9.206 15.19-14.041 5.411-6.008 10.453-12.21 14.403-19.294 1.14-2.057-1.67-4.418-3.34-2.587z" fill="#000"/>
    <path d="M251.067 491.205c-9.088 11.197-13.552 31.375-5.234 44.291 1.044 1.622 4.239 1.189 3.998-1.076-.69-6.426-2.665-12.419-2.296-19.005.417-7.744 2.826-15.278 5.957-22.331.642-1.462-1.236-3.357-2.425-1.879zM335.383 487.365c9.056-7.101 21.661 6.233 31.07-2.619 5.636-5.301 8.382-19.904 3.324-25.864-1.172-1.382-3.902-.707-4.207 1.108-.851 4.932.096 9.928-1.574 14.828-2.585 7.599-7.835 6.812-14.612 5.125-6.711-1.671-14.049-2.346-18.433 4-1.975 2.876 2.136 5.237 4.432 3.422zM295.85 516.443c-8.992 11.342-27.377 48.147-45.313 29.608-1.846-1.912-5.01.064-4.367 2.538 3.115 12.065 17.855 10.506 26.333 5.221 12.46-7.775 20.087-22.298 26.43-35.006.915-1.831-1.622-4.209-3.083-2.361zM303.157 446.704c4.576-4.835 14.017-7.357 20.601-6.008 6.326 1.285 1.943 5.864-1.879 7.245-3.356 1.221-6.712 2.474-10.052 3.727-1.268.466-7.033 3.567-8.157 2.973-2.569-1.35 1.108-4.483 1.879-5.559 3.597-5.06 8.848-7.101 14.724-9.045 2.056-.674 2.489-4.16 0-4.61-5.347-.948-11.785 2.024-16.073 5.141-1.67 1.22-2.103 2.425-3.211 4.064-1.445 2.137-3.693 3.679-4.833 6.04-1.718 3.551-.867 8.21 3.131 9.704 5.331 1.992 12.669-2.555 17.454-4.354 4.544-1.703 13.263-3.261 15.8-8.032 1.686-3.197.417-8.242-2.264-10.555-3.661-3.181-10.453-1.703-14.708-.852-5.861 1.173-10.759 3.808-14.195 8.74-.77 1.06.899 2.313 1.783 1.381z" fill="#000"/>
    <path d="M369.086 454.785c-.578 5.108-1.3 10.153-2.151 15.229-.434 2.619-.964 4.29-2.65 6.378-1.108 1.35-1.621 1.783-2.087 3.486-.353 1.302.674 2.86 2.103 2.763 5.123-.337 7.692-5.413 8.43-9.976.98-5.992 2.441-13.109-.385-18.764-.867-1.719-3.083-.658-3.26.884zM119.351 360.034c3.131-12.724-1.461-23.471-3.276-35.874-.562-3.791-1.509-5.783-3.885-8.578-4.641-5.446-8.238-11.487-12.075-17.575-2.1197-3.374-7.531-.193-5.3311 3.116 2.9705 4.482 5.7481 9.238 9.0081 13.511 3.099 4.08 6.985 6.554 7.852 11.952 1.83 11.406 6.117 21.19 5.315 33.126-.097 1.382 2.071 1.655 2.392.322z" fill="#000"/>
    <path d="M115.369 333.141c4.753 5.333 10.983 9.108 16.748 13.253 5.909 4.258 11.561 8.932 17.647 12.949 10.517 6.924 21.709 12.241 32.997 4.161 3.147-2.25.481-6.892-3.035-5.206-4.769 2.298-8.366 3.695-13.456 2.089-2.986-.932-5.957-2.49-8.703-4-4.592-2.522-8.96-5.446-13.375-8.274-8.944-5.735-17.615-13.253-27.522-17.205-1.333-.531-2.103 1.349-1.301 2.233zM191.673 314.2c1.252 15.342-2.778 30.218-4.095 45.4-.289 3.277 5.235 4.064 5.781.787 2.665-15.888 4.962-30.7 1.798-46.653-.385-1.944-3.645-1.542-3.484.466z" fill="#000"/>
    <path d="M129.211 309.461c-.819 9.574-2.297 19.133-3.212 28.708-.273 2.94 4.689 3.647 5.187.707 1.653-9.832 1.846-19.487 1.75-29.415 0-2.442-3.517-2.378-3.725 0zM116.51 271.29c-1.83-15.47-4.961-28.708 7.29-40.917 10.71-10.684 23.732-15.326 38.81-14.828 12.235.401 29.079 6.281 36.128 16.82 6.776 10.153 12.123 24.386 5.17 35.905-2.713 4.498 4.015 8.241 6.937 4.064 9.104-12.98 3.838-30.025-3.757-42.17-8.366-13.382-24.68-20.772-40.143-22.17-17.662-1.607-34.667 3.952-47.191 16.547-13.087 13.173-14.66 30.379-8.446 47.456.947 2.57 5.571 2.474 5.202-.707z" fill="#000"/>
    <path d="M120.331 243.369c-.546-.369.465.547.176.177-.224-.289.257.434.322.514.353.578.642 1.205.947 1.816.883 1.831 1.863 3.486 3.95 4.112 2.649.787 4.64-1.735 4.175-4.177-.161-.867-.546-1.478-1.076-2.185.466.627-.08-.144-.177-.289-.433-.675-.835-1.365-1.3-2.024-1.189-1.687-2.602-3.036-4.689-3.47-3.356-.675-5.235 3.599-2.328 5.526zM131.989 228.155c.915 2.217 1.622 4.466 2.088 6.812.449 2.345.176 4.707 1.926 6.522 1.285 1.334 3.388.884 4.336-.562 1.493-2.281.449-5.205-.273-7.615-.755-2.522-1.799-4.964-3.035-7.293-1.429-2.683-6.246-.787-5.042 2.136zM142.538 224.622c.337 2.522.594 5.06.755 7.614.144 2.378-.016 4.563 2.183 5.976.884.563 1.959.29 2.698-.353 1.943-1.671 1.285-4.161.947-6.41-.385-2.522-.867-5.028-1.429-7.518-.642-2.828-5.555-2.265-5.154.691zM155.079 222.051c.032 2.731-.065 5.478-.177 8.209-.096 2.635-.562 5.012.626 7.438.932 1.896 3.886 1.767 4.849 0 1.285-2.362.851-4.836.723-7.438-.145-2.747-.417-5.478-.642-8.209-.289-3.39-5.411-3.519-5.379 0zM168.085 220.396c-2.296.803-2.585 3.229-2.986 5.35-.482 2.522-1.028 5.028-1.14 7.598-.065 1.366 1.091 3.053 2.505 3.294.305.048.61.096.915.128 1.413.129 3.002-1.156 3.291-2.506.53-2.377.659-4.787.851-7.213.177-2.056.498-4.241-.834-5.96-.53-.707-1.799-.98-2.602-.691zM173.672 227.882c-.144 2.025-.273 4.033-.417 6.057-.129 1.976-.626 3.952.53 5.687.803 1.205 2.826 1.815 3.886.498 1.461-1.799 1.284-3.566 1.348-5.783.065-2.153.145-4.306.209-6.459.113-3.598-5.315-3.534-5.556 0zM184.592 230.598c-1.317 1.976-2.329 4.064-3.196 6.281-.642 1.623.707 3.55 2.264 3.984 1.702.466 3.501-.578 3.982-2.265.514-1.767 1.173-3.406 2.04-5.028 1.798-3.358-3.003-6.121-5.09-2.972zM194.772 238.678c-.514 1.141-1.044 2.281-1.558 3.422-.771 1.719-.546 3.952 1.285 4.932 1.573.835 4.094.546 4.929-1.285.514-1.141 1.044-2.282 1.558-3.422.77-1.719.546-3.952-1.285-4.932-1.589-.836-4.094-.546-4.929 1.285zM201.179 250.181c-1.156 1.976-2.425 3.904-3.276 6.024-.658 1.639.578 3.567 2.055 4.193 1.718.723 3.388 0 4.432-1.446 1.14-1.574 1.911-3.518 2.794-5.237.835-1.622.466-3.855-1.252-4.771-1.654-.9-3.774-.45-4.753 1.237zM210.684 249.683c11.128.594 21.838 3.341 32.773 5.205 9.024 1.542 17.951.867 26.975 1.815l-.915-6.795c-9.489 1.895-19.059 2.972-28.629 4.321-9.362 1.317-18.354 4.595-27.875 4.707-3.838.048-3.806 6.169 0 5.944 9.072-.53 17.63-3.149 26.542-4.611 10.549-1.735 21.227-1.767 31.793-3.678 4.175-.755 2.601-6.378-.916-6.796-10.372-1.253-20.601-.755-30.99-2.586-9.634-1.703-18.931-3.454-28.758-2.603-3.243.241-3.307 4.9 0 5.077z" fill="#000"/>
    <path d="M203.442 231.578c18.594-6.812 36.867-13.897 56.473-17.238-.9-2.121-1.783-4.241-2.682-6.378-16.86 8.097-31.937 19.632-47.432 30.026-3.404 2.281-.209 7.839 3.227 5.526 15.495-10.346 30.83-21.559 47.722-29.528 3.837-1.815.899-6.956-2.682-6.377-19.782 3.229-38.521 10.795-56.729 18.956-2.81 1.269-.819 6.073 2.103 5.013zM184.206 214.276c14.355-10.507 26.976-23.664 41.042-34.653-1.734-1.333-3.468-2.683-5.219-4.016-10.003 13.318-20.119 26.572-29.834 40.114-2.665 3.711 3.388 7.069 6.054 3.535 10.068-13.254 19.734-26.829 29.497-40.307 2.408-3.31-2.521-6.137-5.219-4.017-13.472 10.603-28.806 21.688-39.645 35.086-1.718 2.169.627 6.234 3.324 4.258zM151.899 156.136c2.778 17.8 6.921 35.568 9.971 53.368.514 2.972 5.476 2.298 5.283-.723-1.172-17.607-4.416-37.415-11.095-53.785-1.06-2.571-4.593-1.623-4.159 1.14z" fill="#000"/>
    <path d="M151 157.662c-.53 16.981-.915 33.946-2.666 50.862-.433 4.289 6.375 4.322 6.728 0 1.397-16.948 1.991-33.929.321-50.862-.257-2.779-4.287-2.875-4.383 0zM87.1892 182.274c7.0009 6.474 14.0018 12.932 21.8378 18.395 4.287 2.988 9.136 5.301 13.166 8.626 3.372 2.78 5.909 5.832 9.892 7.824 4.126 2.089 7.787-4.177 3.628-6.217-3.612-1.783-6.117-4.691-9.216-7.181-3.629-2.908-7.788-4.964-11.706-7.422-8.382-5.269-16.0247-11.663-23.6357-17.993-2.7297-2.265-6.6476 1.478-3.9661 3.968z" fill="#000"/>
    <path d="M85.4719 181.069c10.4852 15.888 23.1861 29.945 37.9911 41.913 3.163 2.555 7.707-1.863 4.528-4.53-14.195-11.856-26.703-25.286-37.3969-40.387-2.1677-3.069-7.2417-.225-5.1222 3.004zM75.0661 227.609c14.0178 2.892 28.1319 5.768 42.3749 7.294 3.612.385 4.399-5.607.851-6.346-14.002-2.924-28.3732-4.305-42.6157-5.494-2.5692-.225-3.1472 4.016-.6102 4.546zM76.4474 235.015c3.1151 2.764 7.884 3.744 11.7216 5.238 6.4871 2.522 13.135 4.691 19.911 6.217 4.158.931 5.941-5.511 1.766-6.41-6.439-1.398-12.8135-2.86-19.0597-4.98-4.3033-1.462-8.3978-3.213-12.9901-3.358-1.6057-.032-2.6012 2.185-1.3488 3.293zM84.8129 255.996c5.5237.274 10.983.322 16.5071 0 3.516-.208 10.356.691 12.861-2.184.642-.739.787-1.928 0-2.651-2.986-2.731-9.184-.819-12.861-.45-5.508.546-10.9834 1.558-16.5071 1.783-2.2479.097-2.2479 3.39 0 3.502zM84.412 262.551c8.3657.739 16.683 2.217 25.065 2.94 3.725.321 3.757-5.591 0-5.848-8.366-.578-16.6511-1.847-25.065-1.671-2.9866.065-2.8903 4.322 0 4.579z" fill="#000"/>
    <path d="M162.465 335.742c-1.011 0-2.119-.128-3.468-.402-8.269-1.654-15.896-5.381-22.689-11.068-3.275-2.748-6.454-5.977-9.698-9.848-.835-.996-1.397-1.992-1.734-3.037-.883-2.024-1.204-4.257-.98-6.843.129-1.414.241-2.828.354-4.257l.192-2.362.273-3.149c.145-1.719.289-3.422.434-5.141.096-1.092.177-2.184.273-3.277.08-1.044.176-2.072.257-3.116.096-1.157.192-2.33.289-3.487.08-1.012.176-2.04.257-3.052.096-1.173.192-2.329.289-3.502.08-.916.144-1.832.225-2.731l.224-2.715c.113-1.334.225-2.651.338-3.984.064-.739.112-1.478.176-2.217.113-1.35.209-2.731.337-4.097.081-.883.145-1.783.193-2.667.112-1.943.241-3.936.674-5.896 1.044-4.61 3.967-8.016 8.687-10.12 1.734-.772 3.725-1.205 6.07-1.334 1.172-.064 2.424-.096 3.934-.096 1.043 0 2.119.016 3.147.032l1.188.016c.097 0 .209 0 .321-.016.273-.016.53-.016.803-.016h19.204c.273 0 .53.016.803.016.113 0 .241.016.353.016l1.173-.016c1.027-.016 2.103-.032 3.147-.032 1.509 0 2.762.032 3.934.096 2.36.129 4.335.562 6.069 1.334 4.721 2.104 7.659 5.51 8.687 10.12.434 1.944.562 3.953.675 5.896.048.884.112 1.784.192 2.667.129 1.366.241 2.747.337 4.097.065.739.113 1.478.177 2.217.112 1.285.209 2.554.321 3.839.08.948.161 1.896.241 2.86l.225 2.667c.096 1.188.193 2.377.289 3.566.08 1.028.176 2.04.257 3.068.096 1.157.192 2.314.289 3.471.08 1.044.176 2.104.257 3.148.08 1.077.176 2.153.273 3.229.144 1.751.289 3.503.449 5.238l.257 3.036.209 2.394c.112 1.397.241 2.811.353 4.209.225 2.586-.096 4.819-.979 6.843-.321 1.044-.883 2.041-1.734 3.037-3.244 3.871-4.962 7.984-8.254 10.731-6.792 5.687-15.864 8.514-24.133 10.185-1.317.322-2.425.45-3.437.45z" fill="#fff"/>
    <path d="M173.255 236.718c-1.252.498-2.328 1.317-3.596 1.816-1.028.401-1.253 1.301-.755 2.297.353.691-.016 1.43-.771 1.526-.883.112-1.766.209-2.649.305-1.028.097-1.461.82-1.076 1.767.128.306.257.611.369.916.097.305.097.611-.176.835-.305.241-.61.177-.916-.016-1.268-.803-2.521-1.622-3.789-2.425-.819-.514-1.638-1.029-2.441-1.575-.337-.241-.658-.353-1.043-.112-.386.225-.482.562-.45.964.016.385.016.771.032 1.14.016.402-.048.787-.498.916-.401.129-.674-.08-.915-.386-1.397-1.879-2.89-3.678-3.934-5.799-.417-.852-.787-2.201-.787-2.201h22.56c.273.016.562.032.835.032zM123.96 310.232c.948-.032 1.06-.161 1.124-1.109.257-3.55.498-7.084.787-10.635.209-2.506.418-5.012.61-7.518.257-3.39.594-6.78.883-10.169.193-2.298.322-4.611.498-6.908.241-3.005.498-6.009.755-9.013.209-2.49.417-4.996.658-7.486.193-2.089.273-4.209.723-6.265.787-3.535 2.312-6.651 5.299-8.836 1.3-.948 2.777-1.575 4.351-1.96.369-.097.803-.161 1.092.305.257.434-.048.659-.273.932-1.702 2.088-3.372 4.193-4.512 6.667-1.14 2.49-1.879 5.076-2.152 7.807-.353 3.615-.192 7.198.594 10.748.193.883-.208 1.59-.754 2.233-1.542 1.751-1.494 2.024.032 3.823 1.991 2.33 3.773 4.804 5.218 7.503.948 1.751 1.156 3.438.209 5.366-1.782 3.662-3.548 7.325-5.01 11.133-.594 1.558-1.043 3.148-1.14 4.803-.096 1.542.466 2.956 1.445 4.161 1.462 1.815 3.405 3.036 5.412 4.177.513.305.835-.209 1.236-.37-.128 1.012 18.626 19.391 20.954 19.326-.77.515-1.075 1.221-.947 2.137.048.37.016.755.016 1.141 0 1.43.337 1.815 1.718 1.928-1.702.273-3.404.064-5.074-.257-8.43-1.687-20.039-4.531-26.606-10.041-3.517-2.956-4.175-6.089-7.114-9.607-.738-.9.306-2.924-.032-4.016z" fill="#9BCED3"/>
    <path d="M131.877 238.035c-1.799 2.796-3.356 5.703-5.379 8.354-1.173 1.526-2.329 3.053-3.421 4.611-1.236 5.896-.899 12.29-1.862 18.828-1.734 11.856-2.521 23.294-2.216 35.279.16 6.185 9.795 6.217 9.634 0-.257-10.009-.048-19.712 1.397-29.64.594-4.016 1.269-8.033 1.702-12.081.658-6.089-.498-12.386 3.95-17.093 3.324-3.518-.112-8.434-3.805-8.258z" fill="#9BCED3"/>
    <path d="M175.729 275.033c.498.996.963 2.008 1.445 3.021.289.61.096 1.253-.482 1.654-.578.418-1.14.386-1.638-.144-.16-.161-.305-.338-.417-.547-1.59-3.229-3.083-6.506-3.886-10.04-.851-3.727-.722-7.374 1.076-10.844.209-.402.434-.803.706-1.173.466-.659 1.141-.835 1.719-.466.706.45.947 1.221.513 1.912-.899 1.414-1.445 2.94-1.702 4.611-.128.835-.096 1.67-.064 2.506.161 4.514 1.558 7.117 2.73 9.51z" fill="#16A998"/>
    <path d="M184.319 263.707c.642-.273.722-.739.433-1.349-.738-1.591-1.011-3.358 1.092-2.313 1.237.626 2.296 1.783 2.618 2.907.321 1.077.224 2.282-.049 3.374-.144.61-.465.948-1.075 1.141-1.381.401-2.842.562-4.159 1.188-.819.386-.931.611-.434 1.366 1.028 1.542.675 3.052-.995 3.856-1.799.867-3.645.931-5.508.465-.642-.16-1.236-.465-1.734-.899-.257-.241-.498-.498-.706-.82-.659-1.044-1.333-2.233-1.702-3.453-.241-.82-.161-1.302.594-1.719.562-.338 11.079-3.519 11.625-3.744z" fill="#030303"/>
    <path d="M181.044 309.685c-.321-2.666-.064-2.65-.691-5.285-.321-1.382-.835-3.743-1.236-4.836-1.252-3.421-3.565-9.012-5.058-12.354-.803-1.815-1.83-3.727-2.778-5.478-1.429-2.651-3.468-4.691-6.647-5.542-1.044-.273-2.104-.402-3.164-.37-1.043-.032-2.119.097-3.163.37-3.195.851-5.218 2.891-6.647 5.542-.948 1.751-1.959 3.663-2.778 5.478-1.494 3.342-3.806 8.933-5.058 12.354-.402 1.093-.916 3.454-1.237 4.836-.61 2.619-.353 2.619-.69 5.285-.193 1.607-.707 4.225-.562 5.832.144 1.671 1.622 4.627 3.115 5.398 1.172.61 8.157.755 9.329 1.397 1.445.788 4.897 2.314 7.691 2.956 2.81-.626 6.263-2.152 7.692-2.956 1.172-.642 8.157-.771 9.329-1.397 1.477-.787 2.97-3.727 3.115-5.398.128-1.607-.369-4.225-.562-5.832z" fill="#16A998"/>
    <path d="M178.249 297.283s1.686 6.844 2.248 12.162c.16 1.606.289 3.422.16 5.044-.144 1.671-1.236 2.86-2.713 3.647-1.173.61-2.537.61-3.87.45-2.553-.306-4.352-1.864-6.07-3.551-1.043-1.028-2.119-2.024-3.163-3.052-.61-.594-.931-1.301-.915-2.169.032-2.394.048-4.643-.016-7.036-.032-1.045.449-1.832 1.3-2.298 1.847-1.028 3.469-2.329 4.721-4.016 1.526-2.04.835-5.607-1.461-6.426-.803-.289-1.654-.45-2.505-.45-1.493-.016-2.987-.016-4.464-.032-1.493 0-2.986.016-4.464.032-.851 0-1.702.161-2.505.45-2.296.819-2.97 4.386-1.461 6.426 1.253 1.687 2.858 3.004 4.721 4.016.835.466 1.317 1.253 1.301 2.298-.065 2.393-.032 4.642-.016 7.036.016.884-.305 1.575-.916 2.169-1.059 1.012-2.119 2.024-3.163 3.052-1.718 1.687-3.516 3.245-6.069 3.551-1.333.16-2.698.16-3.87-.45-1.477-.787-2.585-1.976-2.714-3.647-.128-1.622-.016-3.422.161-5.044.562-5.318 2.248-12.162 2.248-12.162-2.007 3.985-5.99 13.977-4.978 20.821.241 1.622.819 3.052 2.296 3.952 1.397 1.044 5.01 1.478 7.033 1.076 1.188-.209 1.783.241 2.345 1.06.995 1.446 2.312 2.523 3.869 3.326 1.959 1.012 4.047 1.398 6.214 1.398 2.168 0 4.255-.386 6.214-1.398 1.558-.803 2.875-1.864 3.87-3.326.562-.819 1.156-1.269 2.344-1.06 2.024.402 5.636-.032 7.033-1.076 1.478-.9 2.056-2.33 2.297-3.952.947-6.844-3.035-16.836-5.042-20.821zm-11.417 25.287c-1.477 1.253-3.227 1.735-5.363 1.767-2.135-.032-3.886-.514-5.363-1.767-.931-.787-.963-1.542-.064-2.297 1.461-1.237 2.762-2.619 4.159-3.904.481-.45.867-.659 1.252-.627.385-.032.771.177 1.252.627 1.397 1.285 2.698 2.667 4.159 3.904.932.755.899 1.51-.032 2.297z" fill="#030303"/>
    <path d="M148.479 275.033c-.497.996-.963 2.008-1.445 3.021-.289.61-.096 1.253.482 1.654.578.418 1.14.386 1.638-.144.16-.161.305-.338.417-.547 1.59-3.229 3.083-6.506 3.886-10.04.851-3.727.723-7.374-1.076-10.844-.209-.402-.433-.803-.706-1.173-.466-.659-1.14-.835-1.718-.466-.707.45-.948 1.221-.514 1.912.899 1.414 1.445 2.94 1.702 4.611.128.835.096 1.67.064 2.506-.161 4.514-1.558 7.117-2.73 9.51z" fill="#16A998"/>
    <path d="M139.905 263.707c-.642-.273-.722-.739-.433-1.349.738-1.591 1.011-3.358-1.092-2.313-1.237.626-2.296 1.783-2.618 2.907-.321 1.077-.224 2.282.049 3.374.144.61.465.948 1.075 1.141 1.381.401 2.843.562 4.159 1.188.819.386.932.611.434 1.366-1.028 1.542-.675 3.052.995 3.856 1.799.867 3.645.931 5.508.465.642-.16 1.236-.465 1.734-.899.257-.241.498-.498.707-.82.658-1.044 1.332-2.233 1.702-3.453.24-.82.16-1.302-.595-1.719-.578-.338-11.095-3.519-11.625-3.744z" fill="#030303"/>
    <path d="M161.822 334.265c-12.139-2.425-28.983-5.269-35.084-17.671-2.698-5.478.209-14.716-3.661-19.166-.626-.707-1.831-.626-2.457 0-2.569 2.522-1.22 8.081-.931 11.23.482 5.349 1.573 9.88 5.074 14.201 7.547 9.286 25.049 15.294 36.674 14.427 1.606-.129 2.2-2.667.385-3.021z" fill="#000"/>
    <path d="M164.022 233.521c-10.212.209-22.014-.144-31.504 4.306-6.792 3.197-8.671 9.767-9.843 16.804-1.766 10.715-1.943 21.72-3.5 32.515-1.156 8.049-2.489 18.218 2.762 25.11 1.059 1.398 4.03 1.237 3.805-1.028-.706-6.972-2.039-13.302-1.413-20.403.707-8.177 1.734-16.242 2.168-24.451.53-9.88.53-20.949 10.999-25.158 8.141-3.277 17.92-3.084 26.526-3.357 2.794-.081 2.81-4.402 0-4.338z" fill="#000"/>
    <path d="M202.061 261.057c0-8.868-6.198-20.724-14.371-24.644-4.576-2.185-10.517-2.329-15.463-2.795-6.246-.595-12.974-1.526-19.011.514-2.313.771-1.943 4.225.578 4.305 8.831.257 17.293-.128 26.124 1.189 9.94 1.494 15.528 12.9 17.262 22.09.514 2.811 4.865 2.088 4.881-.659z" fill="#000"/>
    <path d="M196.746 258.374c2.264 9.88 4.48 19.503 8.478 28.885 2.008 4.707 5.636 10.442 2.762 15.438-2.119 3.679-7.225 5.527-10.276 8.563-2.537 2.522.032 7.888 3.725 6.41 8.96-3.599 17.085-9.864 16.153-20.403-.53-5.96-3.934-11.02-6.439-16.274-3.661-7.695-6.599-15.92-9.184-24.049-1.044-3.325-6.006-1.976-5.219 1.43zM126.609 244.108c-7.611 11.342-14.981 23.503-20.665 35.969-4.656 10.186 2.89 15.182 11.577 19.809 4.143 2.201 7.788-4.001 3.677-6.298-2.055-1.14-4.608-2.377-6.278-4.112-2.746-2.86-1.831-4.37-.674-7.631 1.493-4.209 4.303-8.338 6.262-12.37 3.773-7.776 7.113-15.583 10.405-23.552 1.092-2.586-2.891-3.904-4.304-1.815z" fill="#000"/>
    <path d="M206.798 307.581c-1.782 13.511 1.83 26.427 2.73 39.841.385 5.623.658 11.246 1.188 16.869.385 3.968.273 9.301 2.81 12.611.883 1.156 3.227 1.381 3.548-.466.675-3.92-.481-8.193-.851-12.145-.546-5.961-.867-11.921-1.364-17.881-1.06-12.964-5.572-25.816-4.32-38.829.257-2.442-3.42-2.345-3.741 0zM113.555 294.922c-3.661 5.751-4.72 12.53-7.546 18.635-.691 1.478-.675 3.277.578 4.466.497.466.979.739 1.621.948 1.526.514 3.372-.337 4.159-1.703 3.501-6.056 3.26-13.205 6.15-19.471 1.525-3.293-2.938-6.04-4.962-2.875z" fill="#000"/>
    <path d="M116.044 268.125c-1.943 6.458-5.78 13.077-6.744 19.728-.546 3.775 2.039 6.619 5.925 5.928 3.934-.707 6.985-3.534 8.125-7.374.498-1.654.562-3.438.739-5.141.257-2.361.963-4.739.786-7.1-.192-2.571-3.018-4.788-5.491-3.149-2.617 1.735-4.014 4.225-4.624 7.293-.402 2.009.305 5.704-2.104 6.185 2.023 1.543 4.063 3.101 6.086 4.643.385-3.052 2.055-6.153 2.826-9.157.835-3.213 1.557-6.442 2.392-9.655 1.349-5.157-6.407-7.277-7.916-2.201zM196.859 260.205c.723 5.655 1.365 11.423 1.863 17.11.61 6.731-1.124 12.675-1.831 19.294-.481 4.514.257 9.06-.257 13.575-.819 7.325-4.03 12.852-9.248 17.912-1.879 1.816.513 4.788 2.745 3.551 10.63-5.88 12.621-18.813 12.204-29.881-.257-7.037 1.926-13.832 1.3-20.853-.642-7.277-3.34-13.912-4.801-20.981-.225-1.092-2.119-.867-1.975.273z" fill="#000"/>
    <path d="M200.632 281.861c-.658 3.936.642 5.864 2.28 9.27 2.007 4.16.402 8.562-2.73 11.791 2.12 1.237 4.256 2.474 6.375 3.711 1.156-4.996 2.441-9.848 2.104-15.021-.129-2.072-2.554-4.064-4.561-2.618-2.007 1.446-2.408 2.522-2.601 4.932-.289 3.663-1.365 7.133-2.296 10.683-.963 3.615 3.709 6.522 6.375 3.711 3.291-3.454 5.539-7.759 5.668-12.611.16-5.832-3.838-8.675-5.524-13.848-.739-2.265-4.624-2.747-5.09 0z" fill="#000"/>
  </g>
  <defs>
    <clipPath id="clip0">
      <path fill="#fff" d="M0 0h374v749H0z"/>
    </clipPath>
  </defs>
</svg>
