<svg width="24" height="24" viewBox="0 0 24 24" fill="none" xmlns="http://www.w3.org/2000/svg">
<g clip-path="url(#clip0)">
<path d="M20.6501 14.3407C20.4619 14.4698 20.2425 14.5459 20.0149 14.5611C19.7872 14.5763 19.5596 14.53 19.356 14.4271C18.8782 14.1583 18.6204 13.5281 18.6204 12.6689V10.0361C18.6204 8.77248 18.1178 7.87344 17.2766 7.62912C15.8554 7.21512 14.7941 8.94864 14.3844 9.60072L11.8704 13.6517V8.70768C11.8423 7.56744 11.4701 6.88464 10.7654 6.68064C10.2998 6.54456 9.60168 6.60024 8.92224 7.63224L3.30168 16.6152C2.55418 15.1916 2.16642 13.6067 2.17224 11.9988C2.17248 6.58488 6.5172 2.1816 11.8704 2.1816C17.2238 2.1816 21.5842 6.58488 21.5842 11.9986V12.054C21.637 13.1016 21.2954 13.9358 20.653 14.3407H20.6498H20.6501ZM23.7535 12.0014V11.9491C23.7103 5.352 18.397 0 11.8706 0C5.34408 0 0 5.38272 0 11.9986C0 18.6142 5.3256 24 11.8704 24C14.8699 24.0009 17.7563 22.8558 19.9394 20.7989C20.1508 20.6008 20.2753 20.3273 20.2858 20.0378C20.2962 19.7484 20.1918 19.4666 19.9954 19.2538C19.9011 19.1499 19.7873 19.0657 19.6605 19.006C19.5336 18.9463 19.3962 18.9122 19.2562 18.9058C18.9733 18.8925 18.6967 18.9922 18.4872 19.1827C17.548 20.0695 16.4396 20.7577 15.2282 21.2062C14.0158 21.6552 12.7254 21.8557 11.4338 21.7957C10.1423 21.7356 8.87604 21.4163 7.71048 20.8567C6.54658 20.2979 5.50743 19.5099 4.65528 18.54L9.71376 10.4441V14.1799C9.71376 15.9751 10.4122 16.5562 10.9985 16.7263C11.585 16.896 12.4819 16.7786 13.4225 15.2585L16.2154 10.7561C16.3022 10.6111 16.386 10.4873 16.4606 10.3793V12.6689C16.4606 14.347 17.1372 15.6881 18.3226 16.349C18.862 16.6389 19.4692 16.7789 20.081 16.7545C20.6929 16.73 21.287 16.542 21.8016 16.2101C23.1048 15.3665 23.8157 13.8401 23.741 12.0014H23.7535Z" fill="white"/>
</g>
<defs>
<clipPath id="clip0">
<rect width="23.76" height="24" fill="white"/>
</clipPath>
</defs>
</svg>
