<svg width="25" height="24" viewBox="0 0 25 24" fill="none" xmlns="http://www.w3.org/2000/svg">
<g clip-path="url(#clip0)">
<path fill-rule="evenodd" clip-rule="evenodd" d="M24.7604 11.9473C24.7673 13.5232 24.4638 15.085 23.8671 16.5436C23.2704 18.0022 22.3923 19.329 21.2829 20.4482C20.1735 21.5674 18.8545 22.4572 17.4012 23.0666C15.9479 23.6761 14.3888 23.9934 12.8129 24.0003C9.63026 24.0143 6.57239 22.7634 4.31201 20.5229C2.05162 18.2823 0.773885 15.2355 0.759882 12.0529C0.745879 8.87022 1.99676 5.81235 4.23734 3.55196C6.47792 1.29158 9.52466 0.0138451 12.7073 -0.000158338C15.89 -0.0141618 18.9479 1.23672 21.2082 3.47729C23.4686 5.71787 24.7464 8.76462 24.7604 11.9473ZM23.8601 11.9516C23.873 14.5632 22.9645 17.0958 21.2943 19.1036C19.6242 21.1115 17.2994 22.466 14.7291 22.929L14.7269 22.9239C14.2652 19.676 17.1077 16.4953 18.7028 14.87C18.8535 14.7174 19.0376 14.5407 19.2389 14.348C19.5176 14.0811 19.8288 13.783 20.1284 13.4742C22.2221 11.5261 22.6522 9.19496 18.3896 8.03432C17.5904 7.80296 16.7621 7.47584 15.9233 7.1444L15.9044 7.13696L15.9034 7.13264L15.9046 7.13336L15.9015 7.12496C15.8839 7.05891 15.8579 6.99542 15.824 6.93608C15.3104 5.85584 13.9402 5.72528 12.8019 6.07952L12.8129 6.08048L12.8019 6.08288C11.8124 5.85008 10.8348 5.76728 9.89668 5.996C5.8174 7.11968 5.13604 9.10352 4.96948 11.4942L4.93996 11.851C4.73668 14.3065 4.58164 16.1816 3.63028 18.3138C2.64261 16.8838 2.00458 15.2419 1.76756 13.5202C1.53053 11.7985 1.70115 10.0453 2.26568 8.40162C2.8302 6.75796 3.77284 5.26985 5.01768 4.05714C6.26252 2.84443 7.77477 1.94102 9.43262 1.41967C11.0905 0.89832 12.8476 0.773599 14.5625 1.05555C16.2774 1.33751 17.902 2.01826 19.3057 3.04298C20.7094 4.06769 21.8527 5.40774 22.6438 6.95518C23.4348 8.50262 23.8513 10.2142 23.8599 11.9521L23.8601 11.9516Z" fill="#58595B"/>
<path fill-rule="evenodd" clip-rule="evenodd" d="M24.7604 11.9473C24.7673 13.5232 24.4638 15.085 23.8671 16.5436C23.2704 18.0022 22.3923 19.329 21.2829 20.4482C20.1735 21.5674 18.8545 22.4572 17.4012 23.0666C15.9479 23.6761 14.3888 23.9934 12.8129 24.0003C9.63026 24.0143 6.57239 22.7634 4.31201 20.5229C2.05162 18.2823 0.773885 15.2355 0.759882 12.0529C0.745879 8.87022 1.99676 5.81235 4.23734 3.55196C6.47792 1.29158 9.52466 0.0138451 12.7073 -0.000158338C15.89 -0.0141618 18.9479 1.23672 21.2082 3.47729C23.4686 5.71787 24.7464 8.76462 24.7604 11.9473ZM23.8601 11.9516C23.873 14.5632 22.9645 17.0958 21.2943 19.1036C19.6242 21.1115 17.2994 22.466 14.7291 22.929L14.7269 22.9239C14.2652 19.676 17.1077 16.4953 18.7028 14.87C18.8535 14.7174 19.0376 14.5407 19.2389 14.348C19.5176 14.0811 19.8288 13.783 20.1284 13.4742C22.2221 11.5261 22.6522 9.19496 18.3896 8.03432C17.5904 7.80296 16.7621 7.47584 15.9233 7.1444L15.9044 7.13696L15.9034 7.13264L15.9046 7.13336L15.9015 7.12496C15.8839 7.05891 15.8579 6.99542 15.824 6.93608C15.3104 5.85584 13.9402 5.72528 12.8019 6.07952L12.8129 6.08048L12.8019 6.08288C11.8124 5.85008 10.8348 5.76728 9.89668 5.996C5.8174 7.11968 5.13604 9.10352 4.96948 11.4942L4.93996 11.851C4.73668 14.3065 4.58164 16.1816 3.63028 18.3138C2.64261 16.8838 2.00458 15.2419 1.76756 13.5202C1.53053 11.7985 1.70115 10.0453 2.26568 8.40162C2.8302 6.75796 3.77284 5.26985 5.01768 4.05714C6.26252 2.84443 7.77477 1.94102 9.43262 1.41967C11.0905 0.89832 12.8476 0.773599 14.5625 1.05555C16.2774 1.33751 17.902 2.01826 19.3057 3.04298C20.7094 4.06769 21.8527 5.40774 22.6438 6.95518C23.4348 8.50262 23.8513 10.2142 23.8599 11.9521L23.8601 11.9516Z" fill="white"/>
</g>
<defs>
<clipPath id="clip0">
<rect width="24" height="24" fill="white" transform="translate(0.759766)"/>
</clipPath>
</defs>
</svg>
