<svg width="186" height="58" fill="none" xmlns="http://www.w3.org/2000/svg"><path d="M.05.253h9.252V18.44L26.851.253h11.485L20.47 18.503l19.015 27.376H28.635L13.957 24.565 9.3 29.287v16.592H.048V.253H.05z" fill="#000"/><path d="M59.397 42.243h-.127c-1.66 2.488-4.021 4.402-9.637 4.402-6.7 0-11.423-3.509-11.423-10.018 0-7.21 5.87-9.509 13.145-10.53 5.424-.766 7.912-1.213 7.912-3.701 0-2.361-1.85-3.894-5.488-3.894-4.083 0-6.062 1.468-6.317 4.595H39.74c.255-5.743 4.53-10.784 14.102-10.784 9.826 0 13.784 4.402 13.784 12.06v16.654c0 2.489.382 3.956 1.148 4.53v.32h-8.358c-.507-.637-.827-2.167-1.019-3.634zm.065-7.915v-4.914c-1.533.894-3.894 1.405-6.063 1.914-4.53 1.021-6.763 2.042-6.763 5.107 0 3.062 2.041 4.148 5.104 4.148 4.977 0 7.722-3.062 7.722-6.255zM81.605 17.609h.192c2.234-3.51 5.234-5.361 9.699-5.361 6.764 0 11.296 5.104 11.296 12.252v21.377h-8.678V25.775c0-3.509-2.041-5.997-5.68-5.997-3.829 0-6.637 3.062-6.637 7.53v18.569H73.12V13.144h8.488v4.465h-.002zM107.257 46.838h8.616c.701 2.041 2.553 3.636 6.571 3.636 4.914 0 7.276-2.361 7.276-6.828V40.07h-.193c-1.914 2.17-4.402 3.83-8.55 3.83-7.276 0-14.421-5.744-14.421-15.635 0-9.763 5.87-16.018 14.166-16.018 4.083 0 7.083 1.595 9.062 4.34h.128v-3.447h8.358V43.39c0 4.594-1.467 7.722-3.893 9.955-2.743 2.553-6.956 3.702-11.805 3.702-8.936 0-14.421-3.829-15.315-10.208zm22.909-18.762c0-4.787-2.553-8.87-7.784-8.87-4.403 0-7.338 3.447-7.338 8.933 0 5.55 2.935 8.805 7.403 8.805 5.486.003 7.719-4.018 7.719-8.868zM163.475 42.243h-.127c-1.66 2.488-4.021 4.402-9.637 4.402-6.701 0-11.423-3.509-11.423-10.018 0-7.21 5.87-9.509 13.146-10.53 5.423-.766 7.911-1.213 7.911-3.701 0-2.361-1.849-3.894-5.488-3.894-4.083 0-6.062 1.468-6.317 4.595h-7.722c.255-5.743 4.53-10.784 14.104-10.784 9.826 0 13.784 4.402 13.784 12.06v16.654c0 2.489.382 3.956 1.149 4.53v.32h-8.359c-.512-.637-.829-2.167-1.021-3.634zm.063-7.915v-4.914c-1.533.894-3.894 1.405-6.063 1.914-4.53 1.021-6.763 2.042-6.763 5.107 0 3.062 2.041 4.148 5.104 4.148 4.979 0 7.722-3.062 7.722-6.255zM177.322.253H186v45.626h-8.678V.253z" fill="#000"/></svg>