<svg viewBox="0 0 240 60" fill="none" xmlns="http://www.w3.org/2000/svg">
  <path d="M79.7472 10.1118h7.9735v15.6738l15.1233-15.6738h9.899L97.344 25.8395l16.388 23.5935h-9.35L91.7323 31.0641l-4.0137 4.0695V49.433h-7.9735V10.1118h.0021z" fill="#fff"/>
  <path d="M130.892 46.2993h-.11c-1.43 2.1445-3.465 3.7943-8.304 3.7943-5.776 0-9.845-3.0243-9.845-8.6339 0-6.2141 5.059-8.195 11.329-9.0748 4.674-.6603 6.818-1.0453 6.818-3.1898 0-2.0348-1.594-3.3554-4.73-3.3554-3.519 0-5.224 1.2647-5.444 3.9598h-6.655c.22-4.9493 3.904-9.2941 12.153-9.2941 8.468 0 11.88 3.7942 11.88 10.3933v14.3532c0 2.1445.329 3.4092.989 3.904v.2753h-7.203c-.437-.5486-.712-1.8672-.878-3.1319zm.056-6.8206v-4.2351c-1.321.77-3.356 1.2109-5.225 1.6497-3.904.8798-5.829 1.7595-5.829 4.4008 0 2.6392 1.76 3.5748 4.399 3.5748 4.289 0 6.655-2.6392 6.655-5.3902zM150.031 25.0694h.166c1.925-3.0242 4.51-4.6202 8.358-4.6202 5.829 0 9.735 4.3987 9.735 10.5589v18.4228h-7.479V32.1073c0-3.0242-1.759-5.1687-4.895-5.1687-3.3 0-5.719 2.6392-5.719 6.4893v16.003h-7.479V21.2213h7.315v3.8481h-.002zM172.138 50.2589h7.425c.604 1.7595 2.2 3.1339 5.663 3.1339 4.235 0 6.27-2.0348 6.27-5.8849v-3.0801h-.166c-1.649 1.8692-3.794 3.2995-7.369 3.2995-6.27 0-12.428-4.9493-12.428-13.4734 0-8.4145 5.059-13.8047 12.209-13.8047 3.519 0 6.104 1.3745 7.81 3.7405h.11v-2.9705h7.203v26.0672c0 3.9599-1.265 6.655-3.355 8.58-2.364 2.2004-5.995 3.1899-10.174 3.1899-7.698 0-12.428-3.2996-13.198-8.7974zm19.743-16.1686c0-4.1254-2.2-7.6444-6.709-7.6444-3.794 0-6.324 2.9704-6.324 7.6983 0 4.7837 2.53 7.5885 6.38 7.5885 4.728.002 6.653-3.4631 6.653-7.6424zM220.588 46.2993h-.109c-1.431 2.1445-3.466 3.7943-8.305 3.7943-5.775 0-9.845-3.0243-9.845-8.6339 0-6.2141 5.059-8.195 11.329-9.0748 4.674-.6603 6.819-1.0453 6.819-3.1898 0-2.0348-1.594-3.3554-4.73-3.3554-3.519 0-5.225 1.2647-5.444 3.9598h-6.655c.219-4.9493 3.904-9.2941 12.155-9.2941 8.468 0 11.879 3.7942 11.879 10.3933v14.3532c0 2.1445.329 3.4092.99 3.904v.2753h-7.204c-.439-.5486-.714-1.8672-.88-3.1319zm.056-6.8206v-4.2351c-1.32.77-3.355 1.2109-5.224 1.6497-3.904.8798-5.829 1.7595-5.829 4.4008 0 2.6392 1.759 3.5748 4.398 3.5748 4.289 0 6.655-2.6392 6.655-5.3902zM232.521 10.1118H240V49.433h-7.479V10.1118zM30.881 60c-.1964 0-.3921-.0031-.5885-.0054l-.1335-.0015-.1335.0015c-.1964.0031-.392.0054-.5884.0054-.4089 0-.7411-.0123-1.0442-.0391-1.6311-.1435-3.0289-1.4843-3.3243-3.1871-.0307-.1757-.1159-.2853-.2762-.3544-.2616-.112-.5325-.2217-.7949-.3275-.346-.1396-.7043-.2846-1.0549-.4411-.0606-.0268-.1143-.0406-.1595-.0406-.0468 0-.1251.013-.2578.1296-.7059.6175-1.5398.9443-2.4098.9443-.623 0-1.2253-.1665-1.7907-.4948-1.1424-.6643-2.0377-1.2556-2.818-1.8624-1.2866-1.0002-1.7937-2.4085-1.4677-4.0715.0507-.2592-.0084-.3781-.1289-.497-.2186-.2156-.4472-.4326-.7004-.6635-.1036-.0951-.1788-.1059-.2264-.1059-.0352 0-.0759.0069-.1189.0207-.3414.1082-.6943.1634-1.0495.1634-.1619 0-.3261-.0115-.4903-.0337-1.63106-.224-2.95373-1.5809-3.21688-3.2999-.07903-.5147-.15421-1.037-.22633-1.5433-.05984-.4165-.11969-.833-.18183-1.2487-.13273-.8875-.05447-1.663.2409-2.3702.15728-.3774.3652-.7241.61838-1.0309.01611-.023.03375-.0453.05217-.066.06981-.0782.08055-.0905-.00307-.5584-.05294-.2976-.12582-.7057-.16495-1.2902l-.0023-.0214v-.0092c-.10818-1.4682.0468-2.7745.19717-4.0378.0445-.3751.09053-.7632.12966-1.1529.07058-.6911-.15881-1.1475-.58001-1.7036-1.62112-2.1416-3.25835-4.3269-4.84111-6.4401-.60226-.8031-1.20376-1.607-1.80602-2.4101C.412678 20.4533-.0998194 18.7812.0160297 16.9855.159498 14.7756 1.08092 12.9608 2.75498 11.5924c1.0411-.8514 2.10446-1.71129 3.13252-2.54277 1.55207-1.25566 3.15708-2.55427 4.7199-3.84828.9552-.79159 2.0139-1.40753 3.0382-2.0043l.3644-.21247c1.2881-.7517 2.6208-1.52949 4.1061-1.97668C20.5689.2677 26.6621 0 30.159 0c3.497 0 9.5902.2677 12.0422 1.00637 1.4853.44719 2.818 1.22497 4.1061 1.97668l.3644.21247c1.0243.596 2.0838 1.2127 3.0382 2.0043 1.562 1.29401 3.1663 2.59185 4.7176 3.84674 1.0288.83225 2.0922 1.69284 3.1348 2.54434 1.6741 1.3684 2.5955 3.1832 2.739 5.3931.1166 1.7956-.3967 3.4678-1.5245 4.9712-.6015.8016-1.2022 1.6031-1.8029 2.4055-1.5843 2.1147-3.2223 4.3008-4.8442 6.4439-.4212.5561-.6506 1.0133-.58 1.7029.0391.3904.0851.7785.1296 1.1536.1504 1.2649.3054 2.5727.1964 4.0431l-.0015.0161c-.0391.5899-.1128 1.0003-.1657 1.2994-.0836.4679-.0729.4802-.0031.5584.0192.0215.0368.0437.053.0668.2531.3068.461.6535.6183 1.0309.2954.7072.3737 1.4827.2409 2.3694-.0621.4157-.122.8322-.1818 1.2487-.0729.5055-.1481 1.0286-.2263 1.5433-.2632 1.719-1.5859 3.0759-3.217 3.2999-.1634.0222-.3283.0337-.4902.0337-.3552 0-.7081-.0552-1.0495-.1634-.043-.0138-.0837-.0207-.119-.0207-.0475 0-.122.0108-.2255.1059-.2532.2309-.4818.4479-.7005.6635-.1204.1189-.1795.2378-.1289.497.3261 1.663-.181 3.0705-1.4677 4.0715-.7802.6067-1.6755 1.1989-2.8179 1.8624-.5647.3283-1.1677.4948-1.7907.4948-.8708 0-1.704-.3268-2.4098-.9443-.1327-.1158-.211-.1296-.2578-.1296-.0453 0-.099.0138-.1596.0406-.3506.1565-.7089.3015-1.0549.4411-.2616.1058-.5324.2155-.7948.3275-.1611.0691-.2463.178-.2762.3544-.2946 1.7028-1.6925 3.0436-3.3244 3.1871-.303.0291-.6344.0414-1.0441.0414z" fill="#fff"/>
  <path d="M36.8565 2.92452c-.6167.24533-1.1496.64993-1.7724.89149-.5058.19626-.6167.64464-.3744 1.13152.1706.34195-.0061.70126-.3789.75033-.4348.05737-.8712.10266-1.3075.14795-.5034.05133-.7193.40611-.5268.87186.0626.15097.1298.30043.1804.45442.049.15022.0498.30345-.0868.41442-.148.12077-.3005.09058-.4514-.00604-.6228-.39932-1.2471-.79713-1.8706-1.19645-.4016-.25665-.8062-.50952-1.201-.77599-.1706-.11474-.323-.17286-.5185-.05737-.1903.11323-.2363.27628-.225.47934.0106.18795.0076.37667.0136.56538.006.20004-.0219.38498-.2461.45518-.1985.0619-.3351-.03774-.4491-.19173-.6862-.92772-1.4252-1.81845-1.94-2.86166-.2068-.4197-.3895-1.08473-.3895-1.08473s7.4527-.00075 11.1296 0c.1396 0 .277.00755.4144.01208zM11.8418 39.1437c.4703-.0197.5239-.0785.5586-.5503.1268-1.7483.2423-3.498.3918-5.2448.1056-1.2349.203-2.4698.2981-3.7055.1284-1.672.2967-3.341.4348-5.013.0936-1.1361.157-2.2744.2461-3.4105.117-1.4833.2453-2.9666.3706-4.4491.105-1.2319.2061-2.4638.3216-3.695.0966-1.0334.1351-2.0736.3601-3.09264.3857-1.74523 1.1375-3.27909 2.614-4.35778.6386-.4665 1.3709-.77976 2.1453-.96621.1842-.04454.3994-.077.536.15097.1276.21287-.0249.32761-.1314.45819-.8394 1.03114-1.6629 2.07057-2.2238 3.29117-.5638 1.22589-.9269 2.5046-1.0583 3.8483-.1751 1.7814-.0913 3.5485.2899 5.3005.0943.4341-.0996.7866-.3737 1.0976-.7586.8628-.7382.9994.0182 1.8841.979 1.1459 1.8599 2.3672 2.5785 3.6981.4665.8643.5669 1.6938.1027 2.6465-.8787 1.8033-1.7505 3.615-2.4737 5.4908-.2951.7654-.5148 1.5542-.5646 2.3672-.0468.7617.231 1.4576.7118 2.0525.7239.8967 1.6834 1.4983 2.6662 2.0637.2559.1472.4106-.1019.6069-.1841-.0649.4951 9.1926 9.5647 10.337 9.5315-.3812.2521-.5284.6016-.4665 1.0545.0249.1842.0037.3744.0045.5624 0 .7081.163.8915.8477.9526-.8432.1374-1.6826.0348-2.5016-.1291-4.1615-.8341-7.8369-2.6857-11.0828-5.4032-1.7384-1.4554-3.3002-3.0896-4.754-4.8265-.3518-.4213-.6447-.8893-.81-1.4229z" fill="#F7CEA2"/>
  <path d="M7.25539 13.798c-.06492-.8115.4665-1.6629 1.07944-2.4691.93451-1.2282 1.96107-2.37932 3.02777-3.49349.1743-.18192.3864-.50499.625-.34496.2476.16531.0151.48763-.0883.70729-1.1127 2.34916-1.91587 4.80766-2.60807 7.30546-.14644.5277-.27854 1.0591-.41517 1.589-.04831.1857-.09134.3631-.33365.3948-.24306.0317-.33666-.1276-.42272-.2982-.49744-.982-.83713-2.0079-.8643-3.3908zM53.3237 14.1022c-.003.8001-.1887 1.5633-.4929 2.2985-.1684.4054-.3239.4167-.6084.0891-.1193-.1374-.188-.2959-.2529-.4589-1.09-2.7424-2.1793-5.4856-3.2685-8.22872-.0355-.08908-.1314-.2023-.0295-.2725.1389-.09587.2703.02264.3601.11473.4469.45895.893.91942 1.3195 1.39724.8016.89828 1.595 1.80565 2.2744 2.80425.5367.7881.6974 1.3414.6982 2.2563zM37.3873 21.782c.2423.4937.4786.9896.7148 1.4863.1419.2974.0483.6144-.234.816-.2883.2053-.5616.1864-.8084-.0702-.077-.08-.1548-.1684-.2031-.2672-.7865-1.595-1.5225-3.2112-1.9203-4.9557-.4197-1.838-.3563-3.6338.5269-5.3458.1034-.2001.2166-.3971.3464-.5813.231-.3268.5639-.4084.847-.2272.3495.2234.4703.6001.2551.9413-.4408.7005-.7163 1.4539-.8424 2.2714-.0634.4144-.046.828-.0309 1.2394.0822 2.2276.7684 3.5101 1.3489 4.693z" fill="#9E6743"/>
  <path d="M41.309 15.8321c.3065-.1555.3269-.3903.1691-.6802-.4144-.7601-.6122-1.6199.456-1.1722.6295.2642 1.1896.8031 1.3881 1.3406.191.5178.1857 1.1111.0876 1.6622-.0543.3019-.1948.4846-.4937.5948-.668.2476-1.3783.3744-2.0109.7277-.3895.2174-.4348.3351-.1638.6846.5571.7209.431 1.4788-.3631 1.9347-.856.4914-1.7648.585-2.6978.4182-.3201-.0574-.6266-.1842-.884-.3842-.1374-.1064-.2604-.2287-.3721-.382-.3586-.4944-.733-1.056-.9557-1.6403-.1494-.3925-.123-.6318.2325-.8643.2793-.1834 5.3504-2.109 5.6078-2.2396z" fill="#020101"/>
  <path d="M40.0054 38.8739c-.1623-1.3172-.0324-1.3104-.3374-2.605-.16-.6817-.4144-1.8464-.6122-2.3839-.6197-1.6916-1.7565-4.4468-2.494-6.0969-.4001-.8953-.9036-1.8404-1.3693-2.7024-.7073-1.3082-1.7098-2.3144-3.2844-2.7371-.5156-.1381-1.0409-.1978-1.5588-.1834-.5178-.0136-1.0432.0453-1.5587.1834-1.5747.422-2.5771 1.4289-3.2844 2.7371-.4665.862-.97 1.8071-1.3693 2.7024-.7375 1.6501-1.8743 4.4053-2.4941 6.0969-.1977.5375-.4521 1.7022-.6121 2.3839-.3043 1.2946-.1752 1.2878-.3375 2.605-.0973.7926-.3457 2.0804-.2785 2.879.0694.8228.8032 2.2789 1.5339 2.6639.5767.3042 4.0241.3691 4.6016.6854.7125.3902 2.4132 1.1436 3.7991 1.4554 1.386-.3118 3.0874-1.0644 3.7992-1.4554.5775-.3171 4.0249-.3812 4.6016-.6854.73-.385 1.4644-1.8411 1.5339-2.6639.0672-.7994-.1812-2.0864-.2786-2.879z" fill="#9E6743"/>
  <path d="M38.6278 32.7567s.8341 3.3749 1.1082 5.9943c.083.7941.1456 1.6863.0785 2.485-.0695.8227-.6115 1.4115-1.3414 1.7965-.5767.3042-1.2516.3012-1.9075.2234-1.2629-.1494-2.1484-.9194-2.9991-1.7505-.517-.505-1.0432-1.0017-1.5625-1.5044-.3042-.2936-.4605-.6386-.4552-1.0726.0151-1.1821.0264-2.2888-.0045-3.4701-.0136-.5156.2249-.9043.6401-1.133.9149-.505 1.709-1.1527 2.3264-1.9846.7496-1.0092.416-2.762-.7186-3.1688-.3985-.1427-.816-.2205-1.2379-.2242-.7353-.0068-1.4705-.0114-2.2057-.0136-.7352.0022-1.4705.0068-2.2057.0136-.4212.0037-.8394.0815-1.238.2242-1.1338.4061-1.4682 2.1596-.7186 3.1688.6175.8319 1.4116 1.4796 2.3265 1.9846.4151.2287.6529.6174.6401 1.133-.0302 1.1813-.0196 2.2887-.0045 3.4701.0052.434-.151.779-.4552 1.0726-.5194.5027-1.0455.9987-1.5626 1.5044-.8507.8319-1.7361 1.6011-2.999 1.7505-.6567.0778-1.3308.0808-1.9075-.2234-.73-.385-1.272-.9738-1.3414-1.7965-.0672-.7987-.0045-1.6909.0785-2.485.274-2.6194 1.1081-5.9943 1.1081-5.9943-.9911 1.9649-2.959 6.8903-2.4563 10.2713.1193.8001.4024 1.5029 1.1323 1.9505.6884.5171 2.4714.73 3.4723.5337.5873-.1072.8832.1185 1.1565.5193.4884.7156 1.1398 1.2433 1.9098 1.6388.9647.4952 1.9935.6885 3.0639.6885 1.0704 0 2.0993-.1925 3.064-.6885.7699-.3955 1.4214-.9224 1.9098-1.6388.2732-.4008.5691-.6265 1.1564-.5193 1.0009.197 2.7839-.0166 3.4723-.5337.7307-.4476 1.013-1.1504 1.1323-1.9505.505-3.381-1.4636-8.3072-2.4548-10.2713zm-5.6327 12.4679c-.7299.6175-1.5927.853-2.6465.8688-1.0538-.0158-1.9166-.2506-2.6465-.8688-.4575-.3872-.4786-.7586-.0295-1.1368.7201-.6062 1.3625-1.2908 2.0547-1.9249.2416-.2212.4303-.3238.6213-.3095.191-.0143.3797.0883.6212.3095.6922.6341 1.3346 1.3187 2.0547 1.9249.4499.3789.4288.7496-.0294 1.1368z" fill="#020101"/>
  <path d="M23.9239 21.782c-.2423.4937-.4786.9896-.7149 1.4863-.1419.2974-.0483.6144.234.816.2884.2053.5616.1864.8085-.0702.077-.08.1547-.1684.203-.2672.7866-1.595 1.5226-3.2112 1.9204-4.9557.4197-1.838.3563-3.6338-.5269-5.3458-.1034-.2001-.2166-.3971-.3465-.5813-.231-.3268-.5639-.4084-.8469-.2272-.3495.2234-.4703.6001-.2552.9413.4409.7005.7164 1.4539.8425 2.2714.0634.4144.046.828.0309 1.2394-.0823 2.2276-.7684 3.5101-1.3489 4.693z" fill="#9E6743"/>
  <path d="M20.0036 15.8321c-.3065-.1555-.3269-.3903-.1691-.6802.4144-.7601.6122-1.6199-.456-1.1722-.6295.2642-1.1896.8031-1.3881 1.3406-.191.5178-.1857 1.1111-.0876 1.6622.0544.3019.1948.4846.4937.5948.668.2476 1.3783.3744 2.0109.7277.3895.2174.4348.3351.1638.6846-.5571.7209-.431 1.4788.3631 1.9347.856.4914 1.7649.585 2.6979.4182.32-.0574.6265-.1842.8839-.3842.1374-.1064.2604-.2287.3721-.382.3586-.4944.733-1.056.9557-1.6403.1494-.3925.123-.6318-.2325-.8643-.2793-.1834-5.3504-2.109-5.6078-2.2396z" fill="#020101"/>
  <path d="M30.1487 51.2442c-.5027-.0016-1.0462-.0642-1.7113-.1978-4.0815-.8183-7.8482-2.6548-11.196-5.4576-1.6199-1.3565-3.1855-2.9455-4.7858-4.8583-.4136-.4944-.6929-.9843-.8529-1.4968-.4333-.998-.5911-2.1023-.4809-3.3773.0604-.6982.1185-1.3972.1774-2.0962l.0981-1.1655.1321-1.555c.0718-.8439.1435-1.6879.2137-2.5318.0453-.5382.089-1.0756.1321-1.6139.0415-.5125.083-1.0243.126-1.5368.0476-.573.0966-1.1467.1457-1.7196.043-.5012.0861-1.0032.1276-1.5052.0483-.5752.0958-1.1504.1426-1.7256.037-.4499.074-.8998.1118-1.3497l.1124-1.3353c.0551-.6545.1103-1.3089.1646-1.9634.0302-.3653.0589-.7307.0868-1.096.0513-.662.1049-1.3467.1676-2.02.0407-.4348.0672-.8817.0928-1.3142.0574-.9564.1155-1.94528.3322-2.9047.5133-2.27589 1.9558-3.95544 4.2891-4.9911.8552-.3797 1.8358-.59558 2.9975-.6605.5782-.03171 1.1957-.0468 1.9415-.0468.5186 0 1.0447.00755 1.5527.01434l.5858.00755c.0468-.00151.1049-.00378.1623-.00604.1328-.00453.2657-.00981.3978-.00981h9.4764c.1329 0 .265.00453.3978.00981.0574.00226.1155.00377.1729.00604l.5752-.00755c.5088-.00679 1.0349-.01434 1.5527-.01434.7458 0 1.3625.01509 1.9415.0468 1.1617.06492 2.1423.2808 2.9975.6605 2.3333 1.03566 3.7766 2.71445 4.2891 4.9911.2159.95942.2748 1.9483.3322 2.9047.0256.4325.0521.8794.0928 1.3142.0634.6733.1163 1.358.1676 2.0207.0287.3654.0566.7307.0868 1.0953.0521.6311.1049 1.2614.1585 1.8917.0393.4688.0793.9383.1178 1.407l.1087 1.3165c.0483.5865.0966 1.1723.1457 1.7588.0422.5043.0853 1.0077.1283 1.512.0491.5707.0974 1.1413.1449 1.7128.043.5185.0853 1.0364.1276 1.555.043.5321.086 1.0635.1306 1.5957.0724.8621.1457 1.7241.2189 2.5862l.1276 1.5006.0988 1.1836c.0582.693.1163 1.3859.1759 2.0789.1102 1.2749-.0475 2.3793-.4808 3.3772-.1608.5126-.4401 1.0025-.853 1.4969-1.601 1.9135-3.1666 3.5025-4.7858 4.8582-3.3478 2.8036-7.1152 4.6394-11.1967 5.4576-.6651.1336-1.2086.1963-1.7113.1978h-.0015v-.0007z" fill="#fff"/>
  <path d="M36.1661 2.88275c-.6167.24533-1.1497.64993-1.7724.89224-.5058.19626-.6167.64465-.3744 1.13153.1706.34195-.0061.70126-.379.75032-.4348.05737-.8711.10266-1.3074.14795-.5035.05133-.7194.40612-.5269.87186.0627.15097.1299.30044.1804.45443.0491.15021.0499.30345-.0868.41441-.1479.12078-.3004.09058-.4514-.00604-.6227-.39932-1.247-.79713-1.8705-1.19644-.4016-.25665-.8062-.50953-1.201-.77599-.1706-.11474-.3231-.17287-.5186-.05737-.1902.11323-.2362.27627-.2249.47933.0106.18796.0075.37667.0136.56539.006.20003-.0219.38497-.2461.45517-.1985.0619-.3352-.03774-.4491-.19173-.6862-.92772-1.4252-1.81845-1.94-2.86165-.2069-.4197-.3895-1.08473-.3895-1.08473s7.4527-.00076 11.1295 0c.1397-.00151.2771.00679.4145.01132z" fill="#F7CEA2"/>
  <path d="M57.9444 21.8107c1.0213-1.361 1.5195-2.9001 1.41-4.591-.1298-2.0064-.9571-3.701-2.5295-4.9865-2.5718-2.1023-5.17-4.17213-7.7282-6.29176-.9752-.80845-2.06-1.42291-3.1424-2.05396-1.3127-.76618-2.6239-1.5467-4.0876-1.98754-2.2245-.66955-7.9682-.970741-11.7176-.970741-3.7494 0-9.4923.301191-11.7168.971501-1.4637.44083-2.7749 1.22211-4.0876 1.98753-1.0824.63181-2.1672 1.24551-3.1424 2.05396-2.55749 2.11963-5.15645 4.18871-7.72825 6.29171-1.57236 1.2855-2.39968 2.9802-2.529514 4.9858-.109454 1.6909.388754 3.23 1.410074 4.591 2.17851 2.904 4.34871 5.8132 6.5393 8.7073.45518.6016.74504 1.164.65975 1.9951-.16909 1.6901-.45669 3.2217-.31855 5.0515v.0007c.09737 1.4659.41592 1.7528.05284 2.1612-.01057.012-.01963.0241-.02718.0355-.22343.2672-.40988.5721-.55331.9171-.28005.6718-.31477 1.3731-.20683 2.0909.13739.9149.26194 1.8321.40159 2.7462.22796 1.4908 1.38288 2.676 2.77938 2.8677.4469.0611.8854.0264 1.3157-.1102.2952-.0936.5541-.0272.7813.1812.2378.2174.4725.4385.702.6657.2476.2446.3261.5239.2529.8983-.2876 1.4675.1464 2.682 1.2779 3.5622.8621.6703 1.7845 1.2538 2.722 1.7988 1.1905.6922 2.559.5254 3.6075-.391.2695-.2355.5488-.314.8937-.16.5986.2672 1.2116.4959 1.814.7541.2876.1238.4816.3517.5397.6876.2529 1.4599 1.4735 2.6398 2.8639 2.7628.5654.0498 1.1315.037 1.6977.0294.5661.0076 1.1323.0204 1.6976-.0294 1.3905-.1223 2.6111-1.3029 2.864-2.7628.0581-.3351.2521-.5638.5397-.6876.6016-.2582 1.2153-.4869 1.8139-.7541.3442-.154.6243-.0755.8937.16 1.0478.9171 2.4171 1.0832 3.6067.391.9376-.545 1.86-1.1285 2.722-1.7988 1.1316-.8802 1.5656-2.0947 1.278-3.5622-.0732-.3744.0053-.6537.2529-.8983.2295-.2272.4642-.4483.702-.6657.228-.2076.4861-.2748.7813-.1812.4302.1366.8696.1713 1.3157.1102 1.3965-.1917 2.5506-1.3769 2.7794-2.8677.1396-.9141.2649-1.8313.4016-2.7462.1071-.7178.0732-1.4191-.2069-2.0909-.1442-.3457-.3306-.6499-.5533-.9171-.0075-.0114-.0158-.0235-.0272-.0355-.363-.4084-.0453-.696.0529-2.1612v-.0007c.1374-1.8298-.1495-3.3614-.3186-5.0515-.0853-.8311.2053-1.3942.6598-1.9951 2.1906-2.8941 4.3615-5.8033 6.5393-8.7073zm-45.5397 23.159c-.3019.0106-.582.1389-.8137.4401-.117.1517-.3397.1426-.4484-.0197-.0468-.0694-.0672-.1502-.0853-.2324-.0649-.3058-.154-.6651-.2128-.9527-.0952-.465-.2424-1.0364-.2846-1.4055-.0317-.4929.4136-.5216.6967-.1646.0234.0332.0468.0657.0695.0989.0007.0015.0022.0038.0037.0045.0899.1284.1797.2567.2672.3843.1087.1585.2144.317.3201.474 0 .0008.0008.0008.0008.0015.0022.0038.0052.0076.0075.0113.0174.025.034.0506.0513.0755.0008.0008.0015.0023.0023.0031.0332.0483.0664.0966.0996.1441.225.3239.3586.4945.5503.7194.157.1842.0574.4084-.2242.4182zm4.3329 2.411c-.0453.1646-.1389.274-.3042.311-.2212.0491-.4114-.0249-.5767-.1706-.1887-.1668-.3714-.3412-.5495-.5216-.1389-.1404-.2333-.311-.2386-.5994-.0045-.1215.1004-.237.2544-.3155.151-.0777.2725-.0317.3918.0853.2898.2846.5857.5624.8839.8379.111.1019.1834.2114.1389.3729zm4.0558 4.3064c-.0415.0333-.089.0604-.1373.0823-.5239.2386-.7594.7368-.5994 1.3225.0596.2182-.1434.4137-.3095.382-.0981-.0189-.1819-.0649-.2642-.1185-.5533-.3616-1.1066-.7232-1.6592-1.0878-.1841-.1215-.3668-.2445-.5442-.3774-.1638-.1223-.1457-.351.0309-.4506.0506-.0287.1072-.0461.1631-.0604.5359-.1442.8439-.5888.8107-1.1738-.003-.0514-.0091-.1019-.0151-.1623.0008-.2242.2393-.3556.4469-.2204.6937.4506 1.3844.908 2.0721 1.3685.1773.1178.1743.3608.0052.4959zm5.6735 1.5158c-.1041.1147-.2181.2174-.3532.2884-.145.0762-.2929.0898-.4469.0264-.5692-.2348-1.1436-.4545-1.706-.7066-.2612-.117-.4378-.3427-.4544-.5216-.0204-.4597.2295-.6597.502-.548.5971.2431 1.1994.4703 1.8116.6665.1706.0544.3435.1004.5103.1653.2801.1095.3404.4054.1366.6296zm5.1285 3.1945c.1253.1208.0506.3873-.1245.4643-.0702.0309-.1442.0468-.2235.046-.3661-.0015-.7322-.0015-1.0983-.0015-.3661 0-.7322 0-1.0983.0015-.0793 0-.154-.0151-.2234-.046-.1744-.077-.2491-.3435-.1246-.4643.4114-.3978.4597-1.0877-.0355-1.5368-.0921-.0838-.1004-.1767-.0687-.2884.0453-.16.1638-.2483.3548-.2491.3956-.0023.7911-.0008 1.1867-.0008H30.1582c.3955 0 .7911-.0015 1.1866.0008.191.0008.3103.0891.3548.2491.0317.1117.0234.2046-.0687.2884-.4952.4499-.4469 1.1398-.0355 1.5368zm5.1972-4.1079c-.0159.1789-.1933.4046-.4544.5216-.5616.2521-1.1368.4718-1.706.7066-.154.0634-.3019.0498-.4469-.0264-.1359-.071-.2491-.1737-.3532-.2884-.2039-.2242-.1435-.5201.1366-.6296.1668-.0649.3397-.1109.5103-.1653.6121-.1962 1.2145-.4234 1.8124-.6665.2725-.1117.5216.0883.5012.548zm6.2268-.3993c-.1766.1321-.3601.2559-.5443.3774-.5518.3646-1.1051.7262-1.6584 1.0878-.0815.0536-.166.0996-.2642.1185-.1668.0317-.3691-.1638-.3095-.382.1593-.585-.0755-1.0839-.5993-1.3225-.0483-.0219-.0959-.049-.1374-.0823-.1691-.1351-.1721-.3774.0045-.4959.6884-.4605 1.3784-.9179 2.0721-1.3685.2076-.1352.4461-.0031.4469.2204-.0053.0604-.0121.1109-.0151.1623-.0325.585.2747 1.0296.8107 1.1738.0559.0151.1125.0324.163.0604.1759.0996.194.3283.031.4506zm1.9717-4.8915c-.1774.1797-.3609.3548-.5496.5216-.1653.1457-.3547.2197-.5767.1706-.1653-.0362-.2589-.1464-.3042-.311-.0445-.1607.028-.2709.1382-.3729.2974-.2755.5933-.5533.8839-.8378.1193-.117.2408-.1631.3918-.0853.154.0792.2589.194.2543.3155-.0037.2883-.0981.4589-.2377.5993zm-2.0978-1.6063c-3.2459 2.7175-6.9212 4.5691-11.0827 5.4033-.5466.1094-1.1021.1917-1.6615.1932-.5593-.0015-1.1149-.083-1.6614-.1932-4.1615-.8349-7.8369-2.6858-11.0828-5.4033-1.7384-1.4561-3.3002-3.0896-4.7541-4.8265-.3517-.4197-.6446-.8885-.8099-1.4222-.4575-1.0454-.5632-2.1407-.4665-3.2662.0936-1.087.1834-2.1748.2747-3.2625.1148-1.3625.2318-2.7243.3458-4.0868.0875-1.05.1706-2.1008.2581-3.1508.0898-1.0749.1834-2.149.2733-3.2239.086-1.0251.1691-2.0502.2544-3.0753.0913-1.0999.1857-2.1997.2762-3.2995.0853-1.0379.157-2.0766.2544-3.113.1314-1.3965.111-2.81563.4197-4.18644.5224-2.31892 2.0087-3.86561 4.1434-4.81296.9202-.40837 1.8977-.58275 2.9077-.6386 1.3557-.07549 2.7084-.04077 4.0634-.02491.188-.00529.3759-.0151.5631-.0151h9.4765c.1879 0 .3759.00981.5631.0151 1.3542-.01586 2.7077-.05058 4.0626.02491 1.01.05585 1.9876.23023 2.9077.6386 2.1355.9481 3.6211 2.49404 4.1434 4.81296.3088 1.37081.2891 2.78994.4197 4.18644.0974 1.0364.1691 2.0751.2544 3.113.0906 1.0998.1849 2.1996.2763 3.2995.0853 1.0251.1683 2.0502.2544 3.0753.0898 1.0749.1842 2.149.2732 3.2239.0876 1.05.1706 2.1008.2582 3.1508.114 1.3625.231 2.7243.3457 4.0868.0921 1.0877.1812 2.1747.2748 3.2625.0966 1.1255-.0091 2.2208-.4665 3.2662-.1646.5337-.4582 1.0017-.81 1.4222-1.4478 1.7369-3.0096 3.3704-4.7488 4.8265zm6.8458-2.5929c-.0423.3684-.1895.9405-.2846 1.4055-.0589.2876-.1479.6469-.2128.9527-.0174.0822-.0385.163-.0853.2324-.1087.1623-.3322.1714-.4484.0197-.2325-.302-.5118-.4295-.8138-.4401-.2815-.0098-.3812-.234-.2234-.4182.1917-.2249.3253-.3955.5503-.7194.0332-.0475.0664-.0958.0996-.1441.0008-.0008.0015-.0023.0023-.0031.0174-.0249.034-.0505.0513-.0755.0023-.0037.0053-.0075.0076-.0113 0-.0007.0007-.0007.0007-.0015.1057-.1562.2114-.3155.3201-.474.0876-.1284.1774-.2567.2672-.3843.0008-.0015.0023-.003.003-.0045.0234-.0332.0468-.0657.0695-.0989.283-.357.7284-.3283.6967.1646z" fill="#000"/>
  <path d="M11.8418 39.1437c.4703-.0197.5239-.0785.5586-.5503.1268-1.7483.2423-3.498.3918-5.2448.1056-1.2349.203-2.4698.2981-3.7055.1284-1.672.2967-3.341.4348-5.013.0936-1.1361.157-2.2744.2461-3.4105.117-1.4833.2453-2.9666.3706-4.4491.105-1.2319.2061-2.4638.3216-3.695.0966-1.0334.1351-2.0736.3601-3.09264.3857-1.74523 1.1375-3.27909 2.614-4.35778.6386-.4665 1.3716-.77976 2.1453-.96621.1842-.04454.3994-.077.536.15097.1276.21287-.0249.32761-.1314.45819-.8394 1.03114-1.6629 2.07057-2.2238 3.29117-.5638 1.22589-.9269 2.5046-1.059 3.8483-.1752 1.7814-.0914 3.5485.2898 5.3005.0944.4341-.0996.7866-.3736 1.0976-.7586.8628-.7383.9994.0181 1.8841.979 1.1459 1.86 2.3672 2.5786 3.6981.4665.8643.5669 1.6938.1026 2.6465-.8786 1.8033-1.7505 3.615-2.4736 5.4908-.2952.7654-.5148 1.5542-.5646 2.3672-.0468.7617.2309 1.4576.7118 2.0525.7239.8967 1.6833 1.4983 2.6661 2.0637.2559.1472.4107-.1019.6069-.1841-.0649.4951 9.1927 9.5647 10.337 9.5315-.3812.2521-.5284.6016-.4665 1.0545.0249.1842.0038.3744.0045.5624 0 .7081.1631.8915.8477.9526-.8431.1374-1.6825.0348-2.5015-.1291-4.1616-.8348-7.8369-2.6857-11.0828-5.4032-1.7385-1.4554-3.3002-3.0896-4.7541-4.8265-.351-.4205-.6446-.8893-.8092-1.4229z" fill="#F7CEA2"/>
  <path d="M7.25441 13.798c-.06492-.8115.4665-1.6637 1.07944-2.4691.93451-1.2282 1.96115-2.37932 3.02775-3.49349.1743-.18192.3865-.50499.625-.34496.2476.16531.0151.48763-.0883.70729-1.1127 2.34916-1.91584 4.80766-2.6088 7.30546-.14644.5277-.27854 1.0591-.41517 1.589-.04831.1857-.09134.3631-.33365.3948-.24306.0317-.33666-.1276-.42272-.2982-.49669-.982-.83638-2.0071-.86355-3.3908zM53.3237 14.1022c-.003.8001-.1887 1.5641-.4929 2.2985-.1684.4054-.3239.4167-.6084.0891-.1193-.1374-.188-.2959-.2529-.4589-1.09-2.7424-2.1793-5.4856-3.2685-8.22872-.0355-.08908-.1314-.2023-.0295-.2725.1389-.09587.2703.02264.3601.11473.4469.45895.893.91942 1.3195 1.39724.8016.89828 1.595 1.80565 2.2744 2.80425.5367.7881.6982 1.3414.6982 2.2563zM37.3883 21.782c.2423.4937.4785.9896.7148 1.4863.1419.2974.0483.6144-.234.816-.2884.2053-.5616.1864-.8084-.0702-.077-.08-.1548-.1684-.2031-.2672-.7866-1.595-1.5225-3.2112-1.9204-4.9557-.4197-1.838-.3562-3.6346.5269-5.3458.1034-.2001.2167-.3971.3465-.5813.231-.3268.5639-.4084.847-.2272.3495.2234.4702.6001.2551.9413-.4408.7005-.7164 1.4539-.8424 2.2714-.0634.4144-.0461.828-.031 1.2394.0823 2.2284.7685 3.5101 1.349 4.693z" fill="#9E6743"/>
  <path d="M41.6216 16.19c.3163-.1343.3525-.3668.2151-.6673-.3615-.7865-.4997-1.6576.5352-1.1383.61.3065 1.1323.8825 1.2931 1.432.1555.5291.1095 1.1217-.0264 1.6637-.0747.2974-.2272.4703-.5337.5601-.6839.2015-1.401.28-2.0562.5888-.4031.1902-.4567.3042-.2099.6718.5073.7571.3291 1.5044-.4936 1.9053-.8878.4317-1.8011.4627-2.7205.2332-.3156-.0785-.613-.2265-.8553-.4431-.1298-.1155-.2446-.2461-.345-.4069-.3238-.5178-.6589-1.1036-.8416-1.7022-.1223-.4015-.0793-.6386.2914-.8469.2913-.1623 5.4817-1.7377 5.7474-1.8502z" fill="#020101"/>
  <path d="M40.0054 38.8739c-.1623-1.3172-.0324-1.3104-.3374-2.605-.16-.6817-.4144-1.8464-.6122-2.3839-.6197-1.6916-1.7565-4.4468-2.494-6.0969-.4001-.8953-.9036-1.8404-1.3693-2.7024-.7073-1.3082-1.7098-2.3144-3.2844-2.7371-.5156-.1381-1.0409-.1978-1.5588-.1834-.5178-.0136-1.0432.0453-1.5587.1834-1.5747.422-2.5771 1.4289-3.2844 2.7371-.4665.862-.97 1.8071-1.3693 2.7024-.7375 1.6501-1.8743 4.4053-2.4941 6.0969-.1977.5375-.4521 1.7022-.6121 2.3839-.3043 1.2946-.1752 1.2878-.3375 2.605-.0973.7926-.3457 2.0804-.2785 2.879.0694.8228.8032 2.2789 1.5339 2.6639.5767.3042 4.0241.3691 4.6016.6854.7125.3902 2.4132 1.1436 3.7991 1.4554 1.386-.3118 3.0874-1.0644 3.7992-1.4554.5775-.3171 4.0249-.3812 4.6016-.6854.73-.385 1.4644-1.8411 1.5339-2.6639.0672-.7986-.1812-2.0857-.2786-2.879z" fill="#9E6743"/>
  <path d="M38.6288 32.7569s.8341 3.3749 1.1081 5.9943c.0831.7941.1457 1.6863.0785 2.4857-.0694.8228-.6114 1.4116-1.3413 1.7966-.5767.3042-1.2516.3012-1.9076.2234-1.2628-.1494-2.1483-.9194-2.999-1.7505-.5171-.505-1.0432-1.0017-1.5625-1.5044-.3043-.2937-.4605-.6386-.4552-1.0727.0151-1.1821.0264-2.2894-.0046-3.47-.0135-.5156.225-.9043.6402-1.1331.9148-.505 1.709-1.1526 2.3264-1.9845.7496-1.0092.416-2.7628-.7186-3.1689-.3986-.1426-.816-.2204-1.238-.2242-.7352-.0067-1.4704-.0113-2.2056-.0135-.7353.0022-1.4705.0068-2.2057.0135-.4212.0038-.8394.0816-1.238.2242-1.1338.4061-1.4682 2.1597-.7186 3.1689.6175.8319 1.4116 1.4795 2.3265 1.9845.4151.2288.6529.6175.6401 1.1331-.0302 1.1813-.0197 2.2887-.0046 3.47.0053.4341-.1509.779-.4551 1.0727-.5194.5027-1.0455.9987-1.5626 1.5044-.8507.8319-1.7362 1.6011-2.999 1.7505-.6568.0778-1.3308.0808-1.9075-.2234-.73-.385-1.2727-.9738-1.3414-1.7966-.0672-.7994-.0046-1.6908.0785-2.4857.274-2.6194 1.1081-5.9943 1.1081-5.9943-.9911 1.9649-2.959 6.8903-2.4563 10.2713.1193.8001.4023 1.5029 1.1323 1.9505.6884.5171 2.4714.73 3.4723.5337.5873-.1072.8832.1185 1.1565.5194.4884.7156 1.1398 1.2432 1.9097 1.6388.9648.4959 1.9936.6884 3.064.6884s2.0993-.1925 3.064-.6884c.7699-.3956 1.4213-.9225 1.9097-1.6388.2733-.4009.5692-.6266 1.1565-.5194 1.0009.197 2.7839-.0166 3.4723-.5337.7307-.4476 1.013-1.1504 1.1323-1.9505.5042-3.381-1.4644-8.3064-2.4548-10.2713zm-5.6327 12.4687c-.73.6175-1.5928.853-2.6465.8688-1.0538-.0158-1.9166-.2506-2.6466-.8688-.4574-.3873-.4785-.7586-.0294-1.1368.7201-.6062 1.3625-1.2908 2.0547-1.9249.2416-.2212.4303-.3238.6213-.3095.1909-.0143.3796.0883.6212.3095.6922.6341 1.3346 1.3187 2.0547 1.9249.4492.3782.428.7495-.0294 1.1368z" fill="#020101"/>
  <path d="M23.9385 21.782c-.2423.4937-.4786.9896-.7148 1.4863-.1419.2974-.0483.6144.234.816.2883.2053.5616.1864.8084-.0702.077-.08.1548-.1684.2031-.2672.7865-1.595 1.5225-3.2112 1.9203-4.9557.4197-1.838.3563-3.6346-.5269-5.3458-.1034-.2001-.2166-.3971-.3464-.5813-.231-.3268-.5639-.4084-.847-.2272-.3495.2234-.4703.6001-.2551.9413.4408.7005.7163 1.4539.8424 2.2714.0634.4144.046.828.031 1.2394-.0823 2.2284-.7685 3.5101-1.349 4.693z" fill="#9E6743"/>
  <path d="M19.7046 16.19c-.3163-.1343-.3525-.3668-.2151-.6673.3615-.7865.4997-1.6576-.5352-1.1383-.61.3065-1.1323.8825-1.2931 1.432-.1555.5291-.1095 1.1217.0264 1.6637.0747.2974.2272.4703.5337.5601.6839.2015 1.401.28 2.0562.5888.4031.1902.4567.3042.2099.6718-.5073.7571-.3291 1.5044.4936 1.9053.8878.4317 1.8011.4627 2.7205.2332.3156-.0785.613-.2265.8553-.4431.1298-.1155.2446-.2461.345-.4069.3238-.5178.659-1.1036.8416-1.7022.1223-.4015.0793-.6386-.2913-.8469-.2914-.1623-5.4826-1.7377-5.7475-1.8502z" fill="#020101"/>
</svg>
