<svg width="69" height="69" fill="none" xmlns="http://www.w3.org/2000/svg"><path d="M34.198 58.887c-.588-.002-1.225-.074-2.003-.233-4.777-.958-9.185-3.108-13.105-6.386-1.895-1.588-3.728-3.447-5.601-5.686-.485-.578-.812-1.153-1-1.75-.506-1.168-.691-2.46-.561-3.954.07-.817.139-1.636.206-2.453l.116-1.364.153-1.82a1137.27 1137.27 0 00.404-4.852l.146-1.8.17-2.012c.051-.586.102-1.175.15-1.76a2831.933 2831.933 0 00.298-3.6l.132-1.565c.065-.766.13-1.532.192-2.298.036-.428.07-.855.1-1.283.06-.776.123-1.576.198-2.363.048-.51.079-1.033.108-1.538.067-1.119.134-2.277.389-3.398.6-2.664 2.289-4.629 5.02-5.842 1.002-.444 2.147-.696 3.509-.773.677-.038 1.4-.055 2.272-.055.608 0 1.223.01 1.819.017l.684.01.19-.008c.156-.005.31-.012.466-.012h11.092c.156 0 .31.005.466.012l.201.007.673-.01c.596-.007 1.21-.016 1.818-.016.872 0 1.595.017 2.272.055 1.36.074 2.508.329 3.51.773 2.73 1.213 4.419 3.178 5.02 5.842.252 1.124.321 2.28.389 3.398.03.507.06 1.028.108 1.538.074.787.137 1.59.197 2.365l.1 1.283c.06.737.123 1.477.185 2.215.046.547.092 1.097.14 1.647l.127 1.542c.058.687.113 1.372.17 2.059l.152 1.77c.058.668.115 1.335.17 2.006.05.607.101 1.213.15 1.82.05.622.1 1.244.153 1.869.084 1.009.17 2.017.257 3.026l.149 1.756.115 1.386c.067.812.135 1.621.207 2.433.13 1.492-.055 2.784-.562 3.954-.188.6-.514 1.172-1 1.75-1.873 2.24-3.706 4.1-5.6 5.686-3.918 3.28-8.328 5.43-13.105 6.386-.78.152-1.417.224-2.006.226z" fill="#fff"/><path d="M41.241 2.287c-.72.285-1.345.761-2.075 1.044-.593.231-.723.755-.437 1.324.2.399-.008.821-.445.879-.509.067-1.018.12-1.53.173-.588.06-.843.475-.617 1.02.072.176.151.351.212.534.057.175.057.355-.101.485-.173.142-.353.106-.529-.007-.73-.469-1.46-.934-2.188-1.4-.47-.3-.944-.596-1.405-.908-.2-.135-.38-.202-.608-.068-.223.132-.276.325-.264.56.012.221.01.442.017.66.007.234-.027.452-.288.534-.233.072-.392-.043-.526-.224-.803-1.085-1.67-2.128-2.27-3.348-.243-.49-.457-1.27-.457-1.27h13.026c.163-.003.324.007.485.012z" fill="#F7CEA2"/><path d="M66.73 24.44c1.196-1.593 1.777-3.395 1.65-5.374-.151-2.349-1.122-4.33-2.962-5.836-3.01-2.462-6.05-4.883-9.045-7.365-1.141-.946-2.412-1.664-3.677-2.404-1.538-.896-3.07-1.81-4.785-2.327C45.31.354 38.587 0 34.199 0c-4.389 0-11.11.353-13.715 1.136-1.713.517-3.248 1.43-4.785 2.328-1.268.74-2.536 1.457-3.677 2.404-2.993 2.479-6.034 4.902-9.043 7.362C1.139 14.736.17 16.72.017 19.066c-.127 1.98.454 3.78 1.65 5.373 2.549 3.399 5.09 6.805 7.653 10.191.533.704.872 1.362.773 2.335-.197 1.98-.533 3.771-.372 5.911.115 1.715.488 2.051.062 2.53-.012.014-.024.028-.03.04-.263.313-.481.67-.65 1.074-.328.785-.367 1.607-.242 2.447.16 1.072.307 2.145.47 3.214.267 1.744 1.62 3.132 3.253 3.356a3.446 3.446 0 001.54-.13c.345-.11.648-.031.915.211.278.255.552.514.821.779.29.285.382.612.296 1.052-.337 1.717.17 3.139 1.496 4.17 1.009.785 2.087 1.467 3.185 2.106 1.393.81 2.995.614 4.222-.46.315-.275.644-.367 1.045-.187.701.313 1.42.58 2.123.882.337.144.565.413.632.805.296 1.707 1.725 3.088 3.353 3.233.66.057 1.324.043 1.987.036.663.01 1.325.024 1.986-.036 1.626-.145 3.055-1.526 3.353-3.233.067-.392.295-.66.632-.805.703-.303 1.422-.57 2.123-.882.404-.18.73-.088 1.045.188 1.227 1.074 2.83 1.268 4.222.459 1.098-.64 2.176-1.321 3.185-2.107 1.324-1.03 1.833-2.452 1.497-4.17-.087-.44.007-.766.295-1.051.269-.267.543-.524.822-.779.266-.242.569-.322.915-.211.504.16 1.018.202 1.54.13 1.633-.224 2.985-1.612 3.251-3.356.164-1.071.31-2.142.471-3.214.125-.84.087-1.66-.242-2.447a4.14 4.14 0 00-.649-1.074.461.461 0 00-.031-.04c-.425-.479-.053-.815.062-2.53.161-2.142-.175-3.934-.372-5.91-.1-.974.24-1.632.773-2.336 2.563-3.386 5.104-6.792 7.653-10.19zM13.432 51.544c-.353.012-.68.163-.954.516a.32.32 0 01-.526-.024.723.723 0 01-.098-.271c-.077-.358-.18-.779-.25-1.115-.11-.545-.284-1.213-.334-1.645-.038-.577.485-.61.814-.192l.082.115c.002.002.002.005.005.005.106.149.209.3.312.449.127.185.25.372.375.555v.002c.002.005.005.01.01.012l.06.09.002.002.115.168c.264.38.42.578.644.84.187.219.072.48-.257.493zm5.07 2.82c-.053.192-.163.321-.355.362-.26.058-.48-.029-.675-.2a12.783 12.783 0 01-.644-.61c-.163-.165-.274-.364-.279-.7-.004-.142.118-.277.298-.37.178-.092.32-.037.46.1.338.334.686.658 1.034.98.128.123.212.25.161.438zm4.746 5.041a.831.831 0 01-.16.096c-.613.279-.89.862-.702 1.547.07.255-.168.485-.363.447a.862.862 0 01-.31-.14c-.648-.422-1.294-.848-1.94-1.273-.216-.141-.43-.285-.637-.442-.192-.141-.17-.41.036-.528.058-.034.125-.053.19-.072.627-.168.987-.69.949-1.374-.003-.06-.012-.12-.017-.19 0-.261.281-.415.524-.257.811.529 1.618 1.064 2.425 1.602.207.142.205.425.005.584zm6.642 1.775a1.496 1.496 0 01-.414.336.591.591 0 01-.523.031c-.665-.273-1.338-.53-1.996-.826-.305-.137-.512-.4-.531-.61-.024-.538.27-.77.589-.641.698.286 1.405.55 2.12.78.2.065.401.118.598.195.322.125.394.473.157.735zm6.002 3.737c.146.142.06.454-.147.543a.64.64 0 01-.261.055c-.428-.002-.858-.002-1.285-.002-.428 0-.858 0-1.285.002a.64.64 0 01-.262-.055c-.204-.089-.293-.4-.147-.543a1.216 1.216 0 00-.04-1.799c-.109-.098-.118-.206-.082-.338.053-.188.192-.29.415-.29.464-.003.925 0 1.389 0h.019c.463 0 .924-.003 1.388 0 .223 0 .363.102.416.29.036.132.026.24-.082.338a1.22 1.22 0 00-.036 1.8zm6.081-4.808c-.019.209-.225.473-.53.61-.658.295-1.331.552-1.996.826a.591.591 0 01-.524-.031 1.589 1.589 0 01-.413-.336c-.238-.262-.168-.61.159-.738.194-.077.398-.13.598-.194.715-.23 1.421-.495 2.12-.78.32-.128.61.105.587.643zm7.288-.466c-.207.154-.42.3-.637.442l-1.94 1.273a.905.905 0 01-.31.14c-.195.037-.433-.193-.363-.448.187-.684-.089-1.268-.701-1.547a.834.834 0 01-.161-.096c-.197-.158-.202-.441.005-.58.804-.541 1.614-1.075 2.425-1.603.243-.158.522-.005.524.257-.007.07-.014.13-.017.19-.038.684.322 1.206.95 1.374a.755.755 0 01.189.072.307.307 0 01.036.526zm2.308-5.724a12.87 12.87 0 01-.644.61c-.192.17-.415.257-.675.2-.194-.044-.302-.171-.355-.363-.053-.188.034-.317.16-.437.35-.322.695-.649 1.036-.98.14-.137.281-.19.459-.101.18.091.303.226.298.37-.005.336-.116.535-.279.701zm-2.455-1.88c-3.8 3.18-8.099 5.346-12.97 6.324-.639.127-1.29.223-1.945.225-.656-.002-1.305-.098-1.946-.225-4.871-.978-9.173-3.145-12.97-6.325-2.035-1.703-3.862-3.614-5.565-5.649-.411-.492-.755-1.04-.947-1.664-.535-1.225-.658-2.505-.545-3.822.11-1.273.214-2.546.322-3.819.134-1.595.271-3.19.406-4.782.103-1.23.2-2.46.303-3.687.105-1.258.213-2.515.319-3.773.1-1.199.197-2.4.298-3.6.108-1.288.218-2.575.324-3.863.1-1.215.185-2.43.298-3.644.154-1.635.13-3.295.492-4.9.613-2.714 2.352-4.525 4.85-5.632 1.076-.478 2.221-.682 3.403-.747 1.585-.089 3.17-.048 4.756-.029.22-.007.44-.019.66-.019H39.75c.221 0 .44.012.66.02 1.586-.02 3.169-.06 4.757.028 1.181.065 2.327.27 3.403.747 2.498 1.11 4.237 2.918 4.85 5.633.36 1.604.338 3.264.492 4.9.113 1.212.197 2.428.298 3.643.105 1.288.216 2.575.324 3.862.1 1.199.197 2.4.298 3.6.105 1.26.216 2.516.32 3.774.103 1.23.199 2.46.302 3.687.132 1.595.269 3.19.406 4.782.108 1.273.211 2.546.322 3.82.113 1.316-.01 2.598-.545 3.82-.193.625-.536 1.173-.947 1.665-1.712 2.032-3.54 3.944-5.575 5.65zm8.013-3.037c-.048.433-.22 1.1-.334 1.646-.07.336-.173.756-.25 1.114a.815.815 0 01-.098.272c-.127.19-.39.199-.526.024-.271-.353-.598-.502-.954-.517-.329-.012-.446-.274-.262-.49.224-.264.382-.463.644-.84l.115-.169c0-.002.003-.002.003-.002l.06-.089c.002-.005.005-.01.01-.012v-.002c.125-.183.247-.37.374-.555.104-.149.207-.3.313-.45.002-.002.002-.004.004-.004l.082-.115c.334-.42.855-.387.819.19z" fill="#000"/><path d="M12.771 44.726c.55-.024.613-.092.654-.644.149-2.047.283-4.093.459-6.14.122-1.445.237-2.891.348-4.337.151-1.958.348-3.91.509-5.868.11-1.33.183-2.661.288-3.992.137-1.736.286-3.47.435-5.207.122-1.441.243-2.885.377-4.324.113-1.21.159-2.425.42-3.62.452-2.043 1.331-3.837 3.06-5.098.747-.546 1.605-.913 2.51-1.132.217-.053.466-.091.627.178.15.25-.028.384-.153.536C21.322 6.283 20.359 7.5 19.7 8.93a13.952 13.952 0 00-1.24 4.504c-.204 2.085-.107 4.153.34 6.204.11.507-.116.92-.438 1.285-.889 1.009-.865 1.17.022 2.205 1.145 1.34 2.176 2.77 3.016 4.328.546 1.011.663 1.982.12 3.096-1.027 2.111-2.048 4.23-2.894 6.425-.346.896-.603 1.818-.66 2.772-.055.891.271 1.705.833 2.402.848 1.05 1.97 1.753 3.12 2.416.3.173.48-.12.711-.216-.077.579 10.758 11.195 12.099 11.154-.447.296-.618.704-.546 1.235.03.216.005.44.005.658 0 .829.192 1.042.992 1.114-.987.161-1.97.041-2.928-.15-4.87-.978-9.173-3.145-12.97-6.325-2.034-1.703-3.862-3.615-5.565-5.65-.41-.49-.754-1.037-.947-1.661z" fill="#F7CEA2"/><path d="M7.403 15.062c-.075-.95.545-1.945 1.263-2.89 1.093-1.436 2.294-2.783 3.543-4.087.204-.214.451-.591.732-.404.291.195.017.572-.103.829-1.302 2.75-2.243 5.625-3.053 8.55-.17.618-.326 1.24-.485 1.86-.055.218-.106.425-.391.46-.286.037-.394-.148-.495-.347-.581-1.153-.98-2.352-1.011-3.97zM61.32 15.418c-.004.937-.22 1.83-.576 2.69-.197.473-.38.487-.71.103a1.76 1.76 0 01-.296-.538c-1.276-3.209-2.551-6.42-3.826-9.631-.041-.104-.154-.238-.034-.32.163-.113.317.026.423.135a52.254 52.254 0 011.544 1.635c.94 1.052 1.866 2.114 2.661 3.281.625.925.815 1.574.815 2.645zM42.67 24.406c.283.576.56 1.157.835 1.739.166.348.058.72-.273.953-.337.24-.658.219-.947-.081a1.297 1.297 0 01-.237-.313c-.92-1.866-1.783-3.759-2.249-5.8-.492-2.152-.415-4.254.618-6.257a5.4 5.4 0 01.406-.68c.271-.382.66-.478.992-.267.408.262.55.702.297 1.103a6.869 6.869 0 00-.984 2.659c-.075.485-.056.968-.036 1.45.096 2.609.898 4.11 1.578 5.494z" fill="#9E6743"/><path d="M47.626 17.86c.37-.156.413-.43.252-.78-.423-.92-.586-1.94.627-1.333.713.358 1.325 1.033 1.513 1.676.182.62.127 1.312-.031 1.948-.087.349-.267.55-.625.656-.8.235-1.64.327-2.407.69-.473.223-.533.355-.245.787.594.886.385 1.76-.578 2.23-1.038.503-2.11.542-3.185.273a2.33 2.33 0 01-1.002-.519 2.18 2.18 0 01-.404-.476c-.379-.605-.77-1.292-.984-1.99-.144-.471-.094-.748.34-.993.342-.192 6.419-2.037 6.729-2.169z" fill="#020101"/><path d="M45.732 44.409c-.19-1.542-.038-1.533-.394-3.048-.187-.798-.485-2.162-.716-2.791-.725-1.98-2.056-5.205-2.918-7.136-.468-1.048-1.057-2.155-1.602-3.164-.829-1.53-2-2.71-3.843-3.204a6.477 6.477 0 00-1.825-.216 6.327 6.327 0 00-1.826.216c-1.842.495-3.017 1.672-3.843 3.204-.545 1.01-1.134 2.116-1.602 3.164-.862 1.93-2.193 5.156-2.918 7.136-.23.629-.529 1.99-.716 2.79-.355 1.516-.204 1.507-.394 3.049-.115.927-.406 2.435-.327 3.37.082.963.94 2.666 1.795 3.117.675.356 4.71.432 5.385.802.833.457 2.824 1.338 4.446 1.703 1.62-.365 3.612-1.246 4.446-1.703.674-.37 4.71-.446 5.384-.802.856-.451 1.715-2.154 1.795-3.117.079-.935-.212-2.44-.327-3.37z" fill="#9E6743"/><path d="M44.12 37.251s.976 3.949 1.298 7.016c.096.93.17 1.974.09 2.909-.08.963-.715 1.652-1.57 2.101-.675.356-1.465.353-2.234.262-1.477-.175-2.514-1.076-3.509-2.049-.605-.59-1.22-1.172-1.828-1.76-.355-.344-.54-.747-.533-1.256.02-1.384.031-2.679-.005-4.062-.014-.603.262-1.06.75-1.326 1.07-.59 2-1.35 2.723-2.323.877-1.181.488-3.233-.84-3.708a4.394 4.394 0 00-1.449-.262c-.86-.007-1.722-.014-2.582-.017-.86.003-1.722.007-2.582.017a4.456 4.456 0 00-1.448.262c-1.328.475-1.717 2.527-.84 3.708.722.973 1.652 1.732 2.723 2.323.485.269.764.723.75 1.326a99.448 99.448 0 00-.005 4.062c.007.509-.178.912-.534 1.256-.607.588-1.224 1.17-1.827 1.76-.997.973-2.032 1.874-3.51 2.05-.768.09-1.558.095-2.233-.263-.855-.451-1.49-1.14-1.571-2.101-.08-.935-.005-1.98.091-2.91.322-3.066 1.297-7.015 1.297-7.015-1.16 2.299-3.463 8.066-2.875 12.022.14.936.47 1.758 1.326 2.281.804.605 2.892.855 4.064.625.687-.125 1.033.14 1.355.607.571.839 1.333 1.456 2.236 1.917 1.129.579 2.334.805 3.586.805 1.254 0 2.457-.226 3.586-.805.9-.463 1.664-1.08 2.236-1.917.32-.468.665-.732 1.355-.607 1.172.23 3.257-.02 4.064-.625.855-.523 1.186-1.345 1.326-2.282.583-3.958-1.72-9.722-2.88-12.021zm-6.593 14.592c-.855.722-1.864.999-3.098 1.015-1.232-.019-2.243-.293-3.099-1.015-.535-.455-.56-.89-.033-1.331.843-.709 1.595-1.511 2.404-2.253.284-.26.505-.38.728-.363.223-.017.444.103.728.363.81.742 1.561 1.544 2.404 2.253.528.444.502.879-.034 1.33z" fill="#020101"/><path d="M26.93 24.406c-.283.576-.56 1.157-.836 1.739-.166.348-.057.72.274.953.336.24.658.219.946-.081.092-.094.18-.197.238-.313.92-1.866 1.782-3.759 2.248-5.8.493-2.152.416-4.254-.617-6.257a5.4 5.4 0 00-.406-.68c-.271-.382-.66-.478-.992-.267-.408.262-.55.702-.298 1.103.517.819.839 1.703.985 2.659.075.485.055.968.036 1.45-.096 2.609-.898 4.11-1.578 5.494z" fill="#9E6743"/><path d="M21.975 17.86c-.37-.156-.413-.43-.252-.78.423-.92.586-1.94-.627-1.333-.713.358-1.326 1.033-1.513 1.676-.182.62-.127 1.312.031 1.948.087.349.267.55.625.656.8.235 1.64.327 2.406.69.474.223.534.355.245.787-.593.886-.384 1.76.58 2.23 1.037.503 2.108.542 3.184.273a2.33 2.33 0 001.002-.519c.151-.134.286-.288.403-.476.38-.605.771-1.292.985-1.99.144-.471.094-.748-.34-.993-.344-.192-6.419-2.037-6.729-2.169z" fill="#020101"/></svg>