<svg viewBox="0 0 24 24" fill="none" xmlns="http://www.w3.org/2000/svg">
  <path d="M10.9998 4.07005v-2.02c-2.01.2-3.84 1-5.32 2.21l1.42 1.43c1.11001-.86 2.44-1.44 3.9-1.62zm-5.31 3.03l-1.43-1.42c-1.21 1.48-2.01 3.31-2.21 5.31995h2.02c.18-1.45995.76-2.78995 1.62-3.89995zM4.0698 13h-2.02c.2 2.01 1 3.84 2.21 5.32l1.43-1.43c-.86-1.1-1.44-2.43-1.62-3.89zm1.61 6.74c1.48 1.2101 3.32 2.01 5.32 2.2101V19.93c-1.46-.18-2.78999-.76-3.9-1.62l-1.42 1.43zm16.32-7.74c0 5.16-3.92 9.42-8.95 9.9501V19.93c3.92-.52 6.95-3.88 6.95-7.93 0-4.04995-3.03-7.40995-6.95-7.92995v-2.02c5.03.53 8.95 4.79 8.95 9.94995z" fill="#000" opacity=".5"/>
</svg>
