<svg viewBox="0 0 451 288" fill="none" xmlns="http://www.w3.org/2000/svg">
  <path d="M355.797 13.4176c-.271-1.5222-1.277-2.3679-2.461-2.6639-.676-1.82661-1.657-3.36573-3.061-4.2114-4.592-2.75688-12.415-.78647-17.024.79493-7.23 2.47782-20.685 10.87537-28.33 5.63217-1.099-1.6237-2.367-3.13744-3.847-4.5328-1.328-1.25159-2.926-1.3277-4.22-.72727-5.599-2.29177-10.935-2.66387-15.459 2.21565-3.949 4.26222-6.935 9.89432-9.395 15.11212-3.764 7.9916-6.267 16.4398-7.468 25.108-.008.0507-.017.1015-.017.1522-.372 2.7231-.617 5.4715-.727 8.2368-2.258-2.3594-4.431-4.8034-6.495-7.3658-.194-.2452-.414-.4397-.651-.6089-.051-.1353-.093-.2706-.152-.3974-3.247-6.7146-6.486-13.4293-9.717-20.1439 0-.0676.009-.1353 0-.2029-.237-2.2918-1.226-4.0085-2.655-5.0487-1.04-1.1839-2.969-1.6152-4.44-1.0909-.879.093-1.793.3383-2.715.7442-5.995 2.6723-11.653 7.019-17.251 10.4609-11.087 6.8077-22.174 13.6069-33.26 20.4145-4.931-4.499-10.529-8.0085-16.584-10.4609-4.118-1.7675-8.414-3.1121-12.837-3.9916-.99-.1945-1.861-.1099-2.58.1691-.372-.0423-.744-.093-1.116-.1184-2.41-.2114-4.651 2.7062-3.797 4.981 1.497 3.9662 4.491 5.8944 8.499 6.9768 3.619.981 7.34 1.7167 11.061 2.4355-.321.2791-.592.5159-.727.6089-2.275 1.6068-4.55 3.2051-6.824 4.8119-1.244.8795-1.819 2.1903-1.861 3.4926-2.562.8288-4.795 2.3341-6.148 4.9726-1.285 2.5116.575 6.055 3.112 6.4609-2.647 1.463-2.123 5.4799.169 7.2305 4.905 3.7463 11.239 3.0444 16.702.964 6.723-2.5624 13.032-6.4355 19.4-9.759 3.197-1.6744 6.833-3.1459 9.438-5.7252 2.274-2.2579 3.501-5.2178 5.107-7.9324 3.299-5.5645 8.085-10.0973 13.759-13.2009 1.886-1.0317 6.419-3.7971 8.677-3.2558.195.0422.389.1268.575.2198 1.869-.8203 4.203-.5243 5.235 1.666.406.8626.829 1.7083 1.26 2.537.676 1.1078 1.607 2.5032 2.165 3.3912 1.53 2.427 3.061 4.8626 4.279 7.4672 1.48 3.1713 2.571 6.8161 1.607 9.8944.042.6258.05 1.2685.042 1.9196 2.123 1.7168 6.19 4.1861 2.342 6.2073-2.858 1.4968-5.606 2.5962-8.126 4.7019-4.914 4.1015-8.203 9.7759-11.273 15.2982-.981 1.759-.347 3.9156.981 5.2176-2.275 3.053-4.711 5.962-7.696 8.372-8.693 7.002-22.173 9.726-33.066 10.613-6.291.516-12.177-1.429-18.393-1.386-5.928.033-10.588 2.875-15.442 5.928-3.89 2.444-11.763 6.799-13.446-.009-.677-2.723-.939-4.135-2.825-6.275-.778-.879-1.378-1.75-1.733-2.655.296-1.894.583-3.789.879-5.691.635-4.127-4.879-7.282-7.23-3.045-.068.119-.127.245-.186.372-.837-.143-1.742-.042-2.596.423-6.876 3.738-11.129 11.281-10.089 19.138.499 3.771 2.139 7.323 4.668 10.173 1.251 1.421 2.765 2.681 4.389 3.653.871.525 4.837 1.81 4.955 2.757.06.482-3.577 2.613-4.093 3.045-1.556 1.302-2.858 2.824-4.042 4.465-2.486 3.433-4.127 7.366-5.666 11.29-4.017 10.241-7.738 20.592-11.332 30.993-.626 1.819.711 3.358 2.3 3.865.406 2.19 2.292 4.068 5.032 3.205 9.801-3.103 17.971-9.015 26.216-14.968 9.099-6.58 18.672-11.882 28.905-16.491 21.302-9.59 42.943-18.393 63.831-28.896 18.867-9.489 39.823-19.747 52.077-37.641 11.475-16.7529 16.16-38.2329 36.693-46.4951 4.854-1.9535 9.945-3.8478 13.649-7.721 1.683-1.759 2.774-4.499 4.939-5.6914 2.156-1.1839 4.956-1.1839 7.239-2.1141 11.425-4.6512 10.681-18.2242 8.871-28.2708z" fill="#fff"/>
  <path fill-rule="evenodd" clip-rule="evenodd" d="M401.82 59.4224c-3.526 1.353-7.044 2.3256-10.588 3.1205-.287-.0254-.592-.0677-.913-.1184-1.751-1.7336-3.45-3.5095-5.083-5.3615-2.3-2.6132-6.663-.4736-6.68 2.7653 0 .8457.127 1.6406.346 2.3932-.245.5582-.363 1.1586-.329 1.759-2.115 1.6998-5.895 1.277-8.482 1.1332-2.072-.1184-3.586 1.6745-3.84 3.5603-.051.0169-.11.0338-.161.0507-2.08.6089-4.126.5836-6.131.2115-.38-.2284-.761-.4482-1.124-.6512-.381-.4651-.914-.8288-1.59-.9979l-1.336-.3383c-.711-.1775-1.379-.1099-1.979.1353-.398-.1522-.804-.3129-1.201-.4651-4.66-1.8097-6.681 5.6914-2.064 7.4842 2.622 1.0148 5.32 2.0127 8.094 2.5455.304.2706.592.5497.871.8457-.466 2.4778-.322 5.1332 0 7.6194.49 3.8817 6.562 5.6576 7.518 1.0148.135-.6511.245-1.2938.346-1.9365 1.235-1.3616 1.717-2.7992 1.658-4.2368 1.505.5496 3.298.1522 4.473-1.6237.652-.9895 1.303-1.9704 1.954-2.9599.44-.6681.592-1.4038.524-2.1226.009 0 .009 0 .017-.0085 4.415-1.2093 9.116-1.2854 13.607-2.1649 1.15-.2283 2.292-.482 3.433-.7611 4.077-.296 7.992-1.945 11.688-3.7801 3.881-1.9197 1.133-8.7104-3.028-7.1121z" fill="#F7CEA2"/>
  <path d="M134.612 60.8514c2.892-4.0338-3.061-7.4673-6.325-4.8795-2.808 2.2156-5.413 4.778-6.605 8.2368-.541 1.5899-.601 3.2981-1.133 4.8795-.364 1.074-.897 2.0212-1.683 2.8415.067-.186.118-.4313.152-.7526.321-3.8478-5.877-5.6407-7.484-2.0297-.863 1.9535-2.478 3.2982-4.203 4.5667-1.675-.5751-3.594-.203-4.423 1.7082-.127.296-.245.6174-.355.9472-.009-.0085-.026-.0085-.034-.0169-.22.6257-.397 1.3192-.533 2.0634-2.5537 3.6956-3.1372 9.463-1.716 13.666.642 1.9028 1.767 3.129 3.154 3.907-.389 2.3002.939 4.913 3.772 4.634 2.071-.203 3.89-.617 5.632-1.4458.617.1438 1.302.1184 2.055-.1607 2.892-1.074 5.522-2.4271 7.983-4.1099.135-.0677.279-.1269.414-.1861 2.199-.7442 4.364-1.6406 6.495-2.6892 4.008-1.9789 1.192-8.8457-3.078-7.2982-.558.203-1.108.4144-1.666.6258-.99-.389-2.131-.3636-3.231.3552-1.285.8457-2.587 1.6237-3.907 2.351-1.158.296-2.325.5497-3.509.7357-.601.093-2.072.4059-3.442.5582-1.218-1.6406-1.497-4.9134-1.379-7.535 1.049-1.1754 2.402-2.1818 3.772-3.2051 2.241 2.3595 5.801 3.0022 9.539.406.271-.1861.533-.3975.795-.6089 2.284 1.1078 5.954-.0592 6.317-3.4588.271-2.5624-.507-4.6174.474-7.1882.947-2.5116 2.588-4.7358 4.152-6.9176z" fill="#EA5743"/>
  <path fill-rule="evenodd" clip-rule="evenodd" d="M131.652 58.5848c.313-2.4271-1.869-3.8562-4.017-3.9324-.448-1.9957-1.183-3.8816-2.139-5.7759-1.877-3.7209-7.696-1.8605-7.67 2.0804.008 1.8689-.161 3.704.516 5.4715.321.8456.811 1.5306 1.429 2.038.211 3.3489-.381 6.7654.177 10.2242-.321.1099-.634.2198-.879.3382-1.421.6681-2.782 1.4377-4.076 2.3256-4.567 3.1375-8.804 7.1798-7.772 13.1248.617 3.5434 6.021 2.5624 6.097-.8287.076-3.3235 4.448-5.7337 7.045-7.1036 2.638-1.3954 5.733-1.9028 8.253-3.5265 2.174-1.3954 3.781-3.6871 4.093-6.258.339-2.8837-1.437-5.2431-1.057-8.1776z" fill="#FFF200"/>
  <path fill-rule="evenodd" clip-rule="evenodd" d="M272.752 83.7097c-1.835-2.9937-6.08-5.1417-8.829-7.2136-2.664-2.0042-5.277-4.1353-8.017-6.0719-1.125-2.055-2.232-4.1184-3.332-6.1818-3.864-7.2812-7.01-15.3489-11.89-22.0213-1.928-2.63-6.325-1.1755-5.463 2.3002 1.979 8.0424 6.224 15.8056 9.844 23.1968.473.964.972 1.9112 1.454 2.8583-.363 1.2178-.143 2.5793 1.015 3.6703.55.5158 1.116.9979 1.691 1.4883 2.673 4.9303 5.514 9.7591 8.55 14.4695.601.9387 1.463 1.5053 2.385 1.759.44.4397.998.8033 1.7 1.057.719.2537 1.463.406 2.207.4736 2.681.4144 5.404.1522 7.459-1.9197 2.004-1.9957 2.774-5.3361 1.226-7.8647z" fill="#F7CEA2"/>
  <path d="M439.104 73.5281c-17.361-2.1903-35.628-4.3045-52.431 1.9535-6.8 2.5285-13.184 6.2072-18.326 11.3742-1.996 2.0043-4.558 6.6977-7.839 5.0064-4.026-2.0804-3.442-8.3299-3.358-12.0846.093-4.2115-4.363-4.9895-6.824-2.8753-6.96.575-13.7-.0085-20.457-1.8774-2.74-.7611-5.142 1.3531-5.294 4.0338-.381 6.9176.913 13.5308 3.662 19.7972-2.436 1.5811-5.218 2.8751-6.681 3.8051-5.209 3.29-10.41 6.571-15.62 9.861-1.649 1.04-2.122 2.977-1.75 4.676-4.499 3.552-9.006 7.113-13.505 10.664-.871.685-1.252 1.573-1.294 2.487-6.563 3.349-14.427 5.141-20.643 7.433-12.592 4.626-24.947 9.987-37.083 15.713-12.262 5.784-24.203 12.11-36.025 18.723-11.121 6.224-25.041 12.998-37.447 6.114-1.962-1.091-3.814-.169-4.718 1.311-.533.025-1.083.144-1.641.397-6.055 2.681-11.476 6.689-15.687 11.814-4.381 5.336-6.985 12.093-11.907 16.973-7.721 7.67-22.292 6.605-28.8546-2.114-2.7822-3.704-8.778-1.675-7.6956 3.239 5.9197 26.833 13.1922 56.287 35.5942 74.385 1.691 1.361 4.305 1.835 5.945 0 11.019-12.355 27.772-17.472 42.69-23.442 17.37-6.96 34.748-13.92 52.118-20.871 33.294-13.337 67.375-25.548 99.705-41.117 8.44-4.068 16.727-8.482 24.693-13.412 4.043-2.503 7.899-5.252 11.865-7.873 2.14-1.413 4.398-2.859 6.774-3.671.457.964 1.277 1.81 2.503 2.301 1.438.575 2.588 1.353 3.738 2.376 3.121 2.774 8 .101 7.011-4.076-.076-.313-.144-.617-.203-.922 5.141-2.765 9.353-7.214 13.251-11.865 6.952-8.296 13.709-16.761 20.06-25.53 12.693-17.54 23.467-36.5504 29.7-57.3792.871-2.9091-1.438-5.0064-4.026-5.3277z" fill="#EA5743"/>
  <path fill-rule="evenodd" clip-rule="evenodd" d="M335.559 45.5364c-9.116-1.4884-17.911 4.4228-25.564 8.7527-7.611 4.3044-14.825 9.4968-20.195 16.4736-5.066 6.5793-7.755 13.9451-8.161 22.2327-.186 3.8647.195 8.0926-1.167 11.7886-1.716 4.668-6.418 6.292-10.664 8.017-19.509 7.924-39.027 15.806-58.545 23.721-9.227 3.738-18.419 7.78-28.001 10.52-4.566 1.303-9.234 2.326-13.97 2.681-4.491.338-9.15.059-13.472 1.556-9.378 3.256-15.695 13.286-21.945 20.423-4.042 4.609-8.127 9.184-12.203 13.776-1.683 1.894-6.452 8.922-10.232 9.514-.567-.068-1.125-.144-1.683-.237-.254-.127-.491-.296-.727-.516-1.134-1.091-2.487-1.074-3.544-.499-.287-.084-.575-.177-.862-.27-6.03-3.544-12.102-7.003-18.2246-10.377-2.4694-1.877-4.8542-3.814-7.1375-5.683-1.6152-1.319-4.1522-1.218-5.7421-.084-2.4693.592-4.2537 3.374-2.723 6.055.4482.786.9048 1.573 1.37 2.359-.3383.448-.5836 1.015-.7104 1.725-1.7505 10.148-2.9768 20.356-3.6787 30.614-4.1438 3.103-10.647 3.577-15.3573 3.923-3.8309.288-4.9134 4.288-3.2221 6.639-2.5031 2.326-1.3615 7.848 2.6977 7.307.3721-.051.7358-.102 1.1079-.161v.008c.0253-.008.0507-.017.0676-.017.5835-.084 1.167-.169 1.7421-.262.7611.947 1.852 1.641 3.1121 1.725 3.1966.237 6.6216.364 9.8774-.169 1.556 2.241 5.3531 2.41 7.0613-.22 1.0233-1.581 1.869-3.23 2.5709-4.921 2.2579-2.673 3.3742-5.945 3.0698-9.277 2.4101-6.563 3.6786-13.455 3.797-20.364 3.7125 3.924 7.8648 7.332 12.5413 9.767 11.1966 5.835 22.1986 3.459 29.6326-6.74 3.695-5.065 6.604-10.241 11.814-13.987 5.209-3.746 11.239-6.114 17.378-7.848 14.03-3.966 28.203-5.666 41.599-11.805 14.089-6.453 27.619-14.36 41.226-21.827 1.345-.677 2.673-1.396 3.975-2.174 1.125-.668 1.725-1.598 1.92-2.57 5.006-1.311 10.224-2.174 14.968-3.696 7.839-2.52 15.112-6.469 21.497-11.577.778.862 1.936 1.412 3.078 1.421 11.493.101 13.996-11.375 17.497-19.848 3.915-9.455 15.552-10.013 23.459-14.6896 1.801-1.0656 2.655-3.6872 1.446-5.5223-2.808-4.2452-6.495-7.6279-11.205-9.6321-2.326-.9979-16.254-3.2897-12.837-7.7887 1.556-2.0465 5.327-3.3573 7.518-4.685 2.807-1.6998 5.615-3.408 8.431-5.0994 6.089-3.6787 12.195-7.3319 18.292-11.0022 2.74-1.6659 2.638-6.8583-.973-7.4503z" fill="#F7CEA2"/>
  <path d="M338.944 138.121c-5.218-3.747-12-4.508-18.191-5.286-5.708-1.666-10.19 3.273-12.397 8.051-2.74 5.937-2.681 12.719-3.857 19.044-1.099 5.92.626 13.074 3.84 18.165 3.019 4.778 7.881 5.819 13.099 3.958 5.666-2.021 10.334-5.218 13.396-10.452 3.272-5.607 5.285-12.119 6.554-18.444 1.048-5.286 2.621-11.4-2.444-15.036z" fill="#fff"/>
  <path d="M87.3059 207.71c.2029 16.034 3.9577 31.637 11.1374 45.98 3.4757 6.943 7.7207 13.454 12.5917 19.492 2.639 3.265 5.472 6.368 8.491 9.286 2.249 2.165 4.567 5.116 7.848 5.361.972.076 1.928-.592 2.418-1.387l.279-.456c.736-1.21.119-3.366-1.463-3.586-2.41-.338-5.691-4.651-7.357-6.342-2.486-2.512-4.837-5.151-7.053-7.907-4.541-5.675-8.431-11.891-11.662-18.394-6.4775-13.032-10.1984-27.518-10.7481-42.055-.1015-2.867-4.5159-2.892-4.482.008z" fill="#000"/>
  <path d="M128.142 285.081c30.216-13.556 59.654-28.897 89.734-42.782 30.089-13.886 60.39-27.316 90.944-40.136 17.277-7.247 34.731-14.064 52-21.319 3.231-1.353 1.954-6.673-1.488-5.396-30.986 11.501-61.413 24.804-91.671 38.089-30.571 13.421-60.854 27.459-90.867 42.089-17.057 8.313-34.208 16.584-50.656 26.047-2.241 1.294-.262 4.423 2.004 3.408z" fill="#000"/>
  <path d="M362.031 180.404c1.302-.981 2.655-1.878 4.076-2.673 1.412-.786 3.019-1.294 4.363-2.165 2.191-1.412.761-4.575-1.725-4.101-3.399.659-6.791 3.298-9.446 5.395-1.987 1.582.685 5.091 2.732 3.544z" fill="#000"/>
  <path d="M332.693 94.1454c.228-1.8181.44-3.1628.516-4.9471-.423.7442-.854 1.4884-1.277 2.2325 1.539-1.0655 12.947 18.2662 13.987 20.1942 3.856 7.146 7.163 14.58 10.461 21.996 3.214 7.222 6.419 14.461 10.055 21.489 4.305 8.313 9.286 16.685 7.983 26.402l3.028-3.028c-2.241.026-3.349-1.032-4.271-2.951-1.429-2.994-6.554-.88-5.404 2.275 1.548 4.253 5.125 6.765 9.675 6.74 1.184-.009 2.74-.931 2.926-2.224 1.547-11.197-3.73-20.626-8.736-30.25-5.057-9.7-9.26-19.806-13.861-29.725-4.448-9.607-9.361-19.096-15.771-27.5524-2.241-2.9598-5.108-7.9239-9.108-8.6681-5.446-1.0148-4.821 4.4736-4.457 8.0254.288 2.7484 3.916 2.6977 4.254-.0085zM326.318 91.1855c.016-2.4017-.043-4.7949-.102-7.1966-.051-2.0127.135-4.1692-.389-6.1311-.397-1.4715-2.072-2.4863-3.56-2.0212-.085.0254-.169.0508-.254.0761-.778.2453-1.564.8795-1.725 1.7252-.186.981.059 1.5222.254 2.444-.186-.9218-.068.2368-.06.5412.017.8034.085 1.5983.127 2.4017.136 2.7231.262 5.4377.491 8.1523.27 3.3066 5.192 3.4165 5.218.0084z" fill="#000"/>
  <path d="M323.315 79.2278c4.719-.2791 9.429-.3383 14.157-.2368 4.313.093 8.854.6765 13.108-.0507 2.232-.3806 2.055-3.8394 0-4.3468-4.161-1.0233-8.855-.5666-13.108-.3552-4.728.2453-9.446.6343-14.157 1.0317-2.495.2199-2.554 4.1016 0 3.9578zM381.582 77.3335c10.926.2368 21.844.1945 32.77.1945 5.319 0 10.638.0085 15.966-.0169 5.201-.0254 10.639.3975 15.78-.4313 2.334-.3721 2.368-4.4059 0-4.7442-5.158-.7526-10.562-.2622-15.78-.2114-5.319.0507-10.638.1353-15.966.2114-10.926.1607-21.844.2791-32.77.6681-2.782.1015-2.791 4.2706 0 4.3298z" fill="#000"/>
  <path d="M380.795 182.493c5.26-9.108 11.89-16.812 18.689-24.787 6.977-8.178 13.624-16.634 19.958-25.319 12.372-16.981 26.292-35.7046 31.451-56.4066.938-3.7548-4.559-5.2263-5.759-1.5899-6.943 20.9473-19.129 39.2565-32.026 57.0155-6.452 8.879-13.269 17.471-20.347 25.852-6.114 7.239-12.516 14.604-16.203 23.442-1.032 2.469 2.96 4.017 4.237 1.793zM78.5188 176.065c7.3404 8.026 15.4419 15.037 24.4902 21.075 1.607 1.074 3.764-.034 4.271-1.734 5.708-19.154 11.839-39.011 27.493-52.525 2.9-2.511-1.328-6.706-4.212-4.211-16.16 13.996-23.501 35.129-28.888 55.188 1.421-.575 2.85-1.158 4.271-1.733-8.7528-5.506-16.8881-11.958-24.1525-19.324-2.1057-2.139-5.2769 1.074-3.2727 3.264z" fill="#000"/>
  <path d="M78.5351 199.398c7.4673 6.444 15.8648 12.592 25.0229 16.363 4.246 1.742 8.939 2.766 13.345.981 3.772-1.522 6.901-4.938 9.945-7.535 14.859-12.719 29.463-26.511 37.7-44.592 1.649-3.611-3.721-6.774-5.361-3.137-7.087 15.687-19.079 28.017-31.814 39.29-2.986 2.646-6.013 5.251-9.058 7.83-4.338 3.688-8.363 3.476-13.471 1.354-8.5329-3.544-15.8141-9.218-23.5689-14.115-2.1396-1.344-4.7104 1.869-2.74 3.561zM80.7689 171.803c-3.4419-1.184-7.7548-2.824-10.9346-.177-3.3319 2.774-2.9936 8.905-3.5264 12.761-.778 5.666-1.5476 11.323-2.3171 16.989-.1945 1.463-1.8774 16.474-3.1544 16.034-3.8055-1.319-5.5053 4.804-1.666 6.047 10.072 3.273 9.7337-13.184 10.4694-18.842.7358-5.666 1.4715-11.34 2.1988-17.006.3467-2.698.6765-5.404 1.0402-8.102.6173-4.532 4.0507-2.477 7.2304-2.875 2.6893-.33 3.4335-3.882.6597-4.829z" fill="#000"/>
  <path d="M66.2815 211.245c-7.0444-1.268-18.3003-.947-19.6449 7.975-.5751 3.848-.1438 9.311.964 13.015 1.1671 3.915 6.0297 4.71 9.5054 5.209 4.8541.694 9.8182.237 14.6554-.389 3.2643-.423 6.7823-1.234 8.6343-4.27 2.3341-3.814 1.3616-9.675 1.8013-13.929.5328-5.167.9725-11.509 4.9472-15.298 2.8161-2.689-1.4546-6.951-4.2622-4.262-4.3467 4.161-5.4292 9.886-6.2157 15.62-.4651 3.408-.778 6.824-.9217 10.266-.0592 1.404.2537 3.636-.7104 4.778-.8964 1.066-3.2981 1.099-4.5413 1.252-3.1881.397-6.444.685-9.6575.592-1.6914-.051-4.9726.076-6.4356-.99-1.5814-1.15-1.5222-3.467-1.7082-5.167-.3383-3.07-1.3531-7.01 2.2325-8.38 3.2812-1.252 7.2559-.939 10.6978-1.066 2.6977-.11 3.5856-4.431.6596-4.956zM134.697 140.632c-4.22-.059-9.023.194-12.82-1.971-4.99-2.841-4.854-9.589-3.84-14.537 1.108-5.395 4.508-8.313 9.201-10.723 5.083-2.613 10.571-5.268 16.381-5.336-.507-1.869-1.015-3.746-1.522-5.615-7.146 4.685-10.453 12.693-8.914 21.057.423 2.3 3.544 2.816 5.049 1.336 2.842-2.807 6.03-4.592 9.894-5.59-1.15-1.496-2.3-2.993-3.45-4.482-2.833 4.592-9.877 7.95-7.18 14.504 2.038 4.947 7.713 4.921 12.212 4.262 3.975-.584 2.309-6.706-1.675-6.064-.693.11-2.959.533-3.636.136-2.478-1.438.025-3.561.973-4.55 1.657-1.725 3.315-3.138 4.575-5.201 1.403-2.309-.914-5.15-3.451-4.482-4.837 1.277-8.998 3.679-12.541 7.214 1.683.448 3.366.887 5.049 1.336-1.057-5.59 1.403-11.146 6.131-14.25 2.41-1.581 1.598-5.657-1.522-5.615-7.392.093-14.757 3.442-21.091 7.07-6.47 3.712-9.844 9.015-10.74 16.406-.762 6.308.169 13.378 5.708 17.353 5.15 3.695 11.881 3.332 17.852 2.503 2.748-.406 1.987-4.727-.643-4.761z" fill="#000"/>
  <path d="M152.439 132.277c2.934-3.214 5.311-7.688 9.082-9.996 4.762-2.909 11.383-1.193 16.593-.668 10.765 1.091 22.046 1.581 32.355-2.309 8.49-3.205 15.712-8.939 19.476-17.328 2.046-4.5664 3.289-9.4205 6.097-13.6235 2.934-4.389 6.985-7.6787 11.67-10.055 3.535-1.7844.423-7.0867-3.103-5.3108-8.575 4.3214-14.444 11.4334-17.878 20.3045-2.106 5.4377-3.966 10.4698-8.423 14.4438-3.721 3.315-8.347 5.523-13.116 6.859-11.467 3.222-23.121.938-34.732.321-4.406-.237-8.575.482-12.135 3.23-3.806 2.935-6.064 7.299-9.066 10.96-1.793 2.191 1.201 5.337 3.18 3.172z" fill="#000"/>
  <path d="M253.192 78.1034c-2.469-7.8563-5.522-15.4842-9.234-22.8415-2.022-4.0001-6.402-16.1946-12.567-13.6576-2.25.9218-2.816 4.4651 0 5.167 2.418.6005 4.296 5.4377 5.446 7.4588 1.48 2.6047 2.884 5.2432 4.211 7.9324 2.774 5.6153 5.184 11.3912 7.29 17.2855 1.074 3.0106 5.844 1.7844 4.854-1.3446zM245.057 25.4431c4.787 14.4779 11.138 29.5477 22.503 40.144 4.711 4.389 12.068 6.8161 12.956 13.9113.896 7.129-3.087 13.0318-4.617 19.6787-.922 4.0339 4.769 5.5309 6.139 1.6909 4.288-12.025 9.632-26.5451-3.645-34.9257-15.332-9.683-21.53-26.7148-28.642-42.4781-1.193-2.6554-5.607-.7695-4.694 1.9789z" fill="#000"/>
  <path d="M245.166 20.3098c-9.581-.389-17.7 3.9662-25.125 9.6491-8.203 6.2833-15.822 13.0656-25.285 17.4716-9.582 4.4566-20.169 5.8097-30.563 6.9598-3.78.4229-6.325.9556-8.752 4.0762-3.544 4.5497-6.876 9.2939-10.301 13.9366-.905 1.2262-.279 3.4926 1.083 4.1269 5.421 2.5285 11.247 2.0296 15.881-1.8774 3.104-2.6131 5.421-4.7865 9.7-5.0064 3.679-.186 7.307.6343 10.859 1.463 3.746.8795 5.353-4.8879 1.59-5.7759-5.852-1.3784-12.288-2.7146-18.157-.6934-5.979 2.0549-9.751 9.9958-16.837 6.6808.363 1.3784.719 2.7484 1.082 4.1268 3.002-4.0592 5.945-8.1776 9.015-12.1861 1.996-2.6047 3.137-2.6216 6.334-2.9768 2.14-.2367 4.279-.4904 6.419-.778 8.854-1.1839 17.539-3.0613 25.674-6.8668 7.89-3.6956 14.647-9.0233 21.286-14.5794 7.484-6.2579 15.839-12.8203 26.08-12.9387 3.121-.0423 3.104-4.685.017-4.8119z" fill="#000"/>
  <path d="M180.845 68.3779c-4.576 3.9239-11.096.5159-16.406 1.3362-4.719.7273-8.694 3.611-12.271 6.6047-2.63 2.2072-4.347 5.7675-1.311 8.499 3.256 2.926 10.021 2.5201 14.097 3.0698 5.353.7272 9.531.4904 14.267-2.2495 5.235-3.0191 10.359-5.9028 16.068-7.9747 4.642-1.6829 9.742-2.8753 13.37-6.4609 3.247-3.2051 4.837-7.5434 4.896-12.0508.051-3.9155-6.123-3.9239-6.089 0 .076 9.852-10.004 11.1797-17.26 14.1565-3.721 1.5307-7.34 3.2727-10.816 5.2939-1.683.9725-3.307 2.1649-5.091 2.9514-2.647 1.167-5.362.8795-8.152.5243-1.514-.1945-10.461-1.0233-10.554-1.3362.025.0931 3.797-2.6469 4.406-3.0444 2.072-1.3361 4.22-2.2917 6.706-2.4017 6.326-.2706 13.751 2.5962 17.793-4.0846 1.437-2.3678-1.717-4.4905-3.653-2.833z" fill="#000"/>
  <path d="M211.213 61.046c4.347-1.0148 7.206-6.0634 10.639-8.7019 4.82-3.704 10.326-6.351 16.372-7.1375 2.58-.3382 3.628-4.1268.66-4.8964-5.429-1.3953-11.687 1.9028-16.229 4.7019-2.325 1.4292-4.541 3.0867-6.579 4.8965-2.351 2.0888-4.186 4.8626-6.748 6.6808-2.199 1.556-.922 5.1078 1.885 4.4566zM187.365 51.532c-3.661-1.5898-7.027-3.3911-10.097-5.9788-2.444-2.0635-4.719-5.091-7.805-6.1988-3.569-1.2854-7.874 1.6575-10.977-.4482-2.461-1.666-4.169-3.315-7.442-2.8161-6.343.9556-7.67 8.0508-3.839 12.4314 2.148 2.4524 5.184 5.0148 8.456 5.7505 4.601 1.0317 8.542-1.8097 12.381 1.9958 2.173 2.148 6.385-.7949 4.397-3.3911-2.959-3.8563-6.731-4.9303-11.458-4.4483-2.039.2114-3.603.6343-5.607-.4228-.364-.1861-3.476-2.3763-3.645-3.0529.939-2.537 1.835-3.1881 2.689-1.9619.355.4228.753.8034 1.201 1.1332.77.5581 1.497.9387 2.461 1.1585 2.495.5751 4.846-.279 7.298-.3636 3.687-.1269 5.81 2.8584 8.482 4.9895 3.704 2.9513 7.577 5.3446 12.372 5.8266 2.165.2114 3.155-3.3319 1.133-4.203zM153.893 74.3992c-8.296 1.5392-16.618 3.4165-25.083 3.6111-4.186.093-8.211-.7611-12.355-.9218-2.402-.093-4.854.3805-6.672 2.0634-3.721 3.425-2.14 8.9472 2.452 10.5709 6.03 2.1311 12.119-1.9789 16.744-5.3869 2.969-2.1819.153-7.1967-2.934-5.0233-1.116.7865-10.867 7.1882-11.315 4.4144-.186-1.1501 4.786-.1353 5.996-.0085 2.418.2537 4.845.3298 7.272.2706 9.252-.2198 18.343-2.3171 27.223-4.7695 3.145-.8626 1.801-5.4039-1.328-4.8204zM119.272 94.6103c1.446 0 1.446-2.2495 0-2.2495-1.446.0085-1.446 2.2495 0 2.2495z" fill="#000"/>
  <path d="M112.032 101.029c-8.786.99-10.452-10.2239-10.985-16.5579-.507-6.0889 5.091-14.4526 11.273-15.8817-1.091-1.4208-2.182-2.833-3.273-4.2538-4.44 6.2242 4.093 14.0551 9.844 8.6174 3.585-3.3827 2.824-8.2199 1.59-12.4905-.677-2.3595-1.59-4.8965-1.413-7.3912.271-3.7971 2.842-4.7442 6.224-5.5138-1.26-.9556-2.511-1.9196-3.771-2.8752-.161 3.9239.253 8.7273 3.898 11.0951 3.611 2.351 7.848.7865 10.427-2.2748 6.351-7.5349 1.362-19.0276-6.308-23.3236-1.015 1.7421-2.03 3.4757-3.045 5.2178 6.783 2.8837 10.301 9.8098 8.652 17.0318-1.506 6.5709-8.592 10.2918-8.736 17.1164-.026 1.2262.964 2.7569 2.266 2.9683 1.226-.0592 1.937.5666 2.131 1.8943.237 3.9493 6.419 3.9746 6.174 0-.246-3.9408-2.622-7.1798-6.664-7.8394.752.9894 1.505 1.9789 2.266 2.9683.051-2.5116 2.579-4.4144 4-6.241 1.286-1.6491 2.326-3.3912 3.163-5.3024 1.666-3.814 2.317-7.9747 1.759-12.1015-.998-7.3912-5.894-13.2094-12.668-16.0255-3.18-1.3277-5.277 3.8985-2.326 5.5222 3.763 2.0635 6.419 5.9366 6.165 10.3595-.101 1.759-1.86 6.7992-4.431 4.5497-1.193-1.0486-.795-4.2283-.736-5.6152.076-2.0127-1.962-3.2897-3.772-2.8753-5.412 1.2347-9.708 3.8224-10.469 9.7336-.33 2.5455.093 5.1502.693 7.628.364 1.4884.914 2.9345 1.277 4.4228.584 1.5053.601 3.0191.034 4.5244-1.59.5328-1.995.2452-1.209-.8626 1.539-2.1987-.998-4.778-3.273-4.2537-4.989 1.1501-8.211 4.8034-11.1964 8.7358-3.5772 4.7103-4.8373 8.8118-4.0846 14.7062 1.167 9.167 5.302 21.7925 17.133 19.0275 2.427-.567 1.962-4.736-.609-4.44z" fill="#000"/>
  <path d="M114.612 103.6c8.211-1.852 15.002-6.9007 19.349-14.0889 1.86-3.0782-3.028-5.9281-4.812-2.8161-3.476 6.0635-9.091 10.4018-15.797 12.3299-2.943.8457-1.709 5.2431 1.26 4.5751zM347.688 76.0564c.118-2.5793 2.241-6.63 4.803-7.4672 1.396-.4567 6.233.1014 7.696.6427 2.968 1.0993 2.621 6.334 2.892 9.167.152 1.6575.296 3.3235.406 4.981.051.7358.939 5.0487-1.725 2.2918-1.176-1.2178 0-5.8267-.178-7.5096-.161-1.5475-.6-2.7484-1.624-3.9492-2.401-2.833-6.554-4.5328-9.437-1.5307-1.844 1.9197-.017 5.3869 2.664 4.5751 1.387-.4229 2.165 1.1585 2.401 2.0211.271.9556-.11 2.5793-.11 3.5349 0 1.6914.119 3.3827.677 4.9895.998 2.8837 3.264 5.1924 6.402 5.5222 9.979 1.0571 6.655-13.6322 6.004-19.0699-.398-3.2812-.558-7.0275-3.4-9.2093-2.816-2.1649-7.239-1.759-10.588-1.9704-3.492-.2199-5.31.093-7.594 2.8414-2.486 2.9937-4.262 6.1565-4.152 10.1396.085 3.1375 4.719 3.129 4.863 0z" fill="#000"/>
  <path d="M364.49 65.4941c3.983-.0592 7.036 2.4609 8.102 6.2664.465 1.6491.71 3.7294-.178 5.2686-.837 1.4461-2.596 1.6067-3.696 2.9006-.499.5835-.828 1.6068-.296 2.3087.119.1522.229.3044.347.4566.82 1.0825 1.768 1.4884 3.104 1.2686 6.571-1.091 7.577-8.8711 5.767-14.1481-1.936-5.6237-7.103-9.6237-13.15-9.0994-3.019.2537-3.121 4.8288 0 4.778z" fill="#000"/>
  <path d="M377.175 67.0161c2.19-2.7822 2.943-5.3277 3.687-8.7357.296-1.3785-.499-.9641.271-.389.795.6004 1.581 1.167 2.3 1.8689 1.201 1.1755 2.19 2.5624 3.408 3.7125 2.114 1.9958 4.71 3.2896 7.679 2.8583 4.118-.5919 6.562-3.8393 9.598-6.2833.254-.2029 1.801-1.649 2.021-1.6913.254-.6427.254-.4736 0 .4905-.101.7103-.27 1.4038-.533 2.0719-.82 2.241-2.376 4.0845-4.262 5.5053-3.095 2.334-8.431 4.9218-12.38 4.7273-3.29-.1607-5.785-2.7992-9.108-.6427-2.884 1.8774-3.324 5.2008-3.231 8.3806.119 3.89 6.199 3.8985 6.055 0-.152-3.8394 3.29-1.7421 5.438-1.5899 2.199.1522 4.313-.5159 6.376-1.1924 4.009-1.3108 7.983-2.9429 11.256-5.666 3.654-3.036 11.535-16.888 2.419-17.9705-4.245-.5074-7.544 2.833-10.36 5.4546-2.672 2.4863-4.913 3.5349-7.729.7357-1.378-1.37-2.554-2.8583-4.085-4.0846-2.266-1.8097-6.063-4.1691-8.651-1.463-.871.9133-1.141 2.1734-1.285 3.3742-.364 3.0275-.499 5.2263-2.377 7.8056-1.479 2.0465 1.929 4.7019 3.493 2.723zM330.419 91.9042c-8.465 3.6786-17.285 7.0528-25.353 11.5688-2.748 1.539-.871 6.478 2.207 5.243 8.795-3.518 17.159-8.313 25.548-12.6934 2.782-1.4546.338-5.3108-2.402-4.1184z" fill="#000"/>
  <path d="M299.678 91.0163c3.112 8.1777 7.011 19.1457-.067 26.4187 1.691.702 3.391 1.404 5.082 2.106.203-4.609-.127-9.108-.896-13.649-.592-3.468-5.878-2.495-5.954.803-.279 11.298-9.86 18.579-18.19 24.668 1.539.88 3.078 1.768 4.617 2.647-.321-3.222-.372-6.385-.144-9.624.22-3.103-4.304-4.126-5.742-1.556-2.909 5.193-6.968 9.413-12.118 12.423-2.453 1.43-5.04 2.537-7.78 3.298-1.37.381-7.231 2.106-8.178 1.337.304.735.609 1.471.913 2.207.017-.203.043-.398.059-.601.415-3.991-5.843-3.974-6.249 0-.854 8.423 16.211 2.893 19.763 1.396 8.034-3.383 14.664-9.345 18.909-16.947-1.911-.516-3.83-1.041-5.742-1.557-.219 3.231-.169 6.394.161 9.624.211 2.047 2.546 4.178 4.617 2.647 10.208-7.501 20.846-16.237 21.159-29.97-1.987.27-3.966.541-5.953.803.693 4.008.921 7.975.786 12.034-.085 2.562 3.332 3.958 5.083 2.106 9.023-9.514 4.693-21.9202.084-32.4065-1.04-2.3679-5.159-.6596-4.22 1.7928z" fill="#000"/>
  <path d="M153.927 181.605c8.043 3.349 16.778 2.376 24.88-.279 8.668-2.842 17.108-6.681 25.497-10.258 17.15-7.307 34.013-15.4 49.26-26.225 3.146-2.232.127-7.467-3.044-5.209-13.979 9.962-29.336 17.649-45.032 24.508-7.89 3.45-15.831 6.875-23.848 10.021-8.474 3.315-17.463 5.733-26.351 2.52-3.146-1.133-4.313 3.687-1.362 4.922zM255.162 34.9658c3.29-8.3552 9.024-15.7632 16.423-20.8711 3.772-2.6047 7.941-4.6089 12.33-5.91969 2.41-.71882 12.288-3.67867 13.658-1.20085.972 1.75899 3.382 1.53912 4.406 0 .118-.18605.245-.36364.363-.54969.668-1.00635.482-2.76534-.456-3.56027-3.485-2.9429348-9.573-1.54758-13.709-.83722-6.089 1.04864-12.042 3.33195-17.294 6.60469-9.42 5.87743-16.169 14.79073-19.856 25.20093-.939 2.6301 3.137 3.6533 4.135 1.1332z" fill="#000"/>
  <path d="M276.727 7.60826c.752 8.82034 1.945 17.67454 2.41 26.51174.22 4.1354-.279 8.2622-4.795 9.683-4.431 1.4038-9.615 1.167-14.207.8625-3.848-.2537-3.84 5.7506 0 5.9959 8.609.5496 21.691.7188 24.406-9.6999 1.192-4.5666.194-9.5222-.313-14.0973-.719-6.4271-1.556-12.8458-2.385-19.2644-.406-3.17972-5.404-3.33194-5.116.00846z" fill="#000"/>
  <path d="M271.365 48.3692c1.066 3.0952 2.182 6.1649 3.459 9.184 1.023 2.4102 1.937 6.1988 4.254 7.7463 4.236 2.833 12.6-2.334 16.397-4.2622 3.29-1.6744.389-6.6385-2.892-4.9556-1.996 1.0233-4.008 1.9958-6.106 2.7907-.871.3298-1.894.8542-2.816.9979-1.59.2368-.879.6512-1.911-.2114-1.201-1.0148-2.004-4.0423-2.681-5.4715-1.108-2.334-2.173-4.685-3.171-7.0698-1.133-2.7061-5.548-1.6829-4.533 1.2516zM298.663 7.86184c3.307 3.37426 6.842 6.78226 11.51 8.10996 4.938 1.4038 9.277-.389 13.683-2.5285 5.217-2.5286 10.554-4.55819 16.236-5.80979 2.969-.65116 6.614-1.66597 9.658-1.37844 3.374.3129 3.493 3.0275 4.245 6.06343 1.421 5.7337 2.165 12.0508 1.404 17.9536-.66 5.0994-4.178 7.7717-8.753 9.4631-6.181 2.2917-13.226 3.611-19.746 4.5158-3.501.4821-2.706 6.7062.846 6.2326 7.442-.9809 15.704-2.3425 22.604-5.3784 4.22-1.852 8.229-4.6597 10.055-9.0149 2.284-5.4376 1.633-12.2791.88-17.962-.66-4.9726-1.336-12.98951-5.573-16.3722-4.042-3.23046-11.129-1.192392-15.738-.26215-6.199 1.24313-12.144 3.38268-17.835 6.12265-3.527 1.70825-7.011 3.7801-11.078 2.7061-3.476-.92174-6.453-3.45029-9.074-5.77588-2.25-1.98733-5.455 1.14165-3.324 3.31502z" fill="#000"/>
  <path d="M337.328 46.6775c-3.341 4.3383-5.869 8.8457-11.586 10.165-4.888 1.1332-9.353 1.2178-13.514 4.3552-7.653 5.7759-9.894 15.924-17.345 21.8521-3.12 2.4863 1.303 6.8753 4.389 4.389 7.721-6.2072 10.03-19.2559 19.51-23.1206 4.694-1.9112 9.81-1.1755 14.224-4.0507 3.933-2.554 6.867-6.7739 8.863-10.943 1.488-3.1121-2.503-5.2939-4.541-2.647zM343.095 8.24203c2.308 2.23257 5.26 3.62797 8.203 4.82877 2.477 1.0148 5.725 2.1565 7.298-.871 1.302-2.50322.253-5.52226-1.7-7.34891-2.562-2.39325-6.3-2.27485-9.531-1.78436-3.247.49894-2.495 5.95352.778 5.75056 1.396-.08457 3.467-.61734 4.719.21141.888.59197.135.9894 1.565.16068 1.699-.98098.152-.76956-.939-1.1332-2.85-.9556-5.438-2.4609-8.22-3.56873-2.131-.84567-3.687 2.29177-2.173 3.75478z" fill="#000"/>
  <path d="M305.208 77.6801c4.871 4.5582 11.028 7.907 16.254 12.11 2.977 2.3932 7.214-1.8689 4.212-4.2114-5.54-4.3045-11.493-9.4293-18.115-11.924-2.291-.871-4.034 2.444-2.351 4.0254zM297.827 27.8444c2.681-.7526 5.379-1.4291 8.102-2.0296 2.494-.5497 5.167-.778 7.459-1.9196 1.809-.9049.744-3.3489-.948-3.4927-2.528-.2198-5.2.7273-7.628 1.37-2.689.7188-5.344 1.5476-7.983 2.4356-2.283.7611-1.361 4.296.998 3.6363z" fill="#000"/>
  <path d="M308.516 30.7961c3.603 0 3.603-5.5983 0-5.5983-3.602 0-3.602 5.5983 0 5.5983zM96.0492 249.039c-12.7358 13.48-27.6111 23.366-46.0552 27.01-9.2855 1.836-20.0847 2.656-28.3807-2.723-7.0529-4.566-11.1882-12.583-13.40387-20.465-5.81822-20.71-.12686-41.928 9.38697-60.533 8.4313-16.491 18.6301-32.406 29.7168-47.231 12.7443-17.031 27.6788-32.55 45.4971-44.287 3.1459-2.0723.203-7.1632-2.9683-5.0744-17.3109 11.3994-31.941 26.1314-44.6007 42.4694-12.9134 16.677-24.7866 34.901-34.0636 53.861-9.58142 19.586-14.81612 42.089-8.25371 63.527 2.50318 8.16 6.83301 16.025 13.69981 21.285 7.9071 6.072 17.9536 6.952 27.5858 5.878 21.2517-2.377 42.8755-13.32 55.6705-30.774 1.6319-2.241-1.9619-4.922-3.8309-2.943zM85.284 90.3989c-2.1818-1.2178-4.4651-2.258-6.8415-3.036-2.1733-.7104-4.9556-1.6829-7.1628-.7696-1.8605.7696-2.1903 2.9261-.5412 4.1354 1.649 1.2093 3.9154 1.2093 5.8605 1.6998 2.1395.5412 4.1691 1.3192 6.148 2.3002 2.8753 1.4292 5.3869-2.74 2.537-4.3298zM92.9298 82.9993c-.9641-6.1396-2.4017-13.7084-6.5117-18.5963-1.4715-1.7506-4.0423.1606-3.6026 2.0972.685 3.0106 2.3003 5.776 3.2897 8.702.9979 2.9598 1.8182 5.945 2.4186 9.0148.5751 2.9091 4.8542 1.6237 4.406-1.2177z" fill="#000"/>
  <path d="M89.7915 109.351c-1.2938 3.687-3.4503 7.873-3.7124 11.788-.1354 2.072 2.6046 2.419 3.611.981 1.1416-1.632 1.6659-3.712 2.3171-5.581.7019-1.996 1.4038-4 2.1057-5.996.9641-2.723-3.3657-3.899-4.3214-1.192zM100.396 109.325c.905 1.243 1.81 2.495 2.723 3.738.88 1.209 1.666 2.732 2.977 3.484 1.48.846 3.129-.549 2.774-2.131-.304-1.378-1.488-2.537-2.317-3.653-.871-1.167-1.742-2.334-2.613-3.51-.66-.879-1.776-1.336-2.799-.735-.888.532-1.3958 1.911-.745 2.807zM189.716 110.602c-1.294 46.021 4.186 92.296 15.239 136.965.913 3.687 6.63 2.131 5.7-1.573-11.087-44.356-16.136-89.701-16.034-135.392.008-3.163-4.821-3.155-4.905 0zM202.892 109.934c22.917 38.081 38.486 79.874 55.315 120.838 1.395 3.391 6.985 1.903 5.564-1.539-17.023-41.43-32.922-83.578-56.82-121.675-1.599-2.554-5.632-.229-4.059 2.376zM214.054 106.179c10.233 20.398 21.7 40.119 34.284 59.163 6.216 9.404 12.685 18.63 19.416 27.67 3.206 4.313 6.487 8.567 9.81 12.787 3.738 4.744 7.916 9.328 9.869 15.146 1.201 3.577 6.901 2.038 5.683-1.565-3.526-10.393-12.457-18.858-18.985-27.442-6.985-9.184-13.725-18.545-20.186-28.101-13.057-19.315-24.973-39.4-35.907-59.992-1.387-2.647-5.311-.313-3.984 2.334z" fill="#000"/>
  <path d="M304.609 135.016c.651-.702 1.176-1.277 1.759-1.911-.769-.583-1.404-1.074-2.131-1.632.288-.186.406-.321.465-.296 1.759.592 3.036-.643 4.474-1.209.33-.127.651-.761.643-1.15-.017-.745.11-1.362.862-1.506 1.548-.296 2.495-1.37 3.467-2.452.288-.321.618-.609.981-.964.322.296.575.524.888.82.119-.203.22-.364.305-.524.786-1.556 1.488-2.038 2.884-.668 1.124 1.108 1.446.998 2.587-.127 1.793-1.776 2.427-1.776 4.313-.144.245.212.821.22 1.159.102 1.201-.432 2.249-.559 3.044.744.161.27.677.465 1.032.456 2.765-.076 5.218.711 7.222 2.63 1.548 1.489 3.002 3.07 4.66 4.77-.136-1.116-.263-2.207-.406-3.349 1.226.533 1.708 1.565 1.742 2.825.034 1.285-.017 2.571-.093 3.856-.051.82.211 1.319 1.048 1.463.237.042.474.093.702.161 1.556.414 3.112.828 4.778 1.268-.397.677-.676 1.159-1.04 1.768.524.304 1.049.617 1.725 1.014-.507.229-.888.389-1.26.559.634 2.139.592 2.19-1.429 1.792.161.178.262.279.338.389.389.55 1.176 1.184 1.083 1.641-.186.88-.355 2.013-1.649 2.249-.237.043-.55.584-.542.88.06 1.556-.676 2.723-1.53 3.941-1.201 1.725-2.588 3.357-2.723 5.674-.076 1.311-.677 1.556-2.013 1.37-.271-.042-.55-.042-.583-.042-1.125 1.505-2.216 2.841-3.155 4.262-.524.787-.896 1.7-1.184 2.605-.549 1.725-1.108 3.467-1.446 5.235-.6 3.112-2.444 5.276-4.947 7.002-3.4 2.342-7.222 3.788-11.154 4.761-4.347 1.074-8.897-1.21-11.561-5.489-1.209-1.936-2.291-3.966-3.272-6.038-1.616-3.425-1.21-6.993-.356-10.52.491-2.029.516-4.008.263-6.089-.212-1.759.084-3.594.245-5.387.237-2.638.609-5.277.795-7.915.093-1.302-.127-2.588.456-3.89.22-.491-.321-1.379-.625-2.03-.17-.38-.567-.642-.821-.905zm3.18 31.679c-.262-.33-.414-.617-.643-.795-.372-.287-.803-.507-1.201-.752-.118.431-.439.913-.338 1.285.567 2.047.973 4.195 1.928 6.055 1.277 2.495 1.979 5.556 5.108 6.689.093.034.161.178.228.271 1.066 1.641 2.597 2.216 4.499 2.021 1.074-.11 2.165-.178 3.248-.211.583-.017 1.251.304 1.742.11 2.046-.829 4.186-1.565 6.021-2.757 2.25-1.463 4.778-2.799 5.708-5.649.592-1.836 1.193-3.671 1.742-5.514.347-1.15.559-2.343.905-3.501 1.007-3.4 2.123-6.766 3.011-10.191.228-.871-.034-2.004-.44-2.849-.363-.77-.524-1.421-.203-2.157.677-1.548.888-3.137.634-4.812-.617-4.169-1.268-5.911-5.302-7.349-3.822-1.361-7.822-1.818-11.848-2.046-.651-.034-1.268-.398-1.919-.525-.66-.126-1.413-.363-1.996-.169-5.996 2.021-8.931 6.943-10.909 12.372-1.057 2.893-.931 6.191-1.59 9.244-.694 3.23-.491 6.122 1.886 8.642.659.745.558 1.624-.271 2.588z" fill="#000" stroke="#000" stroke-miterlimit="10" stroke-linecap="round" stroke-linejoin="round"/>
  <path d="M325.701 172.589c-.415-.067-.761-.017-.905-.16-.846-.838-1.573-.389-2.351.11-2.08 1.319-4.364 1.809-6.791 1.31-.719-.152-1.607-.389-2.038-.904-1.108-1.345-2.013-2.867-2.968-4.33-.093-.136-.017-.381-.017-.558 3.036-.77 14.309 2.494 15.07 4.532zm-12.821-2.368c.153 1.337.685 2.208 1.683 2.631 1.861.786 3.814.921 5.751.253.406-.144.702-.6 1.057-.913-.406-.186-.803-.389-1.218-.55-.135-.051-.313.017-.473.017-2.03.059-4-.093-5.785-1.209-.22-.127-.524-.119-1.015-.229zm7.265.525c-1.962-1.345-4.153-1.049-6.131-1.548 1.496 1.725 4.312 2.47 6.131 1.548zM321.929 165.012c-.186.076-.305.169-.398.152-1.42-.271-2.799-.372-4.296-.203-.947.11-2.469-1.023-3.002-1.996-.626-1.133.245-2.283 1.269-3.306.904-.905 1.277-2.343 1.885-3.544.271-.541.542-1.082.804-1.623.101.042.203.084.296.127-.524 1.953-1.083 3.898-1.539 5.869-.212.887-.313 1.818-.305 2.723.017 1.065.753 1.479 1.725 1.09.187-.076.356-.186.525-.287 1.59-.939 2.19-.761 3.036.998zM324.279 151.718c1.734-1.86 3.916-1.099 5.717-.651 1.505.372 2.977 1.446 4.034 2.748-.076.144-.152.296-.228.44-3.121-.837-6.233-1.666-9.523-2.537zM316.795 150.154c-1.573-.415-2.824-.829-4.11-1.074-1.04-.195-2.114-.195-3.171-.296-.262-.026-.719-.043-.736-.136-.059-.27-.042-.659.119-.871.693-.938 1.725-1.598 2.807-1.158 1.607.659 3.079 1.649 4.584 2.537.194.11.245.465.507.998zM322.919 154.949c.719-1.235 2.884-1.505 5.006-.804 2.284.762 3.518 2.03 3.332 3.561-.321-.212-.685-.33-.871-.584-.626-.82-1.311-1.158-2.342-.693-.271.118-.922-.043-1.04-.271-.652-1.209-1.717-1.057-2.783-1.032-.397.017-.778-.101-1.302-.177zM309.709 151.49c1.632-1.344 3.856-1.437 5.412-.254.804.609 2.089 1.049 1.497 2.791-.533-.558-.947-.981-1.395-1.454-.33.219-.635.575-.981.625-.491.068-1.404 0-1.446-.177-.279-1.108-1.1-1.074-1.928-1.167-.33-.034-.652-.195-1.159-.364zM324.288 164.082c1.345 1.539 2.647 2.994 3.89 4.499.161.194.034.634.042.956-.312-.009-.778.11-.921-.051-.736-.829-1.497-1.675-2.038-2.63-.449-.812-.635-1.793-.973-2.774zM309.878 153.148c1.311.609 2.545 1.175 3.687 1.708-1.421.829-3.095.186-3.687-1.708zM324.339 156.724c1.404.541 2.816 1.074 4.084 1.565-1.031.659-2.816.177-4.084-1.565z" fill="#000" stroke="#000" stroke-miterlimit="10" stroke-linecap="round" stroke-linejoin="round"/>
  <path fill-rule="evenodd" clip-rule="evenodd" d="M281.116 26.9398c-.135-4.8034-.879-9.2517-2.046-13.8944-.364-1.463-1.708-2.1226-3.011-2.0719-1.683-.8118-3.89-.5581-5.124 1.4376-.22.3552-.457.6935-.677 1.0487-1.497-.778-3.552-.5328-4.753.685-3.408 3.4165-5.615 7.4334-6.638 11.9324-.44.3467-.871.7019-1.303 1.074-1.666 1.4292-3.052 3.1543-2.875 5.4968.169 2.2834 1.37 3.9324 1.818 6.0212-.118.8541-.101 1.6998.119 2.5201.017 1.8098 1.742 3.2728 3.442 3.5095.668.1523 1.378.1523 2.097.0592 4.956.0762 9.911.1438 14.867.2199 1.962.0254 3.865-1.7505 3.763-3.7632-.22-4.7696.457-9.5054.321-14.2749z" fill="#000"/>
</svg>
